<svg width="10" height="10" viewBox="0 0 10 10" fill="none" xmlns="http://www.w3.org/2000/svg">
<path d="M1 5C1 6.06087 1.42143 7.07828 2.17157 7.82843C2.92172 8.57857 3.93913 9 5 9C6.06087 9 7.07828 8.57857 7.82843 7.82843C8.57857 7.07828 9 6.06087 9 5C9 3.93913 8.57857 2.92172 7.82843 2.17157C7.07828 1.42143 6.06087 1 5 1C3.93913 1 2.92172 1.42143 2.17157 2.17157C1.42143 2.92172 1 3.93913 1 5V5Z" stroke="#00357C" stroke-linecap="round" stroke-linejoin="round"/>
<path d="M5.9098 6.81925H5.36435C5.2679 6.81925 5.17541 6.78094 5.10722 6.71274C5.03902 6.64455 5.00071 6.55205 5.00071 6.45561V4.09197C5.00071 4.04375 4.98155 3.99751 4.94746 3.96341C4.91336 3.92931 4.86711 3.91016 4.81889 3.91016H4.27344" stroke="#00357C" stroke-linecap="round" stroke-linejoin="round"/>
<circle cx="4.64844" cy="2.84961" r="0.25" fill="#00357C"/>
</svg>
