<svg width="18" height="18" viewBox="0 0 18 18" fill="none" xmlns="http://www.w3.org/2000/svg">
<path fill-rule="evenodd" clip-rule="evenodd" d="M17.3327 9.00008C17.3327 13.6025 13.6017 17.3334 8.99935 17.3334C4.39698 17.3334 0.666016 13.6025 0.666016 9.00008C0.666016 4.39771 4.39698 0.666748 8.99935 0.666748C13.6017 0.666748 17.3327 4.39771 17.3327 9.00008ZM12.358 6.47481C12.602 6.71888 12.602 7.11461 12.358 7.35869L8.19129 11.5254C7.94721 11.7694 7.55148 11.7694 7.30741 11.5254L5.64074 9.85869C5.39666 9.61461 5.39666 9.21888 5.64074 8.97481C5.88482 8.73073 6.28055 8.73073 6.52462 8.97481L7.74935 10.1995L9.61171 8.33717L11.4741 6.47481C11.7182 6.23073 12.1139 6.23073 12.358 6.47481Z" fill="#00B8B7"/>
</svg>
