<svg width="148" height="148" viewBox="0 0 148 148" fill="none" xmlns="http://www.w3.org/2000/svg">
<mask id="mask0_1440_91158" style="mask-type:alpha" maskUnits="userSpaceOnUse" x="0" y="0" width="148" height="148">
<rect width="148" height="148" fill="#C4C4C4"/>
</mask>
<g mask="url(#mask0_1440_91158)">
<path d="M73.1631 69.4625H43.5586V77.2532C43.7722 81.1995 45.328 84.9544 47.9681 87.8953L68.4887 108.416V127.114C68.4887 127.94 68.8171 128.733 69.4015 129.317C69.9859 129.901 70.7785 130.23 71.605 130.23H73.1631V69.4625Z" fill="white" stroke="#282C3F"/>
<path d="M43.5586 69.4625V77.2532C43.7722 81.1995 45.328 84.9544 47.9681 87.8953L68.4887 108.416V127.114C68.4887 127.94 68.8171 128.733 69.4015 129.317C69.9859 129.901 70.7785 130.23 71.605 130.23H74.7213C75.5478 130.23 76.3404 129.901 76.9248 129.317C77.5092 128.733 77.8375 127.94 77.8375 127.114V108.416L98.3613 87.8921C101 84.9518 102.555 81.1981 102.768 77.2532V69.4625" fill="#E5F1FF"/>
<path d="M43.5586 69.4625V77.2532C43.7722 81.1995 45.328 84.9544 47.9681 87.8953L68.4887 108.416V127.114C68.4887 127.94 68.8171 128.733 69.4015 129.317C69.9859 129.901 70.7785 130.23 71.605 130.23H74.7213C75.5478 130.23 76.3404 129.901 76.9248 129.317C77.5092 128.733 77.8375 127.94 77.8375 127.114V108.416L98.3613 87.8921C101 84.9518 102.555 81.1981 102.768 77.2532V69.4625" stroke="#282C3F"/>
<path d="M73.1631 80.3726C89.5133 80.3726 102.768 75.4894 102.768 69.4657C102.768 63.442 89.5133 58.5588 73.1631 58.5588C56.813 58.5588 43.5586 63.442 43.5586 69.4657C43.5586 75.4894 56.813 80.3726 73.1631 80.3726Z" fill="#E5F1FF"/>
<path d="M101.209 17.2682C101.071 18.3238 101.178 19.3969 101.521 20.4046C101.864 21.4123 102.434 22.3278 103.187 23.0806C103.94 23.8333 104.855 24.4031 105.863 24.7461C106.871 25.0891 107.944 25.1961 108.999 25.0589C103.967 25.0402 101.464 27.7388 101.209 32.8495C101.359 31.7914 101.261 30.7128 100.923 29.6991C100.584 28.6853 100.015 27.7641 99.2591 27.0084C98.5034 26.2527 97.5822 25.6832 96.5684 25.3448C95.5547 25.0064 94.4761 24.9085 93.418 25.0589C94.4735 25.1955 95.5462 25.088 96.5537 24.7448C97.5611 24.4016 98.4764 23.8317 99.2289 23.0792C99.9815 22.3266 100.551 21.4113 100.895 20.4039C101.238 19.3965 101.345 18.3237 101.209 17.2682Z" fill="#E5F1FF"/>
<path d="M49.7907 39.0821C49.6534 40.1377 49.7604 41.2107 50.1034 42.2185C50.4464 43.2262 51.0162 44.1417 51.769 44.8945C52.5217 45.6472 53.4372 46.217 54.4449 46.56C55.4527 46.903 56.5257 47.01 57.5813 46.8727C52.5486 46.854 50.0462 49.5527 49.7907 54.6634C49.941 53.6053 49.8431 52.5267 49.5047 51.5129C49.1664 50.4992 48.5968 49.578 47.8411 48.8223C47.0854 48.0666 46.1642 47.497 45.1505 47.1587C44.1367 46.8203 43.0581 46.7224 42 46.8727C43.0555 47.0093 44.1283 46.9019 45.1357 46.5587C46.1432 46.2155 47.0584 45.6456 47.811 44.893C48.5635 44.1405 49.1334 43.2252 49.4766 42.2178C49.8198 41.2103 49.9273 40.1376 49.7907 39.0821Z" fill="#E5F1FF"/>
<path d="M74.7205 20.3844C74.6862 29.1941 78.9835 34.1988 88.7437 34.4076C79.6847 34.3734 75.1817 39.2379 74.7205 48.4308C74.6426 39.7552 70.7535 34.4076 60.6973 34.4076C69.697 34.2799 74.6862 29.9389 74.7205 20.3844Z" fill="#00357C"/>
<path d="M101.209 17.2682C101.071 18.3238 101.178 19.3969 101.521 20.4046C101.864 21.4123 102.434 22.3278 103.187 23.0806C103.94 23.8333 104.855 24.4031 105.863 24.7461C106.871 25.0891 107.944 25.1961 108.999 25.0589C103.967 25.0402 101.464 27.7388 101.209 32.8495C101.359 31.7914 101.261 30.7128 100.923 29.6991C100.584 28.6853 100.015 27.7641 99.2591 27.0084C98.5034 26.2527 97.5822 25.6832 96.5684 25.3448C95.5547 25.0064 94.4761 24.9085 93.418 25.0589C94.4735 25.1955 95.5462 25.088 96.5537 24.7448C97.5611 24.4016 98.4764 23.8317 99.2289 23.0792C99.9815 22.3266 100.551 21.4113 100.895 20.4039C101.238 19.3965 101.345 18.3237 101.209 17.2682Z" fill="white" stroke="#282C3F"/>
<path d="M49.7907 39.0821C49.6534 40.1377 49.7604 41.2107 50.1034 42.2185C50.4464 43.2262 51.0162 44.1417 51.769 44.8945C52.5217 45.6472 53.4372 46.217 54.4449 46.56C55.4527 46.903 56.5257 47.01 57.5813 46.8727C52.5486 46.854 50.0462 49.5527 49.7907 54.6634C49.941 53.6053 49.8431 52.5267 49.5047 51.5129C49.1664 50.4992 48.5968 49.578 47.8411 48.8223C47.0854 48.0666 46.1642 47.497 45.1505 47.1587C44.1367 46.8203 43.0581 46.7224 42 46.8727C43.0555 47.0093 44.1283 46.9019 45.1357 46.5587C46.1432 46.2155 47.0584 45.6456 47.811 44.893C48.5635 44.1405 49.1334 43.2252 49.4766 42.2178C49.8198 41.2103 49.9273 40.1376 49.7907 39.0821Z" fill="white" stroke="#282C3F"/>
<path d="M103.128 69.5083C103.128 70.7811 102.398 72.0632 100.921 73.2954C99.4476 74.5252 97.285 75.6552 94.5688 76.6139C89.1409 78.5296 81.6096 79.7239 73.267 79.7239C64.9243 79.7239 57.393 78.5296 51.9651 76.6139C49.2489 75.6552 47.0863 74.5252 45.6125 73.2954C44.1358 72.0632 43.4062 70.7811 43.4062 69.5083C43.4062 68.2355 44.1358 66.9534 45.6125 65.7212C47.0863 64.4914 49.2489 63.3614 51.9651 62.4028C57.393 60.487 64.9243 59.2928 73.267 59.2928C81.6096 59.2928 89.1409 60.487 94.5688 62.4028C97.285 63.3614 99.4476 64.4914 100.921 65.7212C102.398 66.9534 103.128 68.2355 103.128 69.5083Z" fill="white" stroke="#282C3F"/>
</g>
</svg>
