<svg width="148" height="148" viewBox="0 0 148 148" fill="none" xmlns="http://www.w3.org/2000/svg">
<mask id="mask0_1440_91170" style="mask-type:alpha" maskUnits="userSpaceOnUse" x="0" y="0" width="148" height="148">
<rect width="148" height="148" fill="#C4C4C4"/>
</mask>
<g mask="url(#mask0_1440_91170)">
</g>
<path d="M74 112.5C93.33 112.5 109 96.83 109 77.5C109 58.17 93.33 42.5 74 42.5C54.67 42.5 39 58.17 39 77.5C39 96.83 54.67 112.5 74 112.5Z" fill="white" stroke="#282C3F"/>
<path d="M50.6673 117.167C84.1787 117.167 92.2007 98.5 113.667 98.5C117.38 98.5 120.941 99.975 123.567 102.601C126.192 105.226 127.667 108.787 127.667 112.5C127.667 116.213 126.192 119.774 123.567 122.399C120.941 125.025 117.38 126.5 113.667 126.5H34.334C30.621 126.5 27.06 125.025 24.4345 122.399C21.809 119.774 20.334 116.213 20.334 112.5C20.334 108.787 21.809 105.226 24.4345 102.601C27.06 99.975 30.621 98.5 34.334 98.5C55.8007 98.5 63.8227 117.167 97.334 117.167" fill="#E5F1FF"/>
<path d="M50.6673 117.167C84.1787 117.167 92.2007 98.5 113.667 98.5C117.38 98.5 120.941 99.975 123.567 102.601C126.192 105.226 127.667 108.787 127.667 112.5C127.667 116.213 126.192 119.774 123.567 122.399C120.941 125.025 117.38 126.5 113.667 126.5H34.334C30.621 126.5 27.06 125.025 24.4345 122.399C21.809 119.774 20.334 116.213 20.334 112.5C20.334 108.787 21.809 105.226 24.4345 102.601C27.06 99.975 30.621 98.5 34.334 98.5C55.8007 98.5 63.8227 117.167 97.334 117.167" stroke="#282C3F"/>
<path d="M113.667 21.5C113.461 23.0808 113.621 24.6877 114.135 26.1968C114.649 27.7059 115.502 29.0769 116.629 30.2041C117.756 31.3314 119.127 32.1847 120.637 32.6983C122.146 33.2119 123.753 33.3722 125.333 33.1667C117.797 33.1387 114.049 37.18 113.667 44.8333C113.892 43.2488 113.745 41.6336 113.238 40.1154C112.732 38.5973 111.879 37.2179 110.747 36.0862C109.615 34.9545 108.236 34.1016 106.718 33.5949C105.2 33.0882 103.585 32.9416 102 33.1667C103.581 33.3712 105.187 33.2103 106.696 32.6963C108.204 32.1824 109.575 31.329 110.702 30.202C111.829 29.075 112.682 27.7044 113.196 26.1958C113.71 24.6871 113.871 23.0806 113.667 21.5Z" fill="white" stroke="#282C3F" stroke-linecap="round" stroke-linejoin="round"/>
<path d="M44.6016 27.3333C44.5502 40.526 50.9856 48.0207 65.6016 48.3333C52.0356 48.282 45.2922 55.5667 44.6016 69.3333C44.4849 56.3413 38.6609 48.3333 23.6016 48.3333C37.0789 48.142 44.5502 41.6413 44.6016 27.3333Z" fill="#00357C"/>
<circle cx="59.5326" cy="68.8667" r="2.33333" fill="#282C3F"/>
<ellipse cx="84.7337" cy="68.8667" rx="2.33333" ry="2.33333" fill="#282C3F"/>
<path d="M61.8672 88C65.445 90.1778 74.6539 93.2267 82.8672 88" stroke="#282C3F" stroke-linecap="round"/>
</svg>
