<svg width="82" height="27" viewBox="0 0 82 27" fill="none" xmlns="http://www.w3.org/2000/svg">
<g clip-path="url(#clip0_214_15895)">
<path d="M12.9504 26.5999C19.4824 26.5999 24.4797 22.2715 24.4797 15.11V13.1032H12.7537V17.7857H19.0102C18.1838 20.0286 16.1377 21.4058 13.0291 21.4058C8.50395 21.4058 5.67082 18.494 5.67082 14.5197C5.67082 10.4274 8.622 7.51558 12.5569 7.51558C15.1933 7.51558 17.2788 8.73541 18.2625 10.27L22.7877 7.67298C20.8202 4.52505 17.0427 2.3215 12.5569 2.3215C5.71016 2.28215 0.319336 7.71233 0.319336 14.4804C0.319336 21.2091 5.59212 26.5999 12.9504 26.5999Z" fill="#00357C"/>
<path d="M33.8839 18.6118H31.2475H28.139V13.7719H35.4579C36.9532 13.7325 38.2123 12.3947 38.2123 10.6633C38.2123 9.01064 37.1106 7.71212 35.694 7.55472H28.0996V2.32129H31.2082H35.3792C35.5366 2.32129 35.7333 2.32129 35.8907 2.32129H36.2842V2.36064C40.4552 2.79348 43.7212 6.3349 43.7212 10.6633C43.7212 13.6538 41.9111 16.3689 39.2354 17.7068L44.3901 26.639H38.4484L33.8839 18.6118Z" fill="#00357C"/>
<path d="M54.5033 26.4431V7.4375H48.9551V26.4431H54.5033Z" fill="#00357C"/>
<path d="M63.7504 18.9663V26.6H58.2021V2.28223H67.4098C72.2104 2.28223 75.9092 5.98104 75.9092 10.6242C75.9092 15.2281 72.2104 18.9663 67.4098 18.9663H63.7504ZM63.7504 13.7722H67.4098C69.1019 13.7722 70.361 12.4343 70.361 10.6636C70.361 8.89288 69.1019 7.55501 67.4098 7.55501H63.7504V13.7722Z" fill="#00357C"/>
<path d="M51.7486 0C52.1027 0.0393491 52.4175 0.196746 52.6143 0.550888C53.3619 1.73136 54.1095 2.95118 54.8572 4.13166C55.0146 4.36775 55.172 4.64319 55.3294 4.87929C55.4868 5.11538 55.5261 5.31213 55.3294 5.54822C55.172 5.74497 54.9752 5.82367 54.6604 5.70562C53.8734 5.46953 53.0865 5.23343 52.2601 4.95799C51.8666 4.83994 51.5125 4.83994 51.119 4.95799C50.332 5.23343 49.545 5.46953 48.7581 5.70562C48.522 5.78432 48.2465 5.78432 48.0891 5.54822C47.9317 5.35148 47.9317 5.11538 48.1285 4.83994C49.0335 3.38402 49.9385 1.96746 50.8042 0.511538C51.0403 0.196746 51.3158 0 51.7486 0Z" fill="#00B8B7"/>
<path d="M79.1738 6.29584C78.8983 6.29584 78.6229 6.25649 78.3868 6.13844C78.1507 6.02039 77.9146 5.90234 77.7572 5.7056C77.5605 5.50885 77.4424 5.31211 77.3244 5.07601C77.2063 4.83992 77.167 4.56447 77.167 4.28903C77.167 4.01359 77.2063 3.73814 77.3244 3.50205C77.4424 3.26595 77.5605 3.02986 77.7572 2.87246C77.954 2.71507 78.1507 2.55767 78.3868 2.43962C78.6229 2.32158 78.8983 2.28223 79.1738 2.28223C79.4492 2.28223 79.7247 2.32158 79.9608 2.43962C80.1969 2.55767 80.433 2.67572 80.5904 2.87246C80.7871 3.06921 80.9052 3.26595 81.0232 3.50205C81.1413 3.73814 81.1806 4.01359 81.1806 4.28903C81.1806 4.56447 81.1413 4.83992 81.0232 5.07601C80.9052 5.31211 80.7871 5.5482 80.5904 5.7056C80.3936 5.90234 80.1969 6.02039 79.9608 6.13844C79.6853 6.25649 79.4492 6.29584 79.1738 6.29584ZM79.1738 6.02039C79.4886 6.02039 79.8034 5.94169 80.0395 5.7843C80.3149 5.6269 80.5117 5.43016 80.6691 5.15471C80.8265 4.87927 80.9052 4.60382 80.9052 4.28903C80.9052 3.97424 80.8265 3.65945 80.6691 3.42335C80.5117 3.14791 80.3149 2.95116 80.0395 2.79376C79.764 2.63637 79.4886 2.55767 79.1738 2.55767C78.859 2.55767 78.5442 2.63637 78.3081 2.79376C78.072 2.95116 77.8359 3.14791 77.6785 3.42335C77.5211 3.69879 77.4424 3.97424 77.4424 4.28903C77.4424 4.60382 77.5211 4.91862 77.6785 5.15471C77.8359 5.43016 78.0327 5.6269 78.3081 5.7843C78.5442 5.94169 78.8197 6.02039 79.1738 6.02039ZM78.5049 5.19406V3.34465H79.3312C79.4492 3.34465 79.5279 3.384 79.646 3.42335C79.764 3.4627 79.8034 3.5414 79.8427 3.6201C79.8821 3.69879 79.9214 3.81684 79.9214 3.93489C79.9214 4.05294 79.8821 4.17098 79.8427 4.24968C79.8034 4.32838 79.7247 4.40708 79.646 4.44643C79.5673 4.48578 79.4492 4.52513 79.3312 4.52513H78.6229V4.32838H79.2918C79.4099 4.32838 79.4886 4.28903 79.5673 4.21033C79.646 4.13163 79.6853 4.05294 79.6853 3.93489C79.6853 3.81684 79.646 3.73814 79.5673 3.65945C79.4886 3.58075 79.4099 3.5414 79.2918 3.5414H78.741V5.19406H78.5049ZM79.5279 4.36773L80.0001 5.23341H79.7247L79.2918 4.36773H79.5279Z" fill="#00357C"/>
</g>
<defs>
<clipPath id="clip0_214_15895">
<rect width="80.8624" height="26.6" fill="white" transform="translate(0.318359)"/>
</clipPath>
</defs>
</svg>
