<?xml version="1.0" encoding="utf-8"?>
<svg width="32" height="32" viewBox="0 0 32 32" fill="none" xmlns="http://www.w3.org/2000/svg">
  <path d="M10.1306 31V25.7827" stroke="#282C3F" strokeLinecap="round" strokeLinejoin="round"/>
  <path d="M17.9561 31V25.7827" stroke="#282C3F" strokeLinecap="round" strokeLinejoin="round"/>
  <path d="M7.52136 25.7827H20.5654" stroke="#282C3F" strokeLinecap="round" strokeLinejoin="round"/>
  <path d="M1 31.0001V9.27741C1.01694 8.92261 1.17378 8.58899 1.43618 8.34958C1.69857 8.11018 2.04514 7.9845 2.4 8.00007H13.6C13.9549 7.9845 14.3014 8.11018 14.5638 8.34958C14.8262 8.58899 14.9831 8.92261 15 9.27741V21.0001" stroke="#282C3F" strokeLinecap="round" strokeLinejoin="round"/>
  <path d="M11 4.66657C10.9883 4.47907 10.903 4.30378 10.7626 4.17891C10.6223 4.05403 10.4383 3.98969 10.2507 3.99991H5.75067C5.56285 3.98933 5.37849 4.0535 5.23783 4.17842C5.09718 4.30333 5.01168 4.47883 5 4.66657V7.99991H11V4.66657Z" stroke="#282C3F" strokeLinecap="round" strokeLinejoin="round"/>
  <path d="M7.96936 3.60795L8.00003 1.21729" stroke="#282C3F" strokeLinecap="round" strokeLinejoin="round"/>
  <path d="M5 13H11" stroke="#282C3F" strokeLinecap="round" strokeLinejoin="round"/>
  <path d="M5 19H11" stroke="#282C3F" strokeLinecap="round" strokeLinejoin="round"/>
  <path d="M1 31H31" stroke="#282C3F" strokeLinecap="round" strokeLinejoin="round"/>
  <path d="M21 17C21 18.3261 21.5268 19.5979 22.4645 20.5355C23.4021 21.4732 24.6739 22 26 22C27.3261 22 28.5979 21.4732 29.5355 20.5355C30.4732 19.5979 31 18.3261 31 17C31 15.6739 30.4732 14.4021 29.5355 13.4645C28.5979 12.5268 27.3261 12 26 12C24.6739 12 23.4021 12.5268 22.4645 13.4645C21.5268 14.4021 21 15.6739 21 17Z" stroke="#282C3F" strokeLinecap="round" strokeLinejoin="round"/>
  <path d="M26 31V18" stroke="#282C3F" strokeLinecap="round" strokeLinejoin="round"/>
</svg>
