<svg width="895" height="192" viewBox="0 0 895 192" fill="none" xmlns="http://www.w3.org/2000/svg">
<g opacity="0.2">
<path d="M446.599 445.323L68.8764 445.159L446.599 445.323ZM481.846 446.499C481.846 427.531 466.469 412.153 447.5 412.153C428.531 412.153 413.154 427.531 413.154 446.499C413.154 465.468 428.531 480.846 447.5 480.846C466.469 480.846 481.846 465.468 481.846 446.499ZM516.192 446.499C516.192 408.562 485.438 377.807 447.5 377.807C409.562 377.807 378.808 408.562 378.808 446.499C378.808 484.437 409.562 515.192 447.5 515.192C485.438 515.192 516.192 484.437 516.192 446.499ZM550.538 446.499C550.538 389.593 504.407 343.461 447.5 343.461C390.593 343.461 344.462 389.593 344.462 446.499C344.462 503.406 390.593 549.538 447.5 549.538C504.407 549.538 550.538 503.406 550.538 446.499ZM584.885 446.499C584.885 370.624 523.375 309.115 447.5 309.115C371.625 309.115 310.115 370.624 310.115 446.499C310.115 522.375 371.625 583.884 447.5 583.884C523.375 583.884 584.885 522.375 584.885 446.499ZM619.231 446.499C619.231 351.655 542.344 274.769 447.5 274.769C352.656 274.769 275.769 351.655 275.769 446.499C275.769 541.344 352.656 618.23 447.5 618.23C542.344 618.23 619.231 541.344 619.231 446.499ZM653.577 446.499C653.577 332.686 561.313 240.423 447.5 240.423C333.687 240.423 241.423 332.686 241.423 446.499C241.423 560.313 333.687 652.576 447.5 652.576C561.313 652.576 653.577 560.313 653.577 446.499ZM687.923 446.499C687.923 313.718 580.282 206.076 447.5 206.076C314.718 206.076 207.077 313.718 207.077 446.499C207.077 579.281 314.718 686.923 447.5 686.923C580.282 686.923 687.923 579.281 687.923 446.499ZM722.269 446.499C722.269 294.749 599.251 171.73 447.5 171.73C295.749 171.73 172.731 294.749 172.731 446.499C172.731 598.25 295.749 721.269 447.5 721.269C599.251 721.269 722.269 598.25 722.269 446.499ZM756.615 446.499C756.615 275.78 618.22 137.384 447.5 137.384C276.78 137.384 138.385 275.78 138.385 446.499C138.385 617.219 276.78 755.615 447.5 755.615C618.22 755.615 756.615 617.219 756.615 446.499ZM790.961 446.499C790.961 256.811 637.189 103.038 447.5 103.038C257.811 103.038 104.038 256.811 104.038 446.499C104.038 636.188 257.811 789.961 447.5 789.961C637.189 789.961 790.961 636.188 790.961 446.499ZM825.308 446.499C825.308 237.842 656.157 68.6922 447.5 68.6922C238.843 68.6922 69.6923 237.842 69.6923 446.499C69.6923 655.157 238.843 824.307 447.5 824.307C656.157 824.307 825.308 655.157 825.308 446.499ZM859.654 446.499C859.654 218.873 675.126 34.3462 447.5 34.3462C219.874 34.3462 35.3462 218.873 35.3462 446.499C35.3462 674.126 219.874 858.653 447.5 858.653C675.126 858.653 859.654 674.126 859.654 446.499ZM894 446.499C894 199.904 694.095 0 447.5 0C200.905 0 1 199.904 1 446.499C1 693.095 200.905 892.999 447.5 892.999C694.095 892.999 894 693.095 894 446.499Z" stroke="url(#paint0_linear_0_4424)" stroke-width="2"/>
<path opacity="0.7" d="M443.803 0.939092L443.802 -0.0609076L443.803 0.939092ZM710.523 87.2598C711.075 87.2185 711.487 86.7386 711.446 86.1879L710.773 77.213C710.732 76.6623 710.253 76.2493 709.701 76.2906C709.151 76.3318 708.737 76.8118 708.779 77.3625L709.378 85.3401L701.399 85.938C700.848 85.9792 700.435 86.4592 700.477 87.0099C700.518 87.5606 700.998 87.9736 701.548 87.9324L710.523 87.2598ZM182.402 86.2626C183.074 87.0037 183.074 87.0037 183.074 87.0033C183.075 87.0028 183.076 87.0021 183.077 87.001C183.079 86.9988 183.083 86.9953 183.089 86.9905C183.099 86.981 183.115 86.9663 183.137 86.9466C183.182 86.9072 183.249 86.8477 183.338 86.7687C183.518 86.6106 183.787 86.3745 184.148 86.0657C184.871 85.448 185.956 84.5392 187.397 83.3807C190.279 81.0638 194.588 77.7486 200.284 73.7674C211.677 65.8049 228.614 55.1793 250.775 44.5477C295.094 23.2851 360.298 1.99922 443.804 1.93909L443.802 -0.0609076C359.949 -0.000527579 294.452 21.3754 249.911 42.7445C227.641 53.4287 210.609 64.1114 199.139 72.1281C193.403 76.1366 189.058 79.4789 186.144 81.822C184.686 82.9935 183.587 83.9153 182.849 84.5458C182.481 84.861 182.203 85.1034 182.016 85.2678C181.923 85.35 181.853 85.4126 181.805 85.4552C181.781 85.4764 181.763 85.4926 181.751 85.5037C181.745 85.5093 181.739 85.5135 181.736 85.5165C181.734 85.518 181.733 85.5193 181.732 85.52C181.731 85.521 181.731 85.5216 182.402 86.2626ZM443.804 1.93909C527.31 1.87896 593.826 23.1652 639.462 44.4618C662.28 55.1102 679.877 65.7604 691.763 73.744C697.706 77.7357 702.22 81.0604 705.246 83.3845C706.759 84.5465 707.901 85.4584 708.661 86.0783C709.042 86.3883 709.327 86.6253 709.516 86.784C709.611 86.8634 709.682 86.9233 709.729 86.9629C709.753 86.9827 709.769 86.9975 709.781 87.0071C709.786 87.012 709.791 87.0155 709.794 87.0177C709.794 87.0189 709.796 87.0196 709.797 87.0201C709.797 87.0205 709.796 87.0206 710.449 86.2626C711.101 85.5046 711.1 85.504 711.099 85.5031C711.099 85.5024 711.097 85.5011 711.095 85.4997C711.092 85.4967 711.088 85.4925 711.081 85.4869C711.068 85.4759 711.049 85.4597 711.023 85.4384C710.974 85.3959 710.9 85.3332 710.802 85.251C710.604 85.0864 710.312 84.8436 709.924 84.5278C709.149 83.8962 707.993 82.9724 706.464 81.7983C703.407 79.4502 698.859 76.1005 692.878 72.0837C680.918 64.0503 663.232 53.347 640.309 42.6495C594.461 21.2542 527.655 -0.121278 443.802 -0.0609076L443.804 1.93909Z" fill="#00B8B7"/>
</g>
<defs>
<linearGradient id="paint0_linear_0_4424" x1="461.945" y1="673.796" x2="461.945" y2="13.6732" gradientUnits="userSpaceOnUse">
<stop stop-color="#101426" stop-opacity="0"/>
<stop offset="0.614084" stop-color="white" stop-opacity="0"/>
<stop offset="1" stop-color="#14172D" stop-opacity="0.26"/>
</linearGradient>
</defs>
</svg>
