<svg width="456" height="292" viewBox="0 0 456 292" fill="none" xmlns="http://www.w3.org/2000/svg">
<mask id="mask0_2291_59845" style="mask-type:alpha" maskUnits="userSpaceOnUse" x="0" y="0" width="456" height="292">
<rect width="456" height="292" fill="#C4C4C4"/>
</mask>
<g mask="url(#mask0_2291_59845)">
<path opacity="0.3" d="M423.201 145.313C423.38 142.104 420.979 139.333 417.777 139.054L53.2774 107.255C41.6704 106.242 31.6582 115.326 31.5402 126.977L31.2446 156.179C31.1265 167.852 40.988 177.144 52.6328 176.334L417.674 150.917C420.665 150.708 423.034 148.307 423.201 145.313Z" fill="url(#paint0_linear_2291_59845)"/>
<path fill-rule="evenodd" clip-rule="evenodd" d="M186.844 69.2743L186.336 66.7131L185.862 69.2807L176.894 117.831L170.568 99.6808L169.909 97.7909L169.602 99.7685L157.258 179.146L152.455 124.252L152.187 121.188L151.47 124.179L146.349 145.559L139.469 112.147L138.849 109.133L138.483 112.188L131.336 171.892L124.585 154.938L123.826 153.031L123.623 155.074L118.974 201.9L112.453 170.877L111.868 168.094L111.469 170.91L103.592 226.479L94.7453 188.849L94.3941 187.355L93.7979 188.769L86.6957 205.618L81.9672 177.983L81.5939 175.802L80.9931 177.932L70.9282 213.612L63.8808 199.197L63.3383 198.087L62.9562 199.262L53.9348 226.99C53.8494 227.252 53.993 227.534 54.2556 227.62C54.5182 227.705 54.8003 227.562 54.8858 227.299L63.525 200.746L70.6048 215.227L71.1798 216.404L71.5352 215.144L81.3547 180.333L85.9987 207.474L86.2874 209.161L86.9523 207.584L94.1232 190.572L103.227 229.296L103.836 231.885L104.209 229.252L112.059 173.867L118.662 205.278L119.329 208.449L119.649 205.224L124.415 157.215L131.134 174.089L131.861 175.915L132.095 173.963L139.11 115.362L145.823 147.96L146.275 150.159L146.799 147.976L151.727 127.402L156.62 183.337L156.98 187.442L157.613 183.371L170.282 101.9L176.571 119.942L177.192 121.724L177.534 119.868L186.371 72.03L192.521 103.043L192.794 104.42L193.453 103.181L200.662 89.6186L217.893 198.697L218.447 198.61L218.299 199.541L219.287 199.697L236.518 90.6187L243.727 104.181L244.386 105.42L244.659 104.043L250.809 73.0301L259.645 120.868L259.988 122.724L260.609 120.942L266.897 102.9L279.567 184.371L280.2 188.442L280.559 184.338L285.453 128.402L290.381 148.976L290.904 151.16L291.357 148.96L298.07 116.362L305.085 174.963L305.319 176.915L306.046 175.089L312.764 158.215L317.531 206.224L317.851 209.449L318.517 206.278L325.12 174.867L332.971 230.252L333.344 232.885L333.952 230.296L343.057 191.572L350.228 208.584L350.892 210.161L351.181 208.474L355.825 181.333L365.645 216.144L366 217.404L366.575 216.228L373.655 201.746L382.294 228.299C382.379 228.562 382.662 228.705 382.924 228.62C383.187 228.534 383.33 228.252 383.245 227.99L374.224 200.262L373.841 199.087L373.299 200.197L366.252 214.612L356.187 178.932L355.586 176.802L355.213 178.983L350.484 206.618L343.382 189.769L342.786 188.355L342.434 189.849L333.588 227.479L325.711 171.91L325.312 169.094L324.727 171.878L318.205 202.9L313.557 156.074L313.354 154.031L312.595 155.938L305.844 172.892L298.697 113.188L298.331 110.133L297.711 113.147L290.831 146.559L285.709 125.179L284.993 122.188L284.725 125.252L279.922 180.146L267.578 100.769L267.271 98.791L266.612 100.681L260.286 118.831L251.318 70.2808L250.844 67.7132L250.336 70.2744L243.951 102.472L236.699 88.8287L235.996 87.5082L235.763 88.9854L218.669 197.202L201.417 87.9853L201.183 86.5081L200.481 87.8286L193.228 101.472L186.844 69.2743Z" fill="#282C3F"/>
</g>
<mask id="mask1_2291_59845" style="mask-type:alpha" maskUnits="userSpaceOnUse" x="16" y="98" width="434" height="103">
<rect x="16" y="98.0173" width="434" height="102" fill="#C4C4C4"/>
</mask>
<g mask="url(#mask1_2291_59845)">
<path d="M413.404 168.88C425.293 173.683 438.858 167.855 443.704 155.862C448.549 143.869 442.839 130.253 430.951 125.45C419.062 120.647 405.496 126.475 400.65 138.467C395.805 150.46 401.515 164.076 413.404 168.88Z" fill="#00B8B7"/>
<path d="M19.5026 144.119L428.212 144.601" stroke="#00B8B7" stroke-width="3" stroke-miterlimit="10"/>
<rect x="18.498" y="130.5" width="59" height="27" rx="13.5" fill="white" stroke="#00357C"/>
<path d="M33.4156 152C37.2618 152 40.1856 149.39 40.1856 145.092V143.888H33.2979V146.699H36.9674C36.4768 148.044 35.2798 148.868 33.4549 148.868C30.7861 148.868 29.1378 147.121 29.1378 144.731C29.1378 142.261 30.8646 140.514 33.1801 140.514C34.7304 140.514 35.9666 141.237 36.5357 142.16L39.2045 140.594C38.0467 138.706 35.8293 137.381 33.1998 137.381C29.1574 137.381 25.998 140.634 25.998 144.711C25.998 148.747 29.0985 152 33.4156 152Z" fill="#00357C"/>
<path fill-rule="evenodd" clip-rule="evenodd" d="M45.7193 147.197H44.1678V147.197H42.3315V144.273H46.6378C47.5268 144.261 48.2506 143.45 48.2506 142.393C48.2506 141.392 47.6008 140.612 46.7765 140.522H42.3301V137.39H44.1678V137.381H46.6175C46.7156 137.381 46.8131 137.384 46.9098 137.39H47.1462V137.41C49.6106 137.678 51.5168 139.798 51.5168 142.393C51.5168 144.189 50.4553 145.818 48.8834 146.633L51.9251 152H48.4139L45.7193 147.197Z" fill="#00357C"/>
<path d="M57.8463 151.896V140.471H54.5801V151.896H57.8463Z" fill="#00357C"/>
<path fill-rule="evenodd" clip-rule="evenodd" d="M63.2975 147.406V152H60.0312V137.381H65.4409C68.258 137.381 70.4423 139.616 70.4423 142.393C70.4423 145.171 68.258 147.406 65.4409 147.406H63.2975ZM63.299 144.273H65.4424C66.4427 144.273 67.1776 143.458 67.1776 142.393C67.1776 141.328 66.4427 140.514 65.4424 140.514H63.299V144.273Z" fill="#00357C"/>
<path fill-rule="evenodd" clip-rule="evenodd" d="M56.2344 136C56.4454 136.015 56.6212 136.118 56.745 136.322C57.1822 137.042 57.6217 137.761 58.0607 138.48C58.1521 138.629 58.2433 138.779 58.3371 138.927C58.4229 139.062 58.4468 139.199 58.3473 139.337C58.2578 139.462 58.1303 139.496 57.9488 139.439C57.4815 139.291 57.0137 139.144 56.5488 138.988C56.3234 138.912 56.108 138.908 55.8807 138.986C55.4211 139.142 54.9564 139.283 54.4941 139.431C54.3441 139.48 54.2026 139.488 54.0909 139.348C53.9933 139.226 53.9944 139.091 54.1029 138.912C54.6286 138.046 55.1559 137.182 55.6846 136.318C55.807 136.118 55.9839 136.007 56.2344 136Z" fill="#00B8B7"/>
<path d="M410.354 166.486C398.504 161.698 392.797 148.094 397.628 136.135C402.46 124.176 416.016 118.355 427.866 123.142C439.717 127.93 445.424 141.535 440.592 153.494C435.761 165.452 422.205 171.274 410.354 166.486Z" fill="#00357C" stroke="#00357C" stroke-width="0.5"/>
<path fill-rule="evenodd" clip-rule="evenodd" d="M428.329 145.622C428.258 146.639 427.746 147.486 426.739 148.083C423.185 150.189 419.639 152.308 416.091 154.423C415.353 154.864 414.614 155.304 413.884 155.755C413.215 156.169 412.542 156.284 411.858 155.805C411.243 155.373 411.075 154.759 411.358 153.884C412.088 151.632 412.813 149.378 413.583 147.137C413.956 146.051 413.975 145.013 413.593 143.918C412.82 141.702 412.126 139.463 411.393 137.235C411.155 136.512 411.116 135.83 411.804 135.292C412.406 134.821 413.076 134.827 413.957 135.35C418.23 137.883 422.497 140.424 426.76 142.972C427.747 143.562 428.295 144.415 428.329 145.622Z" fill="white"/>
</g>
<defs>
<linearGradient id="paint0_linear_2291_59845" x1="423.461" y1="145.577" x2="31.3921" y2="141.608" gradientUnits="userSpaceOnUse">
<stop stop-color="#02C988"/>
<stop offset="1" stop-color="#02C988" stop-opacity="0"/>
</linearGradient>
</defs>
</svg>
