<svg width="1440" height="354" viewBox="0 0 1440 354" fill="none" xmlns="http://www.w3.org/2000/svg">
<path opacity="0.1" d="M1440 353.001C1287.59 176.939 786.207 -128.079 0.00384909 60.3436" stroke="#00357C" stroke-dasharray="4 4"/>
<path fill-rule="evenodd" clip-rule="evenodd" d="M1138.51 139.28C1138.05 140.219 1138.06 141.23 1138.63 142.266C1140.64 145.925 1142.64 149.591 1144.65 153.255C1145.07 154.017 1145.48 154.78 1145.89 155.548C1146.26 156.252 1146.78 156.693 1147.63 156.61C1148.38 156.536 1148.84 156.075 1149.05 155.155C1149.57 152.786 1150.09 150.419 1150.57 148.041C1150.8 146.887 1151.32 145.955 1152.21 145.174C1154.02 143.594 1155.78 141.952 1157.56 140.341C1158.14 139.818 1158.52 139.232 1158.2 138.408C1157.92 137.687 1157.33 137.355 1156.29 137.376C1151.27 137.48 1146.25 137.593 1141.23 137.714C1140.07 137.742 1139.16 138.224 1138.51 139.28Z" fill="#00B8B7"/>
</svg>
