<svg width="456" height="292" viewBox="0 0 456 292" fill="none" xmlns="http://www.w3.org/2000/svg">
<mask id="mask0_2291_59450" style="mask-type:alpha" maskUnits="userSpaceOnUse" x="0" y="0" width="456" height="292">
<rect width="456" height="292" fill="#C4C4C4"/>
</mask>
<g mask="url(#mask0_2291_59450)">
<path d="M163.293 222.406C183.852 222.2 204.463 221.994 225.022 221.788C237.957 221.685 250.944 221.531 263.721 223.488C272.817 224.879 281.966 227.3 291.115 226.115C295.322 225.549 299.37 224.261 303.524 223.54C309.676 222.458 315.986 222.715 322.19 222.973C335.598 223.488 348.953 224.003 362.361 224.57V238.737C341.908 236.419 321.296 235.594 300.685 236.161C290.327 236.47 279.968 237.14 269.663 237.191C247.684 237.346 225.811 234.77 203.885 232.812C168.183 229.567 132.376 227.712 96.5162 227.352C118.39 222.87 140.894 222.664 163.293 222.406Z" fill="#E6FAF3"/>
<path d="M287.855 244.045C267.297 243.839 246.685 243.633 226.126 243.427C213.192 243.324 200.204 243.169 187.427 245.127C178.331 246.518 169.182 248.939 160.033 247.754C155.827 247.187 151.778 245.899 147.624 245.178C141.472 244.096 135.163 244.354 128.958 244.612C115.55 245.127 102.195 245.642 88.7871 246.209V260.375C109.241 258.057 129.852 257.233 150.464 257.799C160.822 258.109 171.18 258.778 181.486 258.83C203.464 258.984 225.338 256.409 247.264 254.451C282.965 251.206 318.773 249.351 354.632 248.99C332.759 244.509 310.255 244.302 287.855 244.045Z" fill="#E6FAF3"/>
<path d="M343.288 185.556C342.991 185.556 342.749 185.314 342.749 185.018L342.695 149.588C342.695 149.292 342.938 149.05 343.234 149.05C343.53 149.05 343.772 149.292 343.772 149.588L343.826 185.018C343.826 185.314 343.584 185.556 343.288 185.556Z" fill="#00B8B7"/>
<path d="M328.051 159.2C334.566 161.542 340.058 166.617 342.885 172.944C338.981 173.159 335.037 171.638 332.156 169.013C329.276 166.375 328.199 163.104 328.051 159.2Z" fill="#00B8B7"/>
<path d="M342.883 173.038C342.869 173.038 342.842 173.038 342.829 173.024C340.015 171.369 336.125 167.721 333.352 164.948C330.35 161.946 327.995 159.294 327.968 159.267C327.927 159.227 327.941 159.159 327.981 159.132C328.022 159.092 328.089 159.105 328.116 159.146C328.143 159.173 330.498 161.825 333.487 164.826C336.246 167.599 340.123 171.234 342.923 172.876C342.977 172.903 342.99 172.97 342.963 173.011C342.95 173.024 342.923 173.038 342.883 173.038Z" fill="#102A54"/>
<path d="M343.611 176.523C346.923 170.439 352.778 165.795 359.455 163.964C359.065 167.854 356.965 171.516 353.923 173.966C350.88 176.415 347.488 176.981 343.611 176.523Z" fill="#00B8B7"/>
<path d="M343.613 176.631C343.573 176.631 343.533 176.604 343.519 176.564C343.506 176.51 343.533 176.456 343.586 176.443C349.778 174.249 359.295 164.018 359.39 163.911C359.43 163.87 359.484 163.87 359.538 163.911C359.578 163.951 359.578 164.018 359.538 164.059C359.444 164.166 349.886 174.424 343.654 176.645C343.64 176.631 343.627 176.631 343.613 176.631Z" fill="#102A54"/>
<path d="M334.428 150.423C338.305 151.944 341.508 155.08 343.097 158.93C340.754 158.984 338.412 158.015 336.716 156.386C335.033 154.757 334.441 152.765 334.428 150.423Z" fill="#00B8B7"/>
<path d="M343.082 159.038C343.069 159.038 343.055 159.038 343.028 159.024C338.142 156.292 334.359 150.544 334.332 150.49C334.305 150.45 334.319 150.382 334.359 150.355C334.4 150.329 334.467 150.342 334.494 150.382C334.534 150.436 338.29 156.144 343.122 158.863C343.176 158.89 343.19 158.957 343.163 158.997C343.149 159.011 343.122 159.038 343.082 159.038Z" fill="#102A54"/>
<path d="M343.604 164.92C346.08 160.357 350.482 156.87 355.503 155.497C355.207 158.418 353.632 161.165 351.357 163.009C349.082 164.853 346.511 165.27 343.604 164.92Z" fill="#00B8B7"/>
<path d="M343.601 165.028C343.561 165.028 343.534 165.001 343.507 164.974C343.48 164.92 343.507 164.866 343.561 164.839C348.42 162.511 355.352 155.511 355.433 155.43C355.474 155.39 355.541 155.39 355.581 155.43C355.622 155.471 355.622 155.538 355.581 155.578C355.514 155.646 348.541 162.686 343.655 165.028C343.628 165.028 343.614 165.028 343.601 165.028Z" fill="#102A54"/>
<path d="M361.228 233.849C363.032 233.807 364.4 233.221 365.373 232.192C366.341 231.169 366.894 229.733 367.125 228.036C367.586 224.647 366.776 220.12 365.278 215.426C363.777 210.724 361.575 205.825 359.223 201.679C356.874 197.541 354.36 194.125 352.225 192.414L352.224 192.414C351.463 191.808 351.284 190.713 351.808 189.891C352.845 188.281 354.395 185.79 355.542 183.596C356.115 182.5 356.594 181.468 356.857 180.652C356.988 180.245 357.071 179.876 357.079 179.573C357.086 179.278 357.023 178.974 356.777 178.797L356.777 178.797L356.776 178.796C356.313 178.469 355.682 178.449 355.02 178.547C354.348 178.646 353.578 178.876 352.789 179.12C352.716 179.142 352.644 179.165 352.571 179.187C351.843 179.413 351.098 179.644 350.373 179.803C349.574 179.979 348.821 180.062 348.161 179.965C347.482 179.861 346.952 179.685 346.476 179.508C346.388 179.475 346.301 179.442 346.214 179.409C345.84 179.267 345.477 179.129 345.101 179.049C344.131 178.841 343.088 179.013 341.277 180.12C340.439 180.627 339.42 180.793 338.315 180.754C337.209 180.715 336.035 180.472 334.902 180.179C334.37 180.041 333.85 179.893 333.352 179.752C333.32 179.743 333.289 179.734 333.257 179.725C332.731 179.576 332.229 179.434 331.769 179.322C331.309 179.21 330.883 179.125 330.511 179.092C330.143 179.06 329.801 179.075 329.523 179.185C329.206 179.31 329.109 179.617 329.108 179.916C329.107 180.215 329.198 180.587 329.341 180.996C329.631 181.82 330.169 182.885 330.809 184.014C332.092 186.275 333.81 188.84 334.848 190.342L334.848 190.342C335.298 190.994 335.238 191.902 334.682 192.412L334.682 192.413C332.476 194.451 329.901 198.05 327.481 202.285C325.057 206.524 322.778 211.42 321.169 216.066C319.564 220.705 318.617 225.123 318.885 228.395C319.019 230.033 319.46 231.413 320.305 232.386C321.157 233.368 322.392 233.904 324.043 233.902H324.043C330.712 233.892 335.097 233.941 338.927 233.984C345.271 234.055 350.088 234.109 361.228 233.849ZM361.228 233.849L361.222 233.599M361.228 233.849C361.228 233.849 361.228 233.849 361.228 233.849L361.222 233.599M361.222 233.599C350.085 233.859 345.274 233.805 338.934 233.734C335.105 233.691 330.718 233.642 324.042 233.652L356.632 179C357.776 179.822 353.67 186.539 351.597 189.756C351.005 190.685 351.207 191.923 352.068 192.61C360.454 199.327 375.221 233.276 361.222 233.599Z" fill="white" stroke="#282C3F" stroke-width="0.5"/>
<g filter="url(#filter0_d_2291_59450)">
<circle cx="344.017" cy="213.851" r="12.0381" fill="white"/>
<circle cx="344.017" cy="213.851" r="11.7881" stroke="black" stroke-width="0.5"/>
</g>
<path d="M344.295 217.86L348.026 214.13" stroke="#FF5C5C" stroke-width="0.5" stroke-linecap="round" stroke-linejoin="round"/>
<path d="M343.523 215.995C343.523 216.695 343.801 217.366 344.296 217.861C344.791 218.356 345.462 218.634 346.162 218.634C346.862 218.634 347.533 218.356 348.028 217.861C348.522 217.366 348.8 216.695 348.8 215.995C348.8 215.295 348.522 214.624 348.028 214.129C347.533 213.635 346.862 213.357 346.162 213.357C345.462 213.357 344.791 213.635 344.296 214.129C343.801 214.624 343.523 215.295 343.523 215.995Z" stroke="#282C3F" stroke-width="0.5" stroke-linecap="round" stroke-linejoin="round"/>
<path d="M337.998 214.676H341.829" stroke="#282C3F" stroke-width="0.5" stroke-linecap="round" stroke-linejoin="round"/>
<path d="M341.826 214.676V208.291" stroke="#282C3F" stroke-width="0.5" stroke-linecap="round" stroke-linejoin="round"/>
<path d="M344.383 210.845V209.568" stroke="#282C3F" stroke-width="0.5" stroke-linecap="round" stroke-linejoin="round"/>
<path d="M339.275 214.676V210.845" stroke="#282C3F" stroke-width="0.5" stroke-linecap="round" stroke-linejoin="round"/>
<path fill-rule="evenodd" clip-rule="evenodd" d="M343.186 182.261C343.609 182.288 343.962 182.486 344.21 182.875C345.087 184.248 345.968 185.618 346.849 186.988C347.032 187.273 347.215 187.559 347.403 187.841C347.575 188.099 347.623 188.359 347.423 188.623C347.244 188.861 346.988 188.926 346.624 188.816C345.687 188.534 344.749 188.255 343.817 187.957C343.365 187.813 342.933 187.806 342.477 187.953C341.555 188.252 340.623 188.52 339.696 188.803C339.395 188.895 339.111 188.91 338.887 188.644C338.691 188.412 338.694 188.153 338.911 187.812C339.966 186.162 341.023 184.514 342.083 182.867C342.329 182.486 342.684 182.274 343.186 182.261Z" fill="#00B8B7"/>
<path d="M335.132 191.129C334.823 191.129 334.58 190.886 334.567 190.577C334.553 190.267 334.809 189.998 335.119 189.998L351.434 189.513C351.743 189.513 352.012 189.756 352.012 190.065C352.026 190.375 351.77 190.644 351.461 190.644L335.146 191.129C335.146 191.129 335.146 191.129 335.132 191.129Z" fill="#102A54"/>
<path d="M335.132 192.744C334.823 192.744 334.58 192.502 334.567 192.192C334.553 191.882 334.809 191.613 335.119 191.613L351.434 191.129C351.757 191.129 352.012 191.371 352.012 191.681C352.026 191.99 351.77 192.259 351.461 192.259L335.146 192.744C335.146 192.744 335.146 192.744 335.132 192.744Z" fill="#102A54"/>
<path d="M344.576 150.898C348.756 150.898 352.144 147.512 352.144 143.336C352.144 139.159 348.756 135.774 344.576 135.774C340.396 135.774 337.008 139.159 337.008 143.336C337.008 147.512 340.396 150.898 344.576 150.898Z" fill="#FFA6A6"/>
<path d="M343.132 150.501C338.92 150.501 335.498 147.081 335.498 142.873C335.498 138.665 338.92 135.245 343.132 135.245C347.344 135.245 350.766 138.665 350.766 142.873C350.766 147.081 347.344 150.501 343.132 150.501Z" fill="white"/>
<path d="M341.098 139.947L344.91 139.947" stroke="#282C3F" stroke-width="0.5" stroke-linecap="round" stroke-linejoin="round"/>
<path d="M341.098 141.851L344.91 141.851" stroke="#282C3F" stroke-width="0.5" stroke-linecap="round" stroke-linejoin="round"/>
<path d="M342.368 139.947C342.874 139.947 343.359 140.148 343.716 140.505C344.073 140.862 344.274 141.347 344.274 141.853C344.274 142.358 344.073 142.843 343.716 143.2C343.359 143.558 342.874 143.758 342.368 143.758L341.098 143.758L344.274 146.935" stroke="#282C3F" stroke-width="0.5" stroke-linecap="round" stroke-linejoin="round"/>
<path d="M343.131 135.28C347.31 135.28 350.7 138.666 350.7 142.842C350.7 147.017 347.31 150.404 343.131 150.404C338.952 150.404 335.563 147.017 335.563 142.842C335.563 138.666 338.952 135.28 343.131 135.28ZM343.131 135.181C338.887 135.181 335.432 138.633 335.432 142.874C335.432 147.116 338.887 150.568 343.131 150.568C347.376 150.568 350.831 147.116 350.831 142.874C350.831 138.633 347.376 135.181 343.131 135.181Z" fill="#282C3F"/>
<path d="M335.367 55.7687C336.004 55.4686 336.706 55.3453 337.404 55.4112C338.102 55.4772 338.77 55.7301 339.342 56.1445C339.915 56.5589 340.37 57.1203 340.663 57.7721C340.957 58.424 341.077 59.1434 341.013 59.8581C339.759 75.5452 333.97 111.598 307.385 111.598C301.222 111.481 295.349 108.892 291.031 104.387C286.712 99.8815 284.293 93.8203 284.293 87.5068C284.293 81.1933 286.712 75.132 291.031 70.6268C295.349 66.1215 301.222 63.5323 307.385 63.4159C317.118 62.8109 326.634 60.2104 335.367 55.7687Z" fill="white"/>
<path d="M227.464 131.677C226.778 131.786 226.131 132.076 225.588 132.519C225.044 132.962 224.623 133.543 224.366 134.203C224.109 134.864 224.024 135.582 224.121 136.286C224.217 136.991 224.492 137.657 224.916 138.22C232.902 148.648 251.181 168.482 268.454 157.162C270.538 155.802 272.34 154.034 273.757 151.961C275.173 149.888 276.178 147.549 276.712 145.078C277.246 142.607 277.3 140.052 276.87 137.56C276.441 135.068 275.536 132.686 274.208 130.552C272.88 128.418 271.154 126.573 269.13 125.122C267.105 123.67 264.821 122.642 262.409 122.095C259.996 121.547 257.502 121.492 255.069 121.932C252.635 122.372 250.31 123.299 248.227 124.659C241.82 128.367 234.766 130.751 227.464 131.677Z" fill="white"/>
<path d="M261.437 35.7141C259.337 92.5408 213.691 133.86 157.695 133.86" stroke="#00303E" stroke-width="0.5" stroke-linecap="round" stroke-linejoin="round"/>
<path fill-rule="evenodd" clip-rule="evenodd" d="M261.869 34.0782C263.259 34.1748 264.418 34.8751 265.234 36.2512C268.113 41.1099 271.009 45.9574 273.901 50.8078C274.503 51.8171 275.105 52.827 275.722 53.8254C276.288 54.7403 276.445 55.6593 275.79 56.5942C275.2 57.4351 274.36 57.6658 273.164 57.2782C270.085 56.2798 267.004 55.2894 263.941 54.2371C262.456 53.7266 261.037 53.7011 259.539 54.2236C256.511 55.2801 253.449 56.228 250.404 57.2302C249.416 57.5555 248.483 57.6096 247.748 56.6689C247.104 55.8456 247.112 54.9299 247.827 53.7252C251.29 47.8846 254.764 42.0505 258.247 36.2231C259.054 34.8735 260.219 34.1246 261.869 34.0782Z" fill="#00B8B7"/>
<path d="M339.332 56.1613C338.848 55.8457 338.303 55.642 337.734 55.5642C334.54 72.6171 326.467 94.2829 305.848 94.2829C301.48 94.273 297.201 93.0135 293.494 90.6465C289.788 88.2794 286.801 84.8988 284.869 80.886C284.233 83.0295 283.894 85.2542 283.863 87.4945C283.863 93.8834 286.341 100.011 290.751 104.529C295.161 109.048 301.143 111.587 307.381 111.589C333.965 111.589 339.755 75.537 341.009 59.8499C341.068 59.1387 340.944 58.4239 340.65 57.7768C340.356 57.1297 339.901 56.5727 339.332 56.1613Z" fill="#3E7BFA"/>
<path d="M317.223 82.1128C310.658 84.7251 304.729 88.7753 299.851 93.9799C294.974 99.1845 291.266 105.418 288.986 112.244C287.97 115.25 287.454 118.41 287.461 121.592V223.828" stroke="#00303E" stroke-width="0.5" stroke-linecap="round" stroke-linejoin="round"/>
<path d="M159.693 203.381C159.693 203.381 175.665 203.381 175.665 223.828C175.665 223.828 175.665 203.381 191.636 203.381" stroke="#00303E" stroke-width="0.5" stroke-linecap="round" stroke-linejoin="round"/>
<path d="M231.564 207.47C232.724 204.024 234.866 201.014 237.713 198.827C240.56 196.64 243.981 195.377 247.536 195.202" stroke="#00303E" stroke-width="0.5" stroke-linecap="round" stroke-linejoin="round"/>
<path d="M227.567 170.371C229.814 172.671 231.077 175.792 231.078 179.046C231.079 182.3 229.817 185.421 227.571 187.722C225.325 190.024 222.278 191.317 219.101 191.318C215.924 191.319 212.877 190.027 210.63 187.726C206.524 181.067 203.448 173.797 201.51 166.175C201.288 165.461 201.262 164.697 201.436 163.969C201.609 163.24 201.974 162.575 202.492 162.044C203.009 161.514 203.659 161.14 204.371 160.963C205.082 160.785 205.827 160.812 206.525 161.039C213.965 163.025 221.063 166.172 227.567 170.371V170.371Z" stroke="#00303E" stroke-width="0.5" stroke-linecap="round" stroke-linejoin="round"/>
<path d="M227.17 188.144C230.044 192.68 231.569 197.973 231.562 203.381V223.828" stroke="#00303E" stroke-width="0.5" stroke-linecap="round" stroke-linejoin="round"/>
<path d="M274.214 130.589C272.903 128.492 271.209 126.676 269.223 125.24C269.322 128.558 268.579 131.847 267.066 134.783C265.553 137.719 263.322 140.202 260.59 141.99C247.941 150.243 234.765 141.851 225.453 132.666C224.959 133.081 224.572 133.615 224.327 134.22C224.07 134.885 223.986 135.606 224.086 136.314C224.185 137.021 224.464 137.69 224.894 138.253C232.88 148.681 251.159 168.514 268.432 157.195C272.643 154.451 275.617 150.107 276.701 145.118C277.786 140.129 276.891 134.903 274.214 130.589Z" fill="#3E7BFA"/>
<path d="M335.367 55.7687C336.004 55.4686 336.706 55.3453 337.404 55.4112C338.102 55.4772 338.77 55.7301 339.342 56.1445C339.915 56.5589 340.37 57.1203 340.663 57.7721C340.957 58.424 341.077 59.1434 341.013 59.8581C339.759 75.5452 333.97 111.598 307.385 111.598C301.222 111.481 295.349 108.892 291.031 104.387C286.712 99.8815 284.293 93.8203 284.293 87.5068C284.293 81.1933 286.712 75.132 291.031 70.6268C295.349 66.1215 301.222 63.5323 307.385 63.4159C317.118 62.8109 326.634 60.2104 335.367 55.7687V55.7687Z" stroke="#00303E" stroke-width="0.5" stroke-linecap="round" stroke-linejoin="round"/>
<path d="M227.464 131.677C226.778 131.786 226.131 132.076 225.588 132.519C225.044 132.962 224.623 133.543 224.366 134.203C224.109 134.864 224.024 135.582 224.121 136.286C224.217 136.991 224.492 137.657 224.916 138.22C232.902 148.648 251.181 168.482 268.454 157.162C270.538 155.802 272.34 154.034 273.757 151.961C275.173 149.888 276.178 147.549 276.712 145.078C277.246 142.607 277.3 140.052 276.87 137.56C276.441 135.068 275.536 132.686 274.208 130.552C272.88 128.418 271.154 126.573 269.13 125.122C267.105 123.67 264.821 122.642 262.409 122.095C259.996 121.547 257.502 121.492 255.069 121.932C252.635 122.372 250.31 123.299 248.227 124.659C241.82 128.367 234.766 130.751 227.464 131.677V131.677Z" stroke="#00303E" stroke-width="0.5" stroke-linecap="round" stroke-linejoin="round"/>
<path d="M250.809 140.78C256.335 139.652 262.036 139.775 267.512 141.138C272.988 142.501 278.107 145.072 282.512 148.672C284.457 150.255 286.131 152.16 287.463 154.308" stroke="#00303E" stroke-width="0.5" stroke-linecap="round" stroke-linejoin="round"/>
<path d="M253.854 166.225C267.886 166.225 279.262 154.75 279.262 140.595C279.262 126.44 267.886 114.964 253.854 114.964C239.821 114.964 228.445 126.44 228.445 140.595C228.445 154.75 239.821 166.225 253.854 166.225Z" fill="#3E7BFA"/>
<path d="M248.995 164.88C234.854 164.88 223.365 153.29 223.365 139.026C223.365 124.762 234.854 113.173 248.995 113.173C263.135 113.173 274.624 124.762 274.624 139.026C274.624 153.29 263.135 164.88 248.995 164.88Z" fill="white"/>
<path d="M242.168 129.098L254.966 129.098" stroke="#282C3F" stroke-linecap="round" stroke-linejoin="round"/>
<path d="M242.168 135.551L254.966 135.551" stroke="#282C3F" stroke-linecap="round" stroke-linejoin="round"/>
<path d="M246.434 129.098C248.131 129.098 249.758 129.778 250.958 130.99C252.158 132.201 252.833 133.844 252.833 135.557C252.833 137.271 252.158 138.914 250.958 140.125C249.758 141.336 248.131 142.017 246.434 142.017L242.168 142.017L252.833 152.783" stroke="#282C3F" stroke-linecap="round" stroke-linejoin="round"/>
<path d="M248.995 113.28C263.025 113.28 274.403 124.758 274.403 138.911C274.403 153.063 263.025 164.541 248.995 164.541C234.965 164.541 223.586 153.063 223.586 138.911C223.586 124.758 234.965 113.28 248.995 113.28ZM248.995 112.946C234.744 112.946 223.145 124.647 223.145 139.022C223.145 153.398 234.744 165.099 248.995 165.099C263.246 165.099 274.845 153.398 274.845 139.022C274.845 124.647 263.246 112.946 248.995 112.946Z" fill="#282C3F"/>
<path d="M123.226 188.99C122.842 188.99 122.529 188.676 122.529 188.293L122.459 142.415C122.459 142.032 122.773 141.718 123.156 141.718C123.54 141.718 123.853 142.032 123.853 142.415L123.923 188.293C123.906 188.676 123.609 188.99 123.226 188.99Z" fill="#00B8B7"/>
<path d="M103.498 154.86C111.934 157.893 119.046 164.464 122.707 172.657C117.652 172.936 112.545 170.966 108.814 167.567C105.067 164.151 103.69 159.915 103.498 154.86Z" fill="#00B8B7"/>
<path d="M122.706 172.779C122.689 172.779 122.654 172.779 122.636 172.762C118.993 170.618 113.956 165.894 110.365 162.304C106.478 158.417 103.428 154.983 103.393 154.948C103.341 154.896 103.358 154.808 103.41 154.774C103.463 154.721 103.55 154.739 103.585 154.791C103.62 154.826 106.67 158.26 110.539 162.147C114.113 165.737 119.133 170.444 122.758 172.57C122.828 172.605 122.846 172.692 122.811 172.745C122.793 172.762 122.741 172.779 122.706 172.779Z" fill="#102A54"/>
<path d="M123.646 177.294C127.934 169.415 135.517 163.402 144.162 161.031C143.657 166.069 140.938 170.81 136.998 173.982C133.059 177.154 128.667 177.887 123.646 177.294Z" fill="#00B8B7"/>
<path d="M123.646 177.433C123.594 177.433 123.541 177.399 123.524 177.346C123.507 177.277 123.541 177.207 123.611 177.189C131.629 174.348 143.953 161.101 144.075 160.961C144.127 160.909 144.214 160.909 144.266 160.961C144.319 161.014 144.319 161.101 144.266 161.153C144.144 161.293 131.769 174.575 123.698 177.451C123.663 177.433 123.663 177.433 123.646 177.433Z" fill="#102A54"/>
<path d="M111.736 143.495C116.756 145.465 120.905 149.526 122.962 154.512C119.929 154.581 116.896 153.326 114.7 151.217C112.521 149.108 111.771 146.528 111.736 143.495Z" fill="#00B8B7"/>
<path d="M122.963 154.651C122.946 154.651 122.928 154.651 122.894 154.634C116.566 151.095 111.668 143.652 111.633 143.583C111.599 143.53 111.616 143.443 111.668 143.408C111.721 143.374 111.808 143.391 111.843 143.443C111.895 143.513 116.758 150.904 123.016 154.425C123.085 154.459 123.103 154.547 123.068 154.599C123.05 154.616 123.016 154.651 122.963 154.651Z" fill="#102A54"/>
<path d="M125.278 142.792C132.234 142.792 137.874 137.157 137.874 130.206C137.874 123.255 132.234 117.62 125.278 117.62C118.321 117.62 112.682 123.255 112.682 130.206C112.682 137.157 118.321 142.792 125.278 142.792Z" fill="#FFA6A6"/>
<path d="M122.864 142.131C115.854 142.131 110.158 136.44 110.158 129.436C110.158 122.432 115.854 116.741 122.864 116.741C129.874 116.741 135.569 122.432 135.569 129.436C135.569 136.44 129.874 142.131 122.864 142.131Z" fill="white"/>
<path d="M119.477 124.565L125.821 124.565" stroke="#282C3F" stroke-width="0.5" stroke-linecap="round" stroke-linejoin="round"/>
<path d="M119.477 127.735L125.821 127.735" stroke="#282C3F" stroke-width="0.5" stroke-linecap="round" stroke-linejoin="round"/>
<path d="M121.591 124.565C122.433 124.565 123.239 124.899 123.834 125.494C124.429 126.089 124.763 126.896 124.763 127.737C124.763 128.579 124.429 129.385 123.834 129.98C123.239 130.575 122.433 130.909 121.591 130.909L119.477 130.909L124.763 136.196" stroke="#282C3F" stroke-width="0.5" stroke-linecap="round" stroke-linejoin="round"/>
<path d="M122.862 116.797C129.817 116.797 135.458 122.434 135.458 129.383C135.458 136.333 129.817 141.969 122.862 141.969C115.907 141.969 110.266 136.333 110.266 129.383C110.266 122.434 115.907 116.797 122.862 116.797ZM122.862 116.633C115.797 116.633 110.047 122.379 110.047 129.438C110.047 136.497 115.797 142.242 122.862 142.242C129.927 142.242 135.677 136.497 135.677 129.438C135.677 122.379 129.927 116.633 122.862 116.633Z" fill="#282C3F"/>
<path d="M123.629 162.268C126.836 156.359 132.536 151.844 139.038 150.066C138.654 153.849 136.615 157.405 133.669 159.793C130.688 162.163 127.394 162.721 123.629 162.268Z" fill="#00B8B7"/>
<path d="M123.628 162.408C123.576 162.408 123.541 162.373 123.506 162.338C123.471 162.268 123.506 162.199 123.576 162.164C129.868 159.148 138.845 150.084 138.949 149.98C139.002 149.927 139.089 149.927 139.141 149.98C139.193 150.032 139.193 150.119 139.141 150.172C139.054 150.259 130.025 159.375 123.698 162.408C123.663 162.408 123.645 162.408 123.628 162.408Z" fill="#102A54"/>
<path d="M112.344 195.146L112.344 195.146C111.001 193.201 108.778 189.882 107.119 186.955C106.29 185.493 105.595 184.117 105.223 183.054C105.038 182.526 104.924 182.052 104.925 181.676C104.926 181.3 105.047 180.94 105.415 180.793L105.416 180.793C105.759 180.656 106.189 180.635 106.662 180.677C107.138 180.719 107.686 180.827 108.279 180.972C108.873 181.117 109.523 181.3 110.204 181.493C110.245 181.505 110.286 181.517 110.327 181.528C110.972 181.712 111.646 181.903 112.336 182.081C113.805 182.461 115.33 182.778 116.77 182.829C118.21 182.88 119.545 182.664 120.647 181.997C122.984 180.568 124.315 180.356 125.545 180.619C126.026 180.722 126.49 180.898 126.973 181.082C127.086 181.125 127.2 181.168 127.316 181.211C127.934 181.44 128.626 181.67 129.513 181.806C130.379 181.934 131.365 181.824 132.403 181.596C133.345 181.389 134.313 181.089 135.255 180.797C135.349 180.768 135.443 180.739 135.537 180.71C136.56 180.394 137.552 180.097 138.415 179.97C139.269 179.844 140.061 179.873 140.636 180.28L140.637 180.281L140.637 180.281C140.925 180.488 141.006 180.85 140.997 181.224C140.987 181.607 140.882 182.076 140.713 182.6C140.375 183.651 139.757 184.983 139.016 186.4C137.531 189.239 135.526 192.462 134.183 194.547M112.344 195.146L133.972 194.412M112.344 195.146C112.945 196.016 112.87 197.234 112.12 197.923L112.119 197.923C109.271 200.551 105.941 205.202 102.808 210.682C99.672 216.167 96.7222 222.502 94.6413 228.514C92.563 234.517 91.3411 240.226 91.6872 244.447C91.8605 246.56 92.4285 248.328 93.5077 249.57C94.5944 250.821 96.1723 251.508 98.2923 251.503M112.344 195.146L112.289 198.107M134.183 194.547C134.183 194.547 134.183 194.547 134.183 194.547L133.972 194.412M134.183 194.547C134.183 194.546 134.183 194.546 134.183 194.546L133.972 194.412M134.183 194.547C133.485 195.642 133.724 197.103 134.738 197.911L134.739 197.912C137.492 200.117 140.742 204.53 143.782 209.887C146.827 215.252 149.676 221.591 151.617 227.674C153.556 233.749 154.6 239.598 154.006 243.97C153.708 246.159 152.997 248.001 151.758 249.311C150.513 250.627 148.762 251.38 146.441 251.433C132.017 251.77 125.781 251.701 117.568 251.609C112.609 251.553 106.93 251.49 98.2923 251.503M133.972 194.412C133.205 195.614 133.467 197.218 134.582 198.107C145.442 206.805 164.563 250.765 146.435 251.183C132.015 251.52 125.785 251.451 117.575 251.359C112.617 251.303 106.936 251.24 98.2918 251.253M98.2923 251.503L98.2918 251.253M98.2923 251.503C98.2923 251.503 98.2922 251.503 98.2922 251.503L98.2918 251.253M98.2918 251.253C81.8024 251.288 101.011 208.513 112.289 198.107M112.289 198.107C113.143 197.323 113.212 195.963 112.55 195.004C109.866 191.117 103.678 181.757 105.508 181.025L112.289 198.107Z" fill="white" stroke="#282C3F" stroke-width="0.5"/>
<path fill-rule="evenodd" clip-rule="evenodd" d="M123.209 185.544C123.633 185.572 123.985 185.769 124.234 186.158C125.11 187.531 125.992 188.901 126.872 190.272C127.055 190.557 127.238 190.842 127.426 191.124C127.599 191.383 127.646 191.642 127.447 191.907C127.267 192.144 127.012 192.209 126.648 192.1C125.71 191.818 124.772 191.538 123.84 191.241C123.388 191.096 122.956 191.089 122.5 191.237C121.578 191.535 120.646 191.803 119.719 192.086C119.418 192.178 119.135 192.194 118.911 191.928C118.715 191.695 118.717 191.436 118.935 191.096C119.989 189.446 121.046 187.797 122.107 186.15C122.352 185.769 122.707 185.557 123.209 185.544Z" fill="#00B8B7"/>
<g filter="url(#filter1_d_2291_59450)">
<circle cx="124.042" cy="226.984" r="15.3213" fill="white"/>
<circle cx="124.042" cy="226.984" r="15.0713" stroke="black" stroke-width="0.5"/>
</g>
<path d="M124.396 232.086L129.145 227.338" stroke="#FF5C5C" stroke-width="0.5" stroke-linecap="round" stroke-linejoin="round"/>
<path d="M123.414 229.712C123.414 230.603 123.768 231.457 124.398 232.087C125.027 232.717 125.882 233.07 126.772 233.07C127.663 233.07 128.517 232.717 129.147 232.087C129.776 231.457 130.13 230.603 130.13 229.712C130.13 228.822 129.776 227.968 129.147 227.338C128.517 226.708 127.663 226.354 126.772 226.354C125.882 226.354 125.027 226.708 124.398 227.338C123.768 227.968 123.414 228.822 123.414 229.712Z" stroke="#282C3F" stroke-width="0.5" stroke-linecap="round" stroke-linejoin="round"/>
<path d="M116.383 228.033H121.258" stroke="#282C3F" stroke-width="0.5" stroke-linecap="round" stroke-linejoin="round"/>
<path d="M121.256 228.033V219.907" stroke="#282C3F" stroke-width="0.5" stroke-linecap="round" stroke-linejoin="round"/>
<path d="M124.51 223.158V221.533" stroke="#282C3F" stroke-width="0.5" stroke-linecap="round" stroke-linejoin="round"/>
<path d="M118.01 228.034V223.158" stroke="#282C3F" stroke-width="0.5" stroke-linecap="round" stroke-linejoin="round"/>
<path d="M112.657 196.206C112.256 196.206 111.942 195.893 111.924 195.492C111.907 195.091 112.238 194.742 112.639 194.742L133.765 194.115C134.183 194.115 134.515 194.428 134.515 194.829C134.532 195.23 134.201 195.579 133.8 195.579L112.674 196.206H112.657Z" fill="#102A54"/>
<path d="M112.657 198.298C112.256 198.298 111.942 197.984 111.924 197.583C111.907 197.182 112.238 196.834 112.639 196.834L133.765 196.206H133.783C134.183 196.206 134.497 196.52 134.515 196.921C134.532 197.322 134.201 197.67 133.8 197.67L112.674 198.298C112.674 198.298 112.674 198.298 112.657 198.298Z" fill="#102A54"/>
</g>
<defs>
<filter id="filter0_d_2291_59450" x="237.979" y="121.813" width="212.076" height="212.076" filterUnits="userSpaceOnUse" color-interpolation-filters="sRGB">
<feFlood flood-opacity="0" result="BackgroundImageFix"/>
<feColorMatrix in="SourceAlpha" type="matrix" values="0 0 0 0 0 0 0 0 0 0 0 0 0 0 0 0 0 0 127 0" result="hardAlpha"/>
<feOffset dy="14"/>
<feGaussianBlur stdDeviation="47"/>
<feComposite in2="hardAlpha" operator="out"/>
<feColorMatrix type="matrix" values="0 0 0 0 0 0 0 0 0 0 0 0 0 0 0 0 0 0 0.05 0"/>
<feBlend mode="normal" in2="BackgroundImageFix" result="effect1_dropShadow_2291_59450"/>
<feBlend mode="normal" in="SourceGraphic" in2="effect1_dropShadow_2291_59450" result="shape"/>
</filter>
<filter id="filter1_d_2291_59450" x="14.7207" y="131.663" width="218.643" height="218.643" filterUnits="userSpaceOnUse" color-interpolation-filters="sRGB">
<feFlood flood-opacity="0" result="BackgroundImageFix"/>
<feColorMatrix in="SourceAlpha" type="matrix" values="0 0 0 0 0 0 0 0 0 0 0 0 0 0 0 0 0 0 127 0" result="hardAlpha"/>
<feOffset dy="14"/>
<feGaussianBlur stdDeviation="47"/>
<feComposite in2="hardAlpha" operator="out"/>
<feColorMatrix type="matrix" values="0 0 0 0 0 0 0 0 0 0 0 0 0 0 0 0 0 0 0.05 0"/>
<feBlend mode="normal" in2="BackgroundImageFix" result="effect1_dropShadow_2291_59450"/>
<feBlend mode="normal" in="SourceGraphic" in2="effect1_dropShadow_2291_59450" result="shape"/>
</filter>
</defs>
</svg>
