<svg width="456" height="292" viewBox="0 0 456 292" fill="none" xmlns="http://www.w3.org/2000/svg">
<mask id="mask0_1440_88561" style="mask-type:alpha" maskUnits="userSpaceOnUse" x="0" y="0" width="456" height="292">
<rect width="456" height="292" fill="#C4C4C4"/>
</mask>
<g mask="url(#mask0_1440_88561)">
<circle cx="228" cy="164" r="80" fill="white"/>
<path d="M239.25 132.905L237.979 148.154C237.917 148.904 237.575 149.603 237.021 150.112C236.468 150.622 235.743 150.905 234.99 150.905H221.003C220.25 150.905 219.525 150.622 218.971 150.112C218.417 149.603 218.075 148.904 218.013 148.154L216.75 132.905H239.25Z" fill="white"/>
<path d="M227.999 146.405C226.021 146.374 224.069 145.942 222.262 145.136C220.455 144.331 218.83 143.167 217.484 141.716L218.02 148.154C218.082 148.903 218.423 149.601 218.975 150.11C219.527 150.619 220.251 150.903 221.002 150.905H234.982C235.734 150.905 236.459 150.622 237.013 150.112C237.567 149.603 237.909 148.904 237.971 148.154L238.508 141.716C237.164 143.166 235.539 144.329 233.733 145.135C231.927 145.941 229.977 146.373 227.999 146.405Z" fill="#EBEBF0"/>
<path d="M239.25 132.905L237.979 148.154C237.917 148.904 237.575 149.603 237.021 150.112C236.468 150.622 235.743 150.905 234.99 150.905H221.003C220.25 150.905 219.525 150.622 218.971 150.112C218.417 149.603 218.075 148.904 218.013 148.154L216.75 132.905H239.25Z" stroke="#282C3F" stroke-linecap="round" stroke-linejoin="round"/>
<path d="M232.692 146.405C232.278 145.509 231.616 144.751 230.785 144.219C229.953 143.687 228.987 143.405 228 143.405C227.013 143.405 226.047 143.687 225.215 144.219C224.384 144.751 223.722 145.509 223.308 146.405M223.875 138.155C223.776 138.155 223.68 138.194 223.61 138.265C223.54 138.335 223.5 138.43 223.5 138.53L223.875 138.155ZM224.25 138.53C224.25 138.43 224.21 138.335 224.14 138.265C224.07 138.194 223.974 138.155 223.875 138.155L224.25 138.53ZM223.875 138.905C223.974 138.905 224.07 138.865 224.14 138.795C224.21 138.725 224.25 138.629 224.25 138.53L223.875 138.905ZM223.5 138.53C223.5 138.629 223.54 138.725 223.61 138.795C223.68 138.865 223.776 138.905 223.875 138.905L223.5 138.53ZM232.125 138.155C232.224 138.155 232.32 138.194 232.39 138.265C232.46 138.335 232.5 138.43 232.5 138.53L232.125 138.155ZM231.75 138.53C231.75 138.43 231.79 138.335 231.86 138.265C231.93 138.194 232.026 138.155 232.125 138.155L231.75 138.53ZM232.125 138.905C232.026 138.905 231.93 138.865 231.86 138.795C231.79 138.725 231.75 138.629 231.75 138.53L232.125 138.905ZM232.5 138.53C232.5 138.629 232.46 138.725 232.39 138.795C232.32 138.865 232.224 138.905 232.125 138.905L232.5 138.53ZM215.25 132.905H240.75H215.25Z" stroke="#282C3F" stroke-linecap="round" stroke-linejoin="round"/>
<path d="M233.125 130.085C232.57 130.94 231.811 131.643 230.916 132.13C230.02 132.617 229.018 132.872 227.998 132.873L230.814 127.751L232.752 124.226C232.793 124.151 232.855 124.089 232.93 124.047C233.006 124.005 233.091 123.986 233.177 123.99C233.261 123.992 233.344 124.017 233.414 124.064C233.484 124.111 233.54 124.177 233.574 124.255C233.991 125.187 234.168 126.209 234.09 127.227C234.011 128.245 233.68 129.228 233.125 130.085ZM227.998 132.873C226.978 132.873 225.973 132.618 225.076 132.131C224.18 131.643 223.419 130.938 222.865 130.081C222.31 129.224 221.979 128.242 221.902 127.224C221.825 126.206 222.004 125.185 222.423 124.255C222.457 124.177 222.513 124.111 222.583 124.064C222.653 124.017 222.736 123.992 222.82 123.99C222.906 123.986 222.991 124.005 223.067 124.047C223.142 124.089 223.204 124.151 223.245 124.226L225.182 127.751L227.998 132.873Z" fill="#FFA6A6"/>
<path d="M230.81 127.751L227.998 132.873L225.178 127.751C225.878 126.162 226.683 124.622 227.587 123.14C227.63 123.07 227.69 123.013 227.761 122.973C227.832 122.933 227.912 122.913 227.994 122.913C228.075 122.913 228.155 122.933 228.226 122.973C228.298 123.013 228.357 123.07 228.4 123.14C229.299 124.625 230.104 126.165 230.81 127.751Z" fill="#FFA6A6"/>
<path d="M228 128.969C227.163 128.968 226.335 128.794 225.568 128.46L228 132.873L230.424 128.46C229.659 128.793 228.834 128.966 228 128.969ZM222.864 127.05C222.509 126.492 222.246 125.88 222.086 125.238C221.851 126.141 221.825 127.086 222.012 128C222.199 128.914 222.594 129.773 223.165 130.51C223.736 131.248 224.469 131.844 225.308 132.254C226.146 132.663 227.067 132.875 228 132.873L226.166 129.545C224.808 129.124 223.64 128.241 222.864 127.05Z" fill="#FFA6A6"/>
<path d="M233.126 127.05C232.35 128.241 231.183 129.124 229.825 129.545L228 132.873C228.933 132.874 229.853 132.662 230.691 132.252C231.528 131.842 232.261 131.246 232.831 130.508C233.402 129.771 233.796 128.912 233.983 127.999C234.17 127.085 234.144 126.141 233.909 125.238C233.748 125.88 233.483 126.492 233.126 127.05Z" fill="#FFA6A6"/>
<path d="M233.125 130.085C232.57 130.94 231.811 131.643 230.916 132.13C230.02 132.617 229.018 132.872 227.998 132.873L230.814 127.751L232.752 124.226C232.793 124.151 232.855 124.089 232.93 124.047C233.006 124.005 233.091 123.986 233.177 123.99C233.261 123.992 233.344 124.017 233.414 124.064C233.484 124.111 233.54 124.177 233.574 124.255C233.991 125.187 234.168 126.209 234.09 127.227C234.011 128.245 233.68 129.228 233.125 130.085V130.085ZM227.998 132.873C226.978 132.873 225.973 132.618 225.076 132.131C224.18 131.643 223.419 130.938 222.865 130.081C222.31 129.224 221.979 128.242 221.902 127.224C221.825 126.206 222.004 125.185 222.423 124.255C222.457 124.177 222.513 124.111 222.583 124.064C222.653 124.017 222.736 123.992 222.82 123.99C222.906 123.986 222.991 124.005 223.067 124.047C223.142 124.089 223.204 124.151 223.245 124.226L225.182 127.751L227.998 132.873Z" stroke="#282C3F" stroke-linecap="round" stroke-linejoin="round"/>
<path d="M230.81 127.751L227.998 132.873L225.178 127.751C225.878 126.162 226.683 124.622 227.587 123.14C227.63 123.07 227.69 123.013 227.761 122.973C227.832 122.933 227.912 122.913 227.994 122.913C228.075 122.913 228.155 122.933 228.226 122.973C228.298 123.013 228.357 123.07 228.4 123.14C229.299 124.625 230.104 126.165 230.81 127.751V127.751Z" stroke="#282C3F" stroke-linecap="round" stroke-linejoin="round"/>
<path d="M194.138 170.818H196.291V177.43C196.291 178.173 196.113 178.822 195.759 179.379C195.407 179.936 194.915 180.37 194.282 180.682C193.649 180.99 192.912 181.144 192.07 181.144C191.225 181.144 190.485 180.99 189.852 180.682C189.219 180.37 188.727 179.936 188.376 179.379C188.024 178.822 187.849 178.173 187.849 177.43V170.818H190.002V177.246C190.002 177.634 190.086 177.979 190.255 178.281C190.427 178.582 190.669 178.819 190.981 178.991C191.292 179.164 191.655 179.25 192.07 179.25C192.487 179.25 192.85 179.164 193.158 178.991C193.47 178.819 193.71 178.582 193.879 178.281C194.052 177.979 194.138 177.634 194.138 177.246V170.818ZM200.14 176.585V181H198.022V173.364H200.04V174.711H200.13C200.299 174.267 200.582 173.915 200.98 173.657C201.378 173.395 201.86 173.264 202.427 173.264C202.957 173.264 203.419 173.38 203.814 173.612C204.208 173.844 204.515 174.176 204.734 174.607C204.952 175.034 205.062 175.545 205.062 176.138V181H202.944V176.516C202.947 176.048 202.828 175.684 202.586 175.422C202.344 175.157 202.011 175.024 201.587 175.024C201.302 175.024 201.05 175.085 200.831 175.208C200.615 175.331 200.446 175.51 200.324 175.745C200.204 175.977 200.143 176.257 200.14 176.585ZM206.771 181V170.818H208.889V174.646H208.953C209.046 174.441 209.18 174.232 209.356 174.02C209.535 173.804 209.767 173.625 210.052 173.483C210.34 173.337 210.698 173.264 211.126 173.264C211.683 173.264 212.196 173.41 212.667 173.702C213.138 173.99 213.514 174.426 213.796 175.009C214.077 175.589 214.218 176.317 214.218 177.192C214.218 178.044 214.081 178.763 213.805 179.349C213.534 179.933 213.162 180.375 212.692 180.677C212.225 180.975 211.701 181.124 211.121 181.124C210.71 181.124 210.36 181.056 210.072 180.92C209.787 180.785 209.553 180.614 209.371 180.408C209.189 180.2 209.049 179.989 208.953 179.777H208.859V181H206.771ZM208.844 177.182C208.844 177.636 208.907 178.032 209.033 178.37C209.159 178.708 209.341 178.972 209.58 179.161C209.818 179.346 210.108 179.439 210.45 179.439C210.794 179.439 211.086 179.344 211.325 179.156C211.563 178.963 211.744 178.698 211.867 178.36C211.993 178.019 212.055 177.626 212.055 177.182C212.055 176.741 211.994 176.353 211.872 176.018C211.749 175.684 211.568 175.422 211.33 175.233C211.091 175.044 210.798 174.95 210.45 174.95C210.105 174.95 209.813 175.041 209.575 175.223C209.339 175.405 209.159 175.664 209.033 175.999C208.907 176.333 208.844 176.728 208.844 177.182ZM217.809 181.144C217.322 181.144 216.887 181.06 216.506 180.891C216.125 180.718 215.824 180.465 215.601 180.13C215.383 179.792 215.273 179.371 215.273 178.867C215.273 178.443 215.351 178.087 215.507 177.798C215.663 177.51 215.875 177.278 216.143 177.102C216.412 176.927 216.717 176.794 217.058 176.705C217.403 176.615 217.764 176.552 218.142 176.516C218.586 176.469 218.944 176.426 219.216 176.386C219.488 176.343 219.685 176.28 219.807 176.197C219.93 176.115 219.991 175.992 219.991 175.83V175.8C219.991 175.485 219.892 175.241 219.693 175.069C219.498 174.897 219.219 174.81 218.858 174.81C218.477 174.81 218.173 174.895 217.948 175.064C217.723 175.23 217.574 175.438 217.501 175.69L215.542 175.531C215.641 175.067 215.837 174.666 216.128 174.328C216.42 173.987 216.796 173.725 217.257 173.543C217.721 173.357 218.258 173.264 218.868 173.264C219.292 173.264 219.698 173.314 220.086 173.413C220.477 173.513 220.823 173.667 221.125 173.876C221.43 174.085 221.67 174.353 221.846 174.681C222.021 175.006 222.109 175.395 222.109 175.849V181H220.101V179.941H220.041C219.918 180.18 219.754 180.39 219.549 180.572C219.343 180.751 219.097 180.892 218.808 180.995C218.52 181.094 218.187 181.144 217.809 181.144ZM218.415 179.683C218.727 179.683 219.002 179.621 219.241 179.499C219.479 179.373 219.667 179.204 219.802 178.991C219.938 178.779 220.006 178.539 220.006 178.271V177.46C219.94 177.503 219.849 177.543 219.733 177.58C219.62 177.613 219.493 177.644 219.35 177.674C219.208 177.701 219.065 177.725 218.922 177.749C218.78 177.768 218.651 177.787 218.535 177.803C218.286 177.84 218.069 177.898 217.883 177.977C217.698 178.057 217.554 178.165 217.451 178.3C217.348 178.433 217.297 178.599 217.297 178.798C217.297 179.086 217.401 179.306 217.61 179.459C217.822 179.608 218.091 179.683 218.415 179.683ZM225.87 170.818V181H223.752V170.818H225.87ZM229.744 181.144C229.257 181.144 228.823 181.06 228.442 180.891C228.061 180.718 227.759 180.465 227.537 180.13C227.318 179.792 227.209 179.371 227.209 178.867C227.209 178.443 227.287 178.087 227.443 177.798C227.598 177.51 227.81 177.278 228.079 177.102C228.347 176.927 228.652 176.794 228.994 176.705C229.338 176.615 229.7 176.552 230.078 176.516C230.522 176.469 230.88 176.426 231.151 176.386C231.423 176.343 231.62 176.28 231.743 176.197C231.866 176.115 231.927 175.992 231.927 175.83V175.8C231.927 175.485 231.828 175.241 231.629 175.069C231.433 174.897 231.155 174.81 230.793 174.81C230.412 174.81 230.109 174.895 229.884 175.064C229.658 175.23 229.509 175.438 229.436 175.69L227.477 175.531C227.577 175.067 227.772 174.666 228.064 174.328C228.356 173.987 228.732 173.725 229.193 173.543C229.657 173.357 230.194 173.264 230.803 173.264C231.228 173.264 231.634 173.314 232.021 173.413C232.412 173.513 232.759 173.667 233.06 173.876C233.365 174.085 233.606 174.353 233.781 174.681C233.957 175.006 234.045 175.395 234.045 175.849V181H232.036V179.941H231.977C231.854 180.18 231.69 180.39 231.484 180.572C231.279 180.751 231.032 180.892 230.744 180.995C230.455 181.094 230.122 181.144 229.744 181.144ZM230.351 179.683C230.662 179.683 230.938 179.621 231.176 179.499C231.415 179.373 231.602 179.204 231.738 178.991C231.874 178.779 231.942 178.539 231.942 178.271V177.46C231.876 177.503 231.784 177.543 231.668 177.58C231.556 177.613 231.428 177.644 231.286 177.674C231.143 177.701 231.001 177.725 230.858 177.749C230.716 177.768 230.586 177.787 230.47 177.803C230.222 177.84 230.005 177.898 229.819 177.977C229.633 178.057 229.489 178.165 229.386 178.3C229.284 178.433 229.232 178.599 229.232 178.798C229.232 179.086 229.337 179.306 229.546 179.459C229.758 179.608 230.026 179.683 230.351 179.683ZM237.806 176.585V181H235.688V173.364H237.706V174.711H237.796C237.965 174.267 238.248 173.915 238.646 173.657C239.044 173.395 239.526 173.264 240.093 173.264C240.623 173.264 241.085 173.38 241.48 173.612C241.874 173.844 242.181 174.176 242.4 174.607C242.618 175.034 242.728 175.545 242.728 176.138V181H240.61V176.516C240.613 176.048 240.494 175.684 240.252 175.422C240.01 175.157 239.677 175.024 239.253 175.024C238.968 175.024 238.716 175.085 238.497 175.208C238.281 175.331 238.112 175.51 237.99 175.745C237.87 175.977 237.809 176.257 237.806 176.585ZM247.847 181.149C247.065 181.149 246.392 180.983 245.829 180.652C245.269 180.317 244.838 179.853 244.536 179.26C244.238 178.667 244.089 177.984 244.089 177.212C244.089 176.429 244.239 175.743 244.541 175.153C244.846 174.56 245.279 174.098 245.839 173.766C246.399 173.432 247.065 173.264 247.837 173.264C248.503 173.264 249.087 173.385 249.587 173.627C250.088 173.869 250.484 174.209 250.775 174.646C251.067 175.084 251.228 175.598 251.258 176.188H249.259C249.203 175.806 249.054 175.5 248.812 175.268C248.573 175.032 248.26 174.915 247.872 174.915C247.544 174.915 247.257 175.004 247.012 175.183C246.77 175.359 246.581 175.616 246.445 175.954C246.309 176.292 246.241 176.701 246.241 177.182C246.241 177.669 246.308 178.083 246.44 178.425C246.576 178.766 246.767 179.026 247.012 179.205C247.257 179.384 247.544 179.474 247.872 179.474C248.114 179.474 248.331 179.424 248.523 179.325C248.719 179.225 248.88 179.081 249.006 178.892C249.135 178.7 249.219 178.469 249.259 178.201H251.258C251.225 178.784 251.065 179.298 250.78 179.742C250.499 180.183 250.109 180.528 249.612 180.776C249.115 181.025 248.527 181.149 247.847 181.149ZM256.094 181.149C255.308 181.149 254.632 180.99 254.065 180.672C253.502 180.35 253.068 179.896 252.763 179.31C252.458 178.72 252.305 178.022 252.305 177.217C252.305 176.431 252.458 175.742 252.763 175.148C253.068 174.555 253.497 174.093 254.051 173.761C254.607 173.43 255.26 173.264 256.009 173.264C256.513 173.264 256.982 173.345 257.416 173.508C257.854 173.667 258.235 173.907 258.56 174.229C258.888 174.55 259.143 174.955 259.325 175.442C259.508 175.926 259.599 176.492 259.599 177.142V177.724H253.151V176.411H257.605C257.605 176.106 257.539 175.836 257.406 175.601C257.274 175.366 257.09 175.182 256.854 175.049C256.622 174.913 256.352 174.845 256.044 174.845C255.723 174.845 255.438 174.92 255.189 175.069C254.944 175.215 254.752 175.412 254.612 175.661C254.473 175.906 254.402 176.179 254.399 176.481V177.729C254.399 178.107 254.468 178.433 254.607 178.708C254.75 178.983 254.95 179.195 255.209 179.344C255.467 179.494 255.774 179.568 256.129 179.568C256.364 179.568 256.579 179.535 256.775 179.469C256.97 179.402 257.138 179.303 257.277 179.17C257.416 179.038 257.522 178.875 257.595 178.683L259.554 178.812C259.455 179.283 259.251 179.694 258.943 180.045C258.638 180.393 258.243 180.665 257.759 180.861C257.279 181.053 256.724 181.149 256.094 181.149ZM263.795 181.124C263.215 181.124 262.689 180.975 262.219 180.677C261.752 180.375 261.38 179.933 261.105 179.349C260.833 178.763 260.698 178.044 260.698 177.192C260.698 176.317 260.838 175.589 261.12 175.009C261.402 174.426 261.776 173.99 262.244 173.702C262.714 173.41 263.23 173.264 263.79 173.264C264.217 173.264 264.574 173.337 264.859 173.483C265.147 173.625 265.379 173.804 265.555 174.02C265.734 174.232 265.87 174.441 265.962 174.646H266.027V170.818H268.14V181H266.052V179.777H265.962C265.863 179.989 265.722 180.2 265.54 180.408C265.361 180.614 265.127 180.785 264.839 180.92C264.554 181.056 264.206 181.124 263.795 181.124ZM264.466 179.439C264.807 179.439 265.096 179.346 265.331 179.161C265.57 178.972 265.752 178.708 265.878 178.37C266.007 178.032 266.072 177.636 266.072 177.182C266.072 176.728 266.009 176.333 265.883 175.999C265.757 175.664 265.575 175.405 265.336 175.223C265.097 175.041 264.807 174.95 264.466 174.95C264.118 174.95 263.825 175.044 263.586 175.233C263.347 175.422 263.167 175.684 263.044 176.018C262.921 176.353 262.86 176.741 262.86 177.182C262.86 177.626 262.921 178.019 263.044 178.36C263.17 178.698 263.351 178.963 263.586 179.156C263.825 179.344 264.118 179.439 264.466 179.439ZM199.381 205V194.818H203.398C204.17 194.818 204.828 194.966 205.372 195.261C205.915 195.552 206.33 195.958 206.615 196.479C206.903 196.996 207.047 197.592 207.047 198.268C207.047 198.945 206.901 199.541 206.61 200.058C206.318 200.575 205.895 200.978 205.342 201.266C204.792 201.555 204.126 201.699 203.343 201.699H200.783V199.974H202.995C203.41 199.974 203.751 199.902 204.02 199.76C204.291 199.614 204.493 199.414 204.626 199.158C204.762 198.9 204.83 198.603 204.83 198.268C204.83 197.93 204.762 197.635 204.626 197.384C204.493 197.128 204.291 196.931 204.02 196.792C203.748 196.649 203.403 196.578 202.985 196.578H201.534V205H199.381ZM211.733 205.149C210.961 205.149 210.293 204.985 209.729 204.657C209.169 204.326 208.737 203.865 208.432 203.275C208.127 202.682 207.974 201.994 207.974 201.212C207.974 200.423 208.127 199.733 208.432 199.143C208.737 198.55 209.169 198.089 209.729 197.761C210.293 197.43 210.961 197.264 211.733 197.264C212.505 197.264 213.171 197.43 213.732 197.761C214.295 198.089 214.729 198.55 215.034 199.143C215.339 199.733 215.491 200.423 215.491 201.212C215.491 201.994 215.339 202.682 215.034 203.275C214.729 203.865 214.295 204.326 213.732 204.657C213.171 204.985 212.505 205.149 211.733 205.149ZM211.743 203.509C212.094 203.509 212.388 203.409 212.623 203.21C212.858 203.008 213.036 202.733 213.155 202.385C213.277 202.037 213.339 201.641 213.339 201.197C213.339 200.753 213.277 200.357 213.155 200.009C213.036 199.661 212.858 199.385 212.623 199.183C212.388 198.981 212.094 198.88 211.743 198.88C211.388 198.88 211.09 198.981 210.848 199.183C210.609 199.385 210.429 199.661 210.306 200.009C210.187 200.357 210.127 200.753 210.127 201.197C210.127 201.641 210.187 202.037 210.306 202.385C210.429 202.733 210.609 203.008 210.848 203.21C211.09 203.409 211.388 203.509 211.743 203.509ZM216.869 205V197.364H218.922V198.696H219.001C219.141 198.222 219.374 197.864 219.702 197.622C220.031 197.377 220.408 197.254 220.836 197.254C220.942 197.254 221.056 197.261 221.179 197.274C221.302 197.287 221.409 197.306 221.502 197.329V199.208C221.403 199.178 221.265 199.152 221.089 199.129C220.914 199.105 220.753 199.094 220.607 199.094C220.296 199.094 220.017 199.162 219.772 199.298C219.53 199.43 219.338 199.616 219.195 199.854C219.056 200.093 218.987 200.368 218.987 200.68V205H216.869ZM227.042 197.364V198.955H222.443V197.364H227.042ZM223.487 195.534H225.605V202.653C225.605 202.849 225.635 203.001 225.694 203.111C225.754 203.217 225.837 203.291 225.943 203.335C226.052 203.378 226.178 203.399 226.321 203.399C226.42 203.399 226.52 203.391 226.619 203.374C226.719 203.354 226.795 203.339 226.848 203.33L227.181 204.906C227.075 204.939 226.926 204.977 226.733 205.02C226.541 205.066 226.308 205.094 226.032 205.104C225.522 205.124 225.075 205.056 224.69 204.901C224.309 204.745 224.012 204.503 223.8 204.175C223.588 203.847 223.484 203.432 223.487 202.932V195.534ZM232.528 197.364V198.955H227.815V197.364H232.528ZM228.894 205V196.812C228.894 196.258 229.001 195.799 229.217 195.435C229.436 195.07 229.734 194.797 230.112 194.614C230.49 194.432 230.919 194.341 231.399 194.341C231.724 194.341 232.021 194.366 232.289 194.415C232.561 194.465 232.763 194.51 232.896 194.55L232.518 196.141C232.435 196.114 232.332 196.089 232.21 196.066C232.09 196.043 231.968 196.031 231.842 196.031C231.53 196.031 231.313 196.104 231.191 196.25C231.068 196.393 231.007 196.593 231.007 196.852V205H228.894ZM236.999 205.149C236.226 205.149 235.558 204.985 234.995 204.657C234.435 204.326 234.002 203.865 233.697 203.275C233.393 202.682 233.24 201.994 233.24 201.212C233.24 200.423 233.393 199.733 233.697 199.143C234.002 198.55 234.435 198.089 234.995 197.761C235.558 197.43 236.226 197.264 236.999 197.264C237.771 197.264 238.437 197.43 238.997 197.761C239.561 198.089 239.995 198.55 240.3 199.143C240.605 199.733 240.757 200.423 240.757 201.212C240.757 201.994 240.605 202.682 240.3 203.275C239.995 203.865 239.561 204.326 238.997 204.657C238.437 204.985 237.771 205.149 236.999 205.149ZM237.009 203.509C237.36 203.509 237.653 203.409 237.888 203.21C238.124 203.008 238.301 202.733 238.42 202.385C238.543 202.037 238.604 201.641 238.604 201.197C238.604 200.753 238.543 200.357 238.42 200.009C238.301 199.661 238.124 199.385 237.888 199.183C237.653 198.981 237.36 198.88 237.009 198.88C236.654 198.88 236.356 198.981 236.114 199.183C235.875 199.385 235.694 199.661 235.572 200.009C235.452 200.357 235.393 200.753 235.393 201.197C235.393 201.641 235.452 202.037 235.572 202.385C235.694 202.733 235.875 203.008 236.114 203.21C236.356 203.409 236.654 203.509 237.009 203.509ZM244.252 194.818V205H242.134V194.818H244.252ZM245.949 205V197.364H248.067V205H245.949ZM247.013 196.379C246.698 196.379 246.428 196.275 246.202 196.066C245.98 195.854 245.869 195.6 245.869 195.305C245.869 195.014 245.98 194.763 246.202 194.555C246.428 194.343 246.698 194.237 247.013 194.237C247.327 194.237 247.596 194.343 247.818 194.555C248.043 194.763 248.156 195.014 248.156 195.305C248.156 195.6 248.043 195.854 247.818 196.066C247.596 196.275 247.327 196.379 247.013 196.379ZM253.213 205.149C252.441 205.149 251.773 204.985 251.21 204.657C250.65 204.326 250.217 203.865 249.912 203.275C249.607 202.682 249.455 201.994 249.455 201.212C249.455 200.423 249.607 199.733 249.912 199.143C250.217 198.55 250.65 198.089 251.21 197.761C251.773 197.43 252.441 197.264 253.213 197.264C253.986 197.264 254.652 197.43 255.212 197.761C255.775 198.089 256.21 198.55 256.515 199.143C256.819 199.733 256.972 200.423 256.972 201.212C256.972 201.994 256.819 202.682 256.515 203.275C256.21 203.865 255.775 204.326 255.212 204.657C254.652 204.985 253.986 205.149 253.213 205.149ZM253.223 203.509C253.575 203.509 253.868 203.409 254.103 203.21C254.339 203.008 254.516 202.733 254.635 202.385C254.758 202.037 254.819 201.641 254.819 201.197C254.819 200.753 254.758 200.357 254.635 200.009C254.516 199.661 254.339 199.385 254.103 199.183C253.868 198.981 253.575 198.88 253.223 198.88C252.869 198.88 252.57 198.981 252.328 199.183C252.09 199.385 251.909 199.661 251.787 200.009C251.667 200.357 251.608 200.753 251.608 201.197C251.608 201.641 251.667 202.037 251.787 202.385C251.909 202.733 252.09 203.008 252.328 203.21C252.57 203.409 252.869 203.509 253.223 203.509Z" fill="#282C3F"/>
<path d="M54.6697 41.7266C54.6366 41.4164 54.4969 41.175 54.2507 41.0021C54.0069 40.8293 53.6896 40.7429 53.299 40.7429C53.0244 40.7429 52.7888 40.7843 52.5923 40.8672C52.3958 40.95 52.2455 41.0625 52.1413 41.2045C52.0372 41.3466 51.9839 41.5088 51.9815 41.6911C51.9815 41.8426 52.0159 41.974 52.0845 42.0852C52.1555 42.1965 52.2514 42.2912 52.3722 42.3693C52.4929 42.4451 52.6267 42.509 52.7734 42.5611C52.9202 42.6132 53.0682 42.657 53.2173 42.6925L53.8991 42.8629C54.1738 42.9268 54.4377 43.0133 54.6911 43.1222C54.9467 43.2311 55.1752 43.3684 55.3764 43.5341C55.58 43.6998 55.741 43.8999 55.8594 44.1342C55.9777 44.3686 56.0369 44.6432 56.0369 44.9581C56.0369 45.3842 55.928 45.7595 55.7102 46.0838C55.4924 46.4058 55.1776 46.6579 54.7656 46.8402C54.3561 47.0201 53.8601 47.1101 53.2777 47.1101C52.7119 47.1101 52.2206 47.0225 51.804 46.8473C51.3897 46.6721 51.0653 46.4164 50.831 46.0803C50.599 45.7441 50.4735 45.3345 50.4545 44.8516H51.7507C51.7696 45.1049 51.8478 45.3156 51.9851 45.4837C52.1224 45.6518 52.3011 45.7772 52.5213 45.8601C52.7438 45.9429 52.9924 45.9844 53.267 45.9844C53.5535 45.9844 53.8045 45.9418 54.0199 45.8565C54.2377 45.7689 54.4081 45.6482 54.5312 45.4943C54.6544 45.3381 54.7171 45.1558 54.7195 44.9474C54.7171 44.758 54.6615 44.6018 54.5526 44.4787C54.4437 44.3532 54.291 44.2491 54.0945 44.1662C53.9003 44.081 53.6731 44.0052 53.4126 43.9389L52.5852 43.7259C51.9863 43.572 51.5128 43.3388 51.1648 43.0263C50.8191 42.7114 50.6463 42.2936 50.6463 41.7727C50.6463 41.3442 50.7623 40.969 50.9943 40.647C51.2287 40.325 51.5471 40.0753 51.9496 39.8977C52.352 39.7178 52.8078 39.6278 53.3168 39.6278C53.8329 39.6278 54.285 39.7178 54.6733 39.8977C55.0639 40.0753 55.3705 40.3227 55.593 40.6399C55.8156 40.9548 55.9304 41.317 55.9375 41.7266H54.6697ZM59.8784 41.5455V42.5398H56.7427V41.5455H59.8784ZM57.5169 40.2386H58.8024V45.3594C58.8024 45.5322 58.8284 45.6648 58.8805 45.7571C58.935 45.8471 59.006 45.9086 59.0936 45.9418C59.1812 45.9749 59.2782 45.9915 59.3848 45.9915C59.4653 45.9915 59.5386 45.9856 59.6049 45.9737C59.6736 45.9619 59.7257 45.9512 59.7612 45.9418L59.9778 46.9467C59.9092 46.9704 59.8109 46.9964 59.6831 47.0249C59.5576 47.0533 59.4037 47.0698 59.2214 47.0746C58.8994 47.084 58.6094 47.0355 58.3514 46.929C58.0933 46.8201 57.8886 46.652 57.737 46.4247C57.5879 46.1974 57.5145 45.9134 57.5169 45.5724V40.2386ZM63.2741 47.1065C62.7415 47.1065 62.2798 46.9893 61.8892 46.755C61.4986 46.5206 61.1955 46.1927 60.9801 45.7713C60.767 45.3499 60.6605 44.8575 60.6605 44.294C60.6605 43.7306 60.767 43.237 60.9801 42.8132C61.1955 42.3894 61.4986 42.0604 61.8892 41.826C62.2798 41.5916 62.7415 41.4744 63.2741 41.4744C63.8068 41.4744 64.2685 41.5916 64.6591 41.826C65.0497 42.0604 65.3516 42.3894 65.5646 42.8132C65.7801 43.237 65.8878 43.7306 65.8878 44.294C65.8878 44.8575 65.7801 45.3499 65.5646 45.7713C65.3516 46.1927 65.0497 46.5206 64.6591 46.755C64.2685 46.9893 63.8068 47.1065 63.2741 47.1065ZM63.2812 46.0767C63.5701 46.0767 63.8116 45.9974 64.0057 45.8388C64.1998 45.6778 64.3442 45.4624 64.4389 45.1925C64.536 44.9226 64.5845 44.6219 64.5845 44.2905C64.5845 43.9567 64.536 43.6548 64.4389 43.3849C64.3442 43.1127 64.1998 42.8961 64.0057 42.7351C63.8116 42.5741 63.5701 42.4936 63.2812 42.4936C62.9853 42.4936 62.7391 42.5741 62.5426 42.7351C62.3485 42.8961 62.2029 43.1127 62.1058 43.3849C62.0111 43.6548 61.9638 43.9567 61.9638 44.2905C61.9638 44.6219 62.0111 44.9226 62.1058 45.1925C62.2029 45.4624 62.3485 45.6778 62.5426 45.8388C62.7391 45.9974 62.9853 46.0767 63.2812 46.0767ZM69.3581 47.1065C68.8136 47.1065 68.3461 46.987 67.9554 46.7479C67.5672 46.5088 67.2677 46.1785 67.057 45.7571C66.8487 45.3333 66.7445 44.8456 66.7445 44.294C66.7445 43.7401 66.851 43.2512 67.0641 42.8274C67.2772 42.4013 67.5778 42.0698 67.9661 41.8331C68.3567 41.594 68.8184 41.4744 69.351 41.4744C69.7937 41.4744 70.1855 41.5561 70.5265 41.7195C70.8697 41.8804 71.1432 42.1089 71.3468 42.4048C71.5504 42.6984 71.6664 43.0417 71.6948 43.4347H70.4661C70.4164 43.1719 70.298 42.9529 70.111 42.7777C69.9263 42.6001 69.6789 42.5114 69.3688 42.5114C69.106 42.5114 68.8752 42.5824 68.6763 42.7244C68.4775 42.8641 68.3224 43.0653 68.2111 43.3281C68.1022 43.5909 68.0478 43.9058 68.0478 44.2727C68.0478 44.6444 68.1022 44.964 68.2111 45.2315C68.32 45.4967 68.4727 45.7015 68.6692 45.8459C68.8681 45.9879 69.1013 46.0589 69.3688 46.0589C69.5582 46.0589 69.7275 46.0234 69.8766 45.9524C70.0281 45.879 70.1548 45.7737 70.2566 45.6364C70.3584 45.4991 70.4282 45.3321 70.4661 45.1357H71.6948C71.664 45.5215 71.5504 45.8636 71.3539 46.1619C71.1574 46.4579 70.8899 46.6899 70.5513 46.858C70.2128 47.0237 69.815 47.1065 69.3581 47.1065ZM73.9222 45.2884L73.9187 43.7365H74.1246L76.0849 41.5455H77.587L75.1758 44.2301H74.9094L73.9222 45.2884ZM72.7504 47V39.7273H74.0359V47H72.7504ZM76.1737 47L74.3981 44.5178L75.2646 43.6122L77.7113 47H76.1737ZM82.7548 42.9872L81.5829 43.1151C81.5498 42.9967 81.4918 42.8854 81.4089 42.7812C81.3284 42.6771 81.2195 42.593 81.0822 42.5291C80.9449 42.4652 80.7768 42.4332 80.5779 42.4332C80.3104 42.4332 80.0855 42.4912 79.9032 42.6072C79.7233 42.7232 79.6345 42.8736 79.6369 43.0582C79.6345 43.2169 79.6925 43.3459 79.8109 43.4453C79.9316 43.5447 80.1305 43.6264 80.4075 43.6903L81.3379 43.8892C81.854 44.0005 82.2375 44.1768 82.4885 44.4183C82.7418 44.6598 82.8696 44.9759 82.872 45.3665C82.8696 45.7098 82.769 46.0128 82.5701 46.2756C82.3736 46.536 82.1002 46.7396 81.7498 46.8864C81.3994 47.0331 80.997 47.1065 80.5424 47.1065C79.8748 47.1065 79.3374 46.9669 78.9302 46.6875C78.523 46.4058 78.2804 46.014 78.2022 45.5121L79.4558 45.3913C79.5126 45.6375 79.6333 45.8234 79.818 45.9489C80.0027 46.0743 80.243 46.1371 80.5389 46.1371C80.8443 46.1371 81.0893 46.0743 81.274 45.9489C81.461 45.8234 81.5545 45.6683 81.5545 45.4837C81.5545 45.3274 81.4941 45.1984 81.3734 45.0966C81.255 44.9948 81.0704 44.9167 80.8194 44.8622L79.889 44.6669C79.3658 44.558 78.9788 44.3745 78.7278 44.1165C78.4769 43.8561 78.3526 43.527 78.3549 43.1293C78.3526 42.7931 78.4437 42.5019 78.6284 42.2557C78.8154 42.0071 79.0746 41.8153 79.4061 41.6804C79.7399 41.5431 80.1246 41.4744 80.5602 41.4744C81.1994 41.4744 81.7025 41.6106 82.0694 41.8828C82.4387 42.1551 82.6672 42.5232 82.7548 42.9872Z" fill="#555770"/>
<path d="M133 71L117.669 59H50" stroke="#282C3F" stroke-width="0.5" stroke-linecap="round" stroke-linejoin="round"/>
<circle cx="229.001" cy="154" r="76.3583" fill="white"/>
<path d="M241.25 122.905L239.979 138.154C239.917 138.904 239.575 139.603 239.021 140.112C238.468 140.622 237.743 140.905 236.99 140.905H223.01C222.257 140.905 221.532 140.622 220.979 140.112C220.425 139.603 220.083 138.904 220.021 138.154L218.75 122.905H241.25Z" fill="white"/>
<path d="M229.999 136.405C228.021 136.374 226.069 135.942 224.262 135.136C222.455 134.331 220.83 133.167 219.484 131.716L220.02 138.154C220.082 138.904 220.424 139.603 220.978 140.112C221.532 140.622 222.257 140.905 223.009 140.905H236.989C237.742 140.905 238.467 140.622 239.021 140.112C239.574 139.603 239.916 138.904 239.979 138.154L240.516 131.716C239.17 133.167 237.545 134.33 235.737 135.136C233.93 135.942 231.978 136.374 229.999 136.405Z" fill="#E3E3E3"/>
<path d="M217.25 122.905H242.75M241.25 122.905L239.98 138.154C239.917 138.904 239.575 139.603 239.021 140.112C238.468 140.622 237.743 140.905 236.99 140.905H223.01C222.257 140.905 221.532 140.622 220.979 140.112C220.425 139.603 220.083 138.904 220.021 138.154L218.75 122.905H241.25Z" stroke="#191919" stroke-linecap="round" stroke-linejoin="round"/>
<path d="M235.443 118.214H236.763C238.708 118.214 240.285 117.243 240.285 116.044C240.285 115.117 239.335 114.33 238.006 114.021C237.912 113.566 237.726 113.135 237.459 112.754C237.191 112.372 236.848 112.048 236.451 111.801C236.053 111.553 235.608 111.388 235.144 111.314C234.679 111.241 234.204 111.261 233.748 111.374C233.344 110.806 232.806 110.342 232.182 110.023C231.557 109.703 230.864 109.536 230.16 109.536C229.456 109.536 228.763 109.703 228.138 110.023C227.514 110.342 226.977 110.806 226.572 111.374C226.116 111.261 225.641 111.241 225.177 111.314C224.712 111.388 224.268 111.553 223.87 111.801C223.472 112.048 223.129 112.372 222.862 112.754C222.594 113.135 222.408 113.566 222.315 114.021C220.985 114.33 220.035 115.117 220.035 116.044C220.035 117.243 221.612 118.214 223.557 118.214H235.443Z" fill="#4BD0CF"/>
<path d="M239.566 114.678C238.758 115.282 237.77 115.594 236.763 115.562H223.557C222.55 115.594 221.563 115.282 220.755 114.678C220.544 114.831 220.369 115.029 220.245 115.259C220.12 115.488 220.048 115.743 220.035 116.004C220.035 117.225 221.612 118.214 223.557 118.214H236.763C238.708 118.214 240.285 117.225 240.285 116.004C240.272 115.743 240.2 115.489 240.076 115.259C239.951 115.03 239.777 114.831 239.566 114.678Z" fill="#00B8B7"/>
<path d="M229.72 115.686V122.714M235.443 118.321H236.763C238.708 118.321 240.285 117.338 240.285 116.125C240.285 115.186 239.335 114.39 238.006 114.076C237.912 113.616 237.726 113.18 237.459 112.793C237.191 112.407 236.848 112.079 236.451 111.829C236.053 111.578 235.608 111.411 235.144 111.336C234.679 111.262 234.204 111.283 233.748 111.396C233.344 110.822 232.806 110.352 232.182 110.029C231.557 109.705 230.864 109.536 230.16 109.536C229.456 109.536 228.763 109.705 228.138 110.029C227.514 110.352 226.977 110.822 226.572 111.396C226.116 111.283 225.641 111.262 225.177 111.336C224.712 111.411 224.268 111.578 223.87 111.829C223.472 112.079 223.129 112.407 222.862 112.793C222.594 113.18 222.408 113.616 222.315 114.076C220.985 114.39 220.035 115.186 220.035 116.125C220.035 117.338 221.612 118.321 223.557 118.321H224.437H235.443Z" stroke="#191919" stroke-linecap="round" stroke-linejoin="round"/>
<path d="M226.143 118.536C226.143 119.422 226.509 120.272 227.162 120.899C227.814 121.526 228.699 121.878 229.622 121.878M229.622 122.714H230.056C230.979 122.714 231.864 122.362 232.516 121.735C233.169 121.108 233.535 120.258 233.535 119.371" stroke="#191919" stroke-linecap="round" stroke-linejoin="round"/>
<path d="M227.981 128.332C227.816 128.05 227.58 127.816 227.297 127.654C227.013 127.491 226.692 127.406 226.365 127.406C226.039 127.406 225.718 127.491 225.434 127.654C225.151 127.816 224.915 128.05 224.75 128.332M232.019 128.332C232.184 128.05 232.42 127.816 232.703 127.654C232.987 127.491 233.308 127.406 233.635 127.406C233.961 127.406 234.282 127.491 234.566 127.654C234.849 127.816 235.085 128.05 235.25 128.332M225.308 133.403C225.722 134.299 226.384 135.058 227.215 135.589C228.047 136.121 229.013 136.404 230 136.404C230.987 136.404 231.953 136.121 232.785 135.589C233.616 135.058 234.278 134.299 234.692 133.403" stroke="#191919" stroke-linecap="round" stroke-linejoin="round"/>
<path d="M199.132 171V160.818H203.209C203.958 160.818 204.583 160.929 205.083 161.151C205.583 161.373 205.96 161.682 206.212 162.076C206.463 162.467 206.589 162.918 206.589 163.428C206.589 163.826 206.51 164.176 206.351 164.477C206.192 164.776 205.973 165.021 205.695 165.213C205.419 165.402 205.105 165.536 204.75 165.616V165.715C205.138 165.732 205.501 165.841 205.839 166.043C206.18 166.246 206.457 166.529 206.669 166.893C206.881 167.255 206.987 167.686 206.987 168.186C206.987 168.726 206.853 169.209 206.584 169.633C206.319 170.054 205.927 170.387 205.406 170.632C204.886 170.877 204.244 171 203.482 171H199.132ZM201.285 169.24H203.04C203.64 169.24 204.077 169.126 204.352 168.897C204.627 168.665 204.765 168.357 204.765 167.972C204.765 167.691 204.697 167.442 204.561 167.227C204.425 167.011 204.231 166.842 203.979 166.719C203.731 166.597 203.434 166.536 203.089 166.536H201.285V169.24ZM201.285 165.079H202.881C203.176 165.079 203.437 165.027 203.666 164.925C203.898 164.819 204.08 164.67 204.213 164.477C204.349 164.285 204.417 164.055 204.417 163.786C204.417 163.418 204.286 163.122 204.024 162.896C203.766 162.671 203.398 162.558 202.92 162.558H201.285V165.079ZM210.526 171.144C210.038 171.144 209.604 171.06 209.223 170.891C208.842 170.718 208.54 170.465 208.318 170.13C208.1 169.792 207.99 169.371 207.99 168.867C207.99 168.443 208.068 168.087 208.224 167.798C208.38 167.51 208.592 167.278 208.86 167.102C209.129 166.927 209.434 166.794 209.775 166.705C210.12 166.615 210.481 166.552 210.859 166.516C211.303 166.469 211.661 166.426 211.933 166.386C212.204 166.343 212.402 166.28 212.524 166.197C212.647 166.115 212.708 165.992 212.708 165.83V165.8C212.708 165.485 212.609 165.241 212.41 165.069C212.214 164.897 211.936 164.81 211.575 164.81C211.194 164.81 210.89 164.895 210.665 165.064C210.439 165.23 210.29 165.438 210.217 165.69L208.259 165.531C208.358 165.067 208.554 164.666 208.845 164.328C209.137 163.987 209.513 163.725 209.974 163.543C210.438 163.357 210.975 163.264 211.585 163.264C212.009 163.264 212.415 163.314 212.803 163.413C213.194 163.513 213.54 163.667 213.842 163.876C214.147 164.085 214.387 164.353 214.563 164.681C214.738 165.006 214.826 165.395 214.826 165.849V171H212.818V169.941H212.758C212.635 170.18 212.471 170.39 212.266 170.572C212.06 170.751 211.813 170.892 211.525 170.995C211.237 171.094 210.903 171.144 210.526 171.144ZM211.132 169.683C211.444 169.683 211.719 169.621 211.957 169.499C212.196 169.373 212.383 169.204 212.519 168.991C212.655 168.779 212.723 168.539 212.723 168.271V167.46C212.657 167.503 212.566 167.543 212.45 167.58C212.337 167.613 212.209 167.644 212.067 167.674C211.924 167.701 211.782 167.725 211.639 167.749C211.497 167.768 211.368 167.787 211.252 167.803C211.003 167.84 210.786 167.898 210.6 167.977C210.415 168.057 210.27 168.165 210.168 168.3C210.065 168.433 210.014 168.599 210.014 168.798C210.014 169.086 210.118 169.306 210.327 169.459C210.539 169.608 210.807 169.683 211.132 169.683ZM218.587 160.818V171H216.469V160.818H218.587ZM222.461 171.144C221.974 171.144 221.54 171.06 221.159 170.891C220.777 170.718 220.476 170.465 220.254 170.13C220.035 169.792 219.926 169.371 219.926 168.867C219.926 168.443 220.004 168.087 220.159 167.798C220.315 167.51 220.527 167.278 220.796 167.102C221.064 166.927 221.369 166.794 221.71 166.705C222.055 166.615 222.416 166.552 222.794 166.516C223.238 166.469 223.596 166.426 223.868 166.386C224.14 166.343 224.337 166.28 224.46 166.197C224.582 166.115 224.644 165.992 224.644 165.83V165.8C224.644 165.485 224.544 165.241 224.345 165.069C224.15 164.897 223.871 164.81 223.51 164.81C223.129 164.81 222.826 164.895 222.6 165.064C222.375 165.23 222.226 165.438 222.153 165.69L220.194 165.531C220.294 165.067 220.489 164.666 220.781 164.328C221.072 163.987 221.449 163.725 221.909 163.543C222.373 163.357 222.91 163.264 223.52 163.264C223.944 163.264 224.35 163.314 224.738 163.413C225.129 163.513 225.476 163.667 225.777 163.876C226.082 164.085 226.322 164.353 226.498 164.681C226.674 165.006 226.762 165.395 226.762 165.849V171H224.753V169.941H224.693C224.571 170.18 224.407 170.39 224.201 170.572C223.996 170.751 223.749 170.892 223.46 170.995C223.172 171.094 222.839 171.144 222.461 171.144ZM223.068 169.683C223.379 169.683 223.654 169.621 223.893 169.499C224.132 169.373 224.319 169.204 224.455 168.991C224.591 168.779 224.659 168.539 224.659 168.271V167.46C224.592 167.503 224.501 167.543 224.385 167.58C224.273 167.613 224.145 167.644 224.002 167.674C223.86 167.701 223.717 167.725 223.575 167.749C223.432 167.768 223.303 167.787 223.187 167.803C222.938 167.84 222.721 167.898 222.536 167.977C222.35 168.057 222.206 168.165 222.103 168.3C222.001 168.433 221.949 168.599 221.949 168.798C221.949 169.086 222.054 169.306 222.262 169.459C222.474 169.608 222.743 169.683 223.068 169.683ZM230.523 166.585V171H228.405V163.364H230.423V164.711H230.513C230.682 164.267 230.965 163.915 231.363 163.657C231.761 163.395 232.243 163.264 232.81 163.264C233.34 163.264 233.802 163.38 234.197 163.612C234.591 163.844 234.898 164.176 235.116 164.607C235.335 165.034 235.445 165.545 235.445 166.138V171H233.327V166.516C233.33 166.048 233.211 165.684 232.969 165.422C232.727 165.157 232.394 165.024 231.969 165.024C231.684 165.024 231.432 165.085 231.214 165.208C230.998 165.331 230.829 165.51 230.707 165.745C230.587 165.977 230.526 166.257 230.523 166.585ZM240.564 171.149C239.782 171.149 239.109 170.983 238.546 170.652C237.985 170.317 237.555 169.853 237.253 169.26C236.955 168.667 236.805 167.984 236.805 167.212C236.805 166.429 236.956 165.743 237.258 165.153C237.563 164.56 237.995 164.098 238.555 163.766C239.116 163.432 239.782 163.264 240.554 163.264C241.22 163.264 241.804 163.385 242.304 163.627C242.805 163.869 243.201 164.209 243.492 164.646C243.784 165.084 243.945 165.598 243.975 166.188H241.976C241.92 165.806 241.77 165.5 241.528 165.268C241.29 165.032 240.977 164.915 240.589 164.915C240.261 164.915 239.974 165.004 239.729 165.183C239.487 165.359 239.298 165.616 239.162 165.954C239.026 166.292 238.958 166.701 238.958 167.182C238.958 167.669 239.024 168.083 239.157 168.425C239.293 168.766 239.484 169.026 239.729 169.205C239.974 169.384 240.261 169.474 240.589 169.474C240.831 169.474 241.048 169.424 241.24 169.325C241.436 169.225 241.596 169.081 241.722 168.892C241.852 168.7 241.936 168.469 241.976 168.201H243.975C243.941 168.784 243.782 169.298 243.497 169.742C243.216 170.183 242.826 170.528 242.329 170.776C241.832 171.025 241.243 171.149 240.564 171.149ZM248.811 171.149C248.025 171.149 247.349 170.99 246.782 170.672C246.219 170.35 245.785 169.896 245.48 169.31C245.175 168.72 245.022 168.022 245.022 167.217C245.022 166.431 245.175 165.742 245.48 165.148C245.785 164.555 246.214 164.093 246.767 163.761C247.324 163.43 247.977 163.264 248.726 163.264C249.23 163.264 249.699 163.345 250.133 163.508C250.571 163.667 250.952 163.907 251.277 164.229C251.605 164.55 251.86 164.955 252.042 165.442C252.224 165.926 252.316 166.492 252.316 167.142V167.724H245.867V166.411H250.322C250.322 166.106 250.256 165.836 250.123 165.601C249.991 165.366 249.807 165.182 249.571 165.049C249.339 164.913 249.069 164.845 248.761 164.845C248.439 164.845 248.154 164.92 247.906 165.069C247.661 165.215 247.468 165.412 247.329 165.661C247.19 165.906 247.119 166.179 247.115 166.481V167.729C247.115 168.107 247.185 168.433 247.324 168.708C247.467 168.983 247.667 169.195 247.926 169.344C248.184 169.494 248.491 169.568 248.845 169.568C249.081 169.568 249.296 169.535 249.492 169.469C249.687 169.402 249.855 169.303 249.994 169.17C250.133 169.038 250.239 168.875 250.312 168.683L252.271 168.812C252.171 169.283 251.968 169.694 251.659 170.045C251.354 170.393 250.96 170.665 250.476 170.861C249.996 171.053 249.44 171.149 248.811 171.149ZM256.512 171.124C255.932 171.124 255.406 170.975 254.936 170.677C254.468 170.375 254.097 169.933 253.822 169.349C253.55 168.763 253.414 168.044 253.414 167.192C253.414 166.317 253.555 165.589 253.837 165.009C254.119 164.426 254.493 163.99 254.96 163.702C255.431 163.41 255.947 163.264 256.507 163.264C256.934 163.264 257.291 163.337 257.576 163.483C257.864 163.625 258.096 163.804 258.272 164.02C258.451 164.232 258.586 164.441 258.679 164.646H258.744V160.818H260.857V171H258.769V169.777H258.679C258.58 169.989 258.439 170.2 258.257 170.408C258.078 170.614 257.844 170.785 257.556 170.92C257.271 171.056 256.923 171.124 256.512 171.124ZM257.183 169.439C257.524 169.439 257.813 169.346 258.048 169.161C258.286 168.972 258.469 168.708 258.595 168.37C258.724 168.032 258.789 167.636 258.789 167.182C258.789 166.728 258.726 166.333 258.6 165.999C258.474 165.664 258.291 165.405 258.053 165.223C257.814 165.041 257.524 164.95 257.183 164.95C256.835 164.95 256.541 165.044 256.303 165.233C256.064 165.422 255.884 165.684 255.761 166.018C255.638 166.353 255.577 166.741 255.577 167.182C255.577 167.626 255.638 168.019 255.761 168.36C255.887 168.698 256.068 168.963 256.303 169.156C256.541 169.344 256.835 169.439 257.183 169.439ZM201.381 195V184.818H205.398C206.17 184.818 206.828 184.966 207.372 185.261C207.915 185.552 208.33 185.958 208.615 186.479C208.903 186.996 209.047 187.592 209.047 188.268C209.047 188.945 208.901 189.541 208.61 190.058C208.318 190.575 207.895 190.978 207.342 191.266C206.792 191.555 206.126 191.699 205.343 191.699H202.783V189.974H204.995C205.41 189.974 205.751 189.902 206.02 189.76C206.291 189.614 206.493 189.414 206.626 189.158C206.762 188.9 206.83 188.603 206.83 188.268C206.83 187.93 206.762 187.635 206.626 187.384C206.493 187.128 206.291 186.931 206.02 186.792C205.748 186.649 205.403 186.578 204.985 186.578H203.534V195H201.381ZM213.733 195.149C212.961 195.149 212.293 194.985 211.729 194.657C211.169 194.326 210.737 193.865 210.432 193.275C210.127 192.682 209.974 191.994 209.974 191.212C209.974 190.423 210.127 189.733 210.432 189.143C210.737 188.55 211.169 188.089 211.729 187.761C212.293 187.43 212.961 187.264 213.733 187.264C214.505 187.264 215.171 187.43 215.732 187.761C216.295 188.089 216.729 188.55 217.034 189.143C217.339 189.733 217.491 190.423 217.491 191.212C217.491 191.994 217.339 192.682 217.034 193.275C216.729 193.865 216.295 194.326 215.732 194.657C215.171 194.985 214.505 195.149 213.733 195.149ZM213.743 193.509C214.094 193.509 214.388 193.409 214.623 193.21C214.858 193.008 215.036 192.733 215.155 192.385C215.277 192.037 215.339 191.641 215.339 191.197C215.339 190.753 215.277 190.357 215.155 190.009C215.036 189.661 214.858 189.385 214.623 189.183C214.388 188.981 214.094 188.88 213.743 188.88C213.388 188.88 213.09 188.981 212.848 189.183C212.609 189.385 212.429 189.661 212.306 190.009C212.187 190.357 212.127 190.753 212.127 191.197C212.127 191.641 212.187 192.037 212.306 192.385C212.429 192.733 212.609 193.008 212.848 193.21C213.09 193.409 213.388 193.509 213.743 193.509ZM218.869 195V187.364H220.922V188.696H221.001C221.141 188.222 221.374 187.864 221.702 187.622C222.031 187.377 222.408 187.254 222.836 187.254C222.942 187.254 223.056 187.261 223.179 187.274C223.302 187.287 223.409 187.306 223.502 187.329V189.208C223.403 189.178 223.265 189.152 223.089 189.129C222.914 189.105 222.753 189.094 222.607 189.094C222.296 189.094 222.017 189.162 221.772 189.298C221.53 189.43 221.338 189.616 221.195 189.854C221.056 190.093 220.987 190.368 220.987 190.68V195H218.869ZM229.042 187.364V188.955H224.443V187.364H229.042ZM225.487 185.534H227.605V192.653C227.605 192.849 227.635 193.001 227.694 193.111C227.754 193.217 227.837 193.291 227.943 193.335C228.052 193.378 228.178 193.399 228.321 193.399C228.42 193.399 228.52 193.391 228.619 193.374C228.719 193.354 228.795 193.339 228.848 193.33L229.181 194.906C229.075 194.939 228.926 194.977 228.733 195.02C228.541 195.066 228.308 195.094 228.032 195.104C227.522 195.124 227.075 195.056 226.69 194.901C226.309 194.745 226.012 194.503 225.8 194.175C225.588 193.847 225.484 193.432 225.487 192.932V185.534ZM234.528 187.364V188.955H229.815V187.364H234.528ZM230.894 195V186.812C230.894 186.258 231.001 185.799 231.217 185.435C231.436 185.07 231.734 184.797 232.112 184.614C232.49 184.432 232.919 184.341 233.399 184.341C233.724 184.341 234.021 184.366 234.289 184.415C234.561 184.465 234.763 184.51 234.896 184.55L234.518 186.141C234.435 186.114 234.332 186.089 234.21 186.066C234.09 186.043 233.968 186.031 233.842 186.031C233.53 186.031 233.313 186.104 233.191 186.25C233.068 186.393 233.007 186.593 233.007 186.852V195H230.894ZM238.999 195.149C238.226 195.149 237.558 194.985 236.995 194.657C236.435 194.326 236.002 193.865 235.697 193.275C235.393 192.682 235.24 191.994 235.24 191.212C235.24 190.423 235.393 189.733 235.697 189.143C236.002 188.55 236.435 188.089 236.995 187.761C237.558 187.43 238.226 187.264 238.999 187.264C239.771 187.264 240.437 187.43 240.997 187.761C241.561 188.089 241.995 188.55 242.3 189.143C242.605 189.733 242.757 190.423 242.757 191.212C242.757 191.994 242.605 192.682 242.3 193.275C241.995 193.865 241.561 194.326 240.997 194.657C240.437 194.985 239.771 195.149 238.999 195.149ZM239.009 193.509C239.36 193.509 239.653 193.409 239.888 193.21C240.124 193.008 240.301 192.733 240.42 192.385C240.543 192.037 240.604 191.641 240.604 191.197C240.604 190.753 240.543 190.357 240.42 190.009C240.301 189.661 240.124 189.385 239.888 189.183C239.653 188.981 239.36 188.88 239.009 188.88C238.654 188.88 238.356 188.981 238.114 189.183C237.875 189.385 237.694 189.661 237.572 190.009C237.452 190.357 237.393 190.753 237.393 191.197C237.393 191.641 237.452 192.037 237.572 192.385C237.694 192.733 237.875 193.008 238.114 193.21C238.356 193.409 238.654 193.509 239.009 193.509ZM246.252 184.818V195H244.134V184.818H246.252ZM247.949 195V187.364H250.067V195H247.949ZM249.013 186.379C248.698 186.379 248.428 186.275 248.202 186.066C247.98 185.854 247.869 185.6 247.869 185.305C247.869 185.014 247.98 184.763 248.202 184.555C248.428 184.343 248.698 184.237 249.013 184.237C249.327 184.237 249.596 184.343 249.818 184.555C250.043 184.763 250.156 185.014 250.156 185.305C250.156 185.6 250.043 185.854 249.818 186.066C249.596 186.275 249.327 186.379 249.013 186.379ZM255.213 195.149C254.441 195.149 253.773 194.985 253.21 194.657C252.65 194.326 252.217 193.865 251.912 193.275C251.607 192.682 251.455 191.994 251.455 191.212C251.455 190.423 251.607 189.733 251.912 189.143C252.217 188.55 252.65 188.089 253.21 187.761C253.773 187.43 254.441 187.264 255.213 187.264C255.986 187.264 256.652 187.43 257.212 187.761C257.775 188.089 258.21 188.55 258.515 189.143C258.819 189.733 258.972 190.423 258.972 191.212C258.972 191.994 258.819 192.682 258.515 193.275C258.21 193.865 257.775 194.326 257.212 194.657C256.652 194.985 255.986 195.149 255.213 195.149ZM255.223 193.509C255.575 193.509 255.868 193.409 256.103 193.21C256.339 193.008 256.516 192.733 256.635 192.385C256.758 192.037 256.819 191.641 256.819 191.197C256.819 190.753 256.758 190.357 256.635 190.009C256.516 189.661 256.339 189.385 256.103 189.183C255.868 188.981 255.575 188.88 255.223 188.88C254.869 188.88 254.57 188.981 254.328 189.183C254.09 189.385 253.909 189.661 253.787 190.009C253.667 190.357 253.608 190.753 253.608 191.197C253.608 191.641 253.667 192.037 253.787 192.385C253.909 192.733 254.09 193.008 254.328 193.21C254.57 193.409 254.869 193.509 255.223 193.509Z" fill="#282C3F"/>
<path d="M112.389 130.275C117.399 105.649 130.077 83.2418 148.605 66.264C167.133 49.2862 190.56 38.6098 215.529 35.7649L220.376 78.3059C204.391 80.1272 189.393 86.9622 177.531 97.8314C165.669 108.701 157.553 123.046 154.346 138.811L112.389 130.275Z" fill="#FFA6A6"/>
<path d="M166.823 255.464C188.25 268.595 213.284 274.605 238.337 272.633C263.389 270.661 287.175 260.809 306.284 244.488L278.477 211.931C266.244 222.379 251.016 228.687 234.977 229.949C218.938 231.211 202.912 227.364 189.194 218.957L166.823 255.464Z" fill="#00CAF1"/>
<path d="M111.993 132.314C107.646 155.769 110.448 179.989 120.036 201.832C129.624 223.674 145.556 242.131 165.764 254.808L188.516 218.537C175.579 210.422 165.38 198.606 159.241 184.622C153.103 170.638 151.309 155.133 154.092 140.117L111.993 132.314Z" fill="#3E7BFA"/>
<path d="M337.712 105.598C327.49 82.6406 310.263 63.5081 288.5 50.943C266.736 38.3778 241.554 33.0251 216.561 35.6519L221.037 78.2335C237.037 76.5518 253.159 79.9787 267.092 88.0229C281.025 96.0671 292.054 108.316 298.597 123.013L337.712 105.598Z" fill="#00357C"/>
<path d="M307.852 243.126C326.673 226.474 339.74 204.291 345.179 179.756C350.618 155.222 348.151 129.595 338.13 106.549L298.865 123.622C305.28 138.376 306.86 154.782 303.378 170.489C299.896 186.196 291.53 200.398 279.481 211.058L307.852 243.126Z" fill="#73DFE7"/>
<path d="M50.7173 202V194.727H53.4446C54.0033 194.727 54.4721 194.824 54.8509 195.018C55.232 195.213 55.5196 195.485 55.7138 195.835C55.9103 196.183 56.0085 196.589 56.0085 197.053C56.0085 197.52 55.9091 197.924 55.7102 198.268C55.5137 198.609 55.2237 198.873 54.8402 199.06C54.4567 199.244 53.9856 199.337 53.4268 199.337H51.4844V198.243H53.2493C53.576 198.243 53.8435 198.198 54.0518 198.108C54.2602 198.016 54.4141 197.882 54.5135 197.707C54.6153 197.529 54.6662 197.311 54.6662 197.053C54.6662 196.795 54.6153 196.575 54.5135 196.393C54.4117 196.208 54.2566 196.068 54.0483 195.974C53.84 195.877 53.5713 195.828 53.2422 195.828H52.0348V202H50.7173ZM54.4744 198.705L56.2749 202H54.8047L53.0362 198.705H54.4744ZM59.5011 202.107C58.9542 202.107 58.4819 201.993 58.0842 201.766C57.6888 201.536 57.3846 201.212 57.1715 200.793C56.9585 200.371 56.8519 199.875 56.8519 199.305C56.8519 198.744 56.9585 198.251 57.1715 197.827C57.387 197.401 57.6876 197.07 58.0735 196.833C58.4594 196.594 58.9128 196.474 59.4336 196.474C59.7698 196.474 60.087 196.529 60.3853 196.638C60.686 196.744 60.9511 196.91 61.1808 197.135C61.4128 197.36 61.5951 197.646 61.7276 197.994C61.8602 198.34 61.9265 198.752 61.9265 199.23V199.624H57.4556V198.758H60.6942C60.6919 198.512 60.6386 198.293 60.5344 198.101C60.4303 197.907 60.2847 197.754 60.0977 197.643C59.913 197.531 59.6976 197.476 59.4513 197.476C59.1886 197.476 58.9577 197.54 58.7589 197.668C58.56 197.793 58.4049 197.959 58.2937 198.165C58.1848 198.368 58.1291 198.592 58.1268 198.836V199.592C58.1268 199.91 58.1848 200.182 58.3008 200.409C58.4168 200.634 58.579 200.807 58.7873 200.928C58.9956 201.046 59.2395 201.105 59.5188 201.105C59.7058 201.105 59.8751 201.079 60.0266 201.027C60.1781 200.973 60.3095 200.893 60.4208 200.789C60.5321 200.685 60.6161 200.556 60.6729 200.402L61.8732 200.537C61.7975 200.854 61.6531 201.131 61.44 201.368C61.2293 201.602 60.9594 201.785 60.6303 201.915C60.3013 202.043 59.9248 202.107 59.5011 202.107ZM64.5836 202.11C64.238 202.11 63.9267 202.049 63.6497 201.925C63.3751 201.8 63.1573 201.615 62.9963 201.371C62.8377 201.128 62.7583 200.827 62.7583 200.469C62.7583 200.162 62.8152 199.907 62.9288 199.706C63.0424 199.505 63.1975 199.344 63.394 199.223C63.5905 199.102 63.8118 199.011 64.0581 198.95C64.3066 198.886 64.5635 198.839 64.8287 198.811C65.1483 198.778 65.4075 198.748 65.6064 198.722C65.8052 198.694 65.9496 198.651 66.0396 198.594C66.1319 198.535 66.1781 198.444 66.1781 198.321V198.3C66.1781 198.032 66.0988 197.825 65.9402 197.678C65.7815 197.531 65.5531 197.458 65.2548 197.458C64.9399 197.458 64.6902 197.527 64.5055 197.664C64.3232 197.801 64.2001 197.964 64.1362 198.151L62.9359 197.98C63.0306 197.649 63.1868 197.372 63.4047 197.149C63.6225 196.924 63.8888 196.756 64.2037 196.645C64.5185 196.531 64.8665 196.474 65.2477 196.474C65.5105 196.474 65.7721 196.505 66.0325 196.567C66.2929 196.628 66.5308 196.73 66.7463 196.872C66.9617 197.012 67.1345 197.202 67.2647 197.444C67.3973 197.685 67.4636 197.987 67.4636 198.349V202H66.2278V201.251H66.1852C66.1071 201.402 65.997 201.544 65.8549 201.677C65.7153 201.807 65.5389 201.912 65.3258 201.993C65.1151 202.071 64.8677 202.11 64.5836 202.11ZM64.9174 201.165C65.1755 201.165 65.3992 201.115 65.5886 201.013C65.778 200.909 65.9236 200.771 66.0254 200.601C66.1296 200.43 66.1816 200.245 66.1816 200.043V199.401C66.1414 199.434 66.0727 199.464 65.9757 199.493C65.881 199.521 65.7744 199.546 65.6561 199.567C65.5377 199.589 65.4205 199.608 65.3045 199.624C65.1885 199.641 65.0879 199.655 65.0027 199.667C64.8109 199.693 64.6393 199.736 64.4877 199.795C64.3362 199.854 64.2167 199.937 64.1291 200.043C64.0415 200.147 63.9977 200.282 63.9977 200.448C63.9977 200.685 64.0841 200.864 64.2569 200.984C64.4297 201.105 64.6499 201.165 64.9174 201.165ZM70.0417 194.727V202H68.7562V194.727H70.0417ZM73.9009 202V194.727H78.631V195.832H75.2184V197.806H78.386V198.911H75.2184V200.896H78.6594V202H73.9009ZM84.2294 197.987L83.0575 198.115C83.0244 197.997 82.9664 197.885 82.8835 197.781C82.803 197.677 82.6941 197.593 82.5568 197.529C82.4195 197.465 82.2514 197.433 82.0526 197.433C81.785 197.433 81.5601 197.491 81.3778 197.607C81.1979 197.723 81.1091 197.874 81.1115 198.058C81.1091 198.217 81.1671 198.346 81.2855 198.445C81.4063 198.545 81.6051 198.626 81.8821 198.69L82.8125 198.889C83.3286 199 83.7121 199.177 83.9631 199.418C84.2164 199.66 84.3442 199.976 84.3466 200.366C84.3442 200.71 84.2436 201.013 84.0447 201.276C83.8482 201.536 83.5748 201.74 83.2244 201.886C82.8741 202.033 82.4716 202.107 82.017 202.107C81.3494 202.107 80.812 201.967 80.4048 201.688C79.9976 201.406 79.755 201.014 79.6768 200.512L80.9304 200.391C80.9872 200.638 81.108 200.823 81.2926 200.949C81.4773 201.074 81.7176 201.137 82.0135 201.137C82.3189 201.137 82.5639 201.074 82.7486 200.949C82.9356 200.823 83.0291 200.668 83.0291 200.484C83.0291 200.327 82.9688 200.198 82.848 200.097C82.7296 199.995 82.545 199.917 82.294 199.862L81.3636 199.667C80.8404 199.558 80.4534 199.375 80.2024 199.116C79.9515 198.856 79.8272 198.527 79.8295 198.129C79.8272 197.793 79.9183 197.502 80.103 197.256C80.29 197.007 80.5492 196.815 80.8807 196.68C81.2145 196.543 81.5992 196.474 82.0348 196.474C82.674 196.474 83.1771 196.611 83.544 196.883C83.9134 197.155 84.1418 197.523 84.2294 197.987ZM88.1303 196.545V197.54H84.9947V196.545H88.1303ZM85.7688 195.239H87.0543V200.359C87.0543 200.532 87.0804 200.665 87.1325 200.757C87.1869 200.847 87.2579 200.909 87.3455 200.942C87.4331 200.975 87.5302 200.991 87.6367 200.991C87.7172 200.991 87.7906 200.986 87.8569 200.974C87.9255 200.962 87.9776 200.951 88.0131 200.942L88.2298 201.947C88.1611 201.97 88.0629 201.996 87.935 202.025C87.8095 202.053 87.6557 202.07 87.4734 202.075C87.1514 202.084 86.8614 202.036 86.6033 201.929C86.3453 201.82 86.1405 201.652 85.989 201.425C85.8398 201.197 85.7665 200.913 85.7688 200.572V195.239ZM90.775 202.11C90.4294 202.11 90.1181 202.049 89.8411 201.925C89.5665 201.8 89.3487 201.615 89.1877 201.371C89.0291 201.128 88.9498 200.827 88.9498 200.469C88.9498 200.162 89.0066 199.907 89.1202 199.706C89.2338 199.505 89.3889 199.344 89.5854 199.223C89.7819 199.102 90.0033 199.011 90.2495 198.95C90.498 198.886 90.7549 198.839 91.0201 198.811C91.3397 198.778 91.5989 198.748 91.7978 198.722C91.9966 198.694 92.141 198.651 92.231 198.594C92.3233 198.535 92.3695 198.444 92.3695 198.321V198.3C92.3695 198.032 92.2902 197.825 92.1316 197.678C91.973 197.531 91.7445 197.458 91.4462 197.458C91.1313 197.458 90.8816 197.527 90.6969 197.664C90.5146 197.801 90.3915 197.964 90.3276 198.151L89.1273 197.98C89.222 197.649 89.3783 197.372 89.5961 197.149C89.8139 196.924 90.0802 196.756 90.3951 196.645C90.7099 196.531 91.0579 196.474 91.4391 196.474C91.7019 196.474 91.9635 196.505 92.2239 196.567C92.4843 196.628 92.7222 196.73 92.9377 196.872C93.1531 197.012 93.3259 197.202 93.4561 197.444C93.5887 197.685 93.655 197.987 93.655 198.349V202H92.4192V201.251H92.3766C92.2985 201.402 92.1884 201.544 92.0463 201.677C91.9067 201.807 91.7303 201.912 91.5172 201.993C91.3065 202.071 91.0591 202.11 90.775 202.11ZM91.1088 201.165C91.3669 201.165 91.5906 201.115 91.78 201.013C91.9694 200.909 92.115 200.771 92.2168 200.601C92.321 200.43 92.373 200.245 92.373 200.043V199.401C92.3328 199.434 92.2641 199.464 92.1671 199.493C92.0724 199.521 91.9658 199.546 91.8475 199.567C91.7291 199.589 91.6119 199.608 91.4959 199.624C91.3799 199.641 91.2793 199.655 91.1941 199.667C91.0023 199.693 90.8307 199.736 90.6792 199.795C90.5276 199.854 90.4081 199.937 90.3205 200.043C90.2329 200.147 90.1891 200.282 90.1891 200.448C90.1891 200.685 90.2755 200.864 90.4483 200.984C90.6212 201.105 90.8413 201.165 91.1088 201.165ZM97.6713 196.545V197.54H94.5357V196.545H97.6713ZM95.3098 195.239H96.5953V200.359C96.5953 200.532 96.6214 200.665 96.6735 200.757C96.7279 200.847 96.7989 200.909 96.8865 200.942C96.9741 200.975 97.0712 200.991 97.1777 200.991C97.2582 200.991 97.3316 200.986 97.3979 200.974C97.4666 200.962 97.5186 200.951 97.5542 200.942L97.7708 201.947C97.7021 201.97 97.6039 201.996 97.476 202.025C97.3506 202.053 97.1967 202.07 97.0144 202.075C96.6924 202.084 96.4024 202.036 96.1444 201.929C95.8863 201.82 95.6815 201.652 95.53 201.425C95.3809 201.197 95.3075 200.913 95.3098 200.572V195.239ZM101.103 202.107C100.556 202.107 100.083 201.993 99.6857 201.766C99.2904 201.536 98.9862 201.212 98.7731 200.793C98.56 200.371 98.4535 199.875 98.4535 199.305C98.4535 198.744 98.56 198.251 98.7731 197.827C98.9885 197.401 99.2892 197.07 99.6751 196.833C100.061 196.594 100.514 196.474 101.035 196.474C101.371 196.474 101.689 196.529 101.987 196.638C102.288 196.744 102.553 196.91 102.782 197.135C103.014 197.36 103.197 197.646 103.329 197.994C103.462 198.34 103.528 198.752 103.528 199.23V199.624H99.0572V198.758H102.296C102.293 198.512 102.24 198.293 102.136 198.101C102.032 197.907 101.886 197.754 101.699 197.643C101.515 197.531 101.299 197.476 101.053 197.476C100.79 197.476 100.559 197.54 100.36 197.668C100.162 197.793 100.007 197.959 99.8952 198.165C99.7863 198.368 99.7307 198.592 99.7283 198.836V199.592C99.7283 199.91 99.7863 200.182 99.9023 200.409C100.018 200.634 100.181 200.807 100.389 200.928C100.597 201.046 100.841 201.105 101.12 201.105C101.307 201.105 101.477 201.079 101.628 201.027C101.78 200.973 101.911 200.893 102.022 200.789C102.134 200.685 102.218 200.556 102.275 200.402L103.475 200.537C103.399 200.854 103.255 201.131 103.042 201.368C102.831 201.602 102.561 201.785 102.232 201.915C101.903 202.043 101.526 202.107 101.103 202.107Z" fill="#555770"/>
<path d="M119 214H106.939H50" stroke="#282C3F" stroke-width="0.5" stroke-linecap="round" stroke-linejoin="round"/>
<path d="M308.717 20V12.7273H310.035V18.8956H313.238V20H308.717ZM316.704 20.1065C316.171 20.1065 315.71 19.9893 315.319 19.755C314.928 19.5206 314.625 19.1927 314.41 18.7713C314.197 18.3499 314.09 17.8575 314.09 17.294C314.09 16.7306 314.197 16.237 314.41 15.8132C314.625 15.3894 314.928 15.0604 315.319 14.826C315.71 14.5916 316.171 14.4744 316.704 14.4744C317.237 14.4744 317.698 14.5916 318.089 14.826C318.479 15.0604 318.781 15.3894 318.994 15.8132C319.21 16.237 319.317 16.7306 319.317 17.294C319.317 17.8575 319.21 18.3499 318.994 18.7713C318.781 19.1927 318.479 19.5206 318.089 19.755C317.698 19.9893 317.237 20.1065 316.704 20.1065ZM316.711 19.0767C317 19.0767 317.241 18.9974 317.435 18.8388C317.629 18.6778 317.774 18.4624 317.869 18.1925C317.966 17.9226 318.014 17.6219 318.014 17.2905C318.014 16.9567 317.966 16.6548 317.869 16.3849C317.774 16.1127 317.629 15.8961 317.435 15.7351C317.241 15.5741 317 15.4936 316.711 15.4936C316.415 15.4936 316.169 15.5741 315.972 15.7351C315.778 15.8961 315.633 16.1127 315.536 16.3849C315.441 16.6548 315.393 16.9567 315.393 17.2905C315.393 17.6219 315.441 17.9226 315.536 18.1925C315.633 18.4624 315.778 18.6778 315.972 18.8388C316.169 18.9974 316.415 19.0767 316.711 19.0767ZM321.378 20L319.837 14.5455H321.147L322.106 18.3807H322.156L323.136 14.5455H324.432L325.412 18.3594H325.465L326.41 14.5455H327.724L326.179 20H324.84L323.818 16.3139H323.743L322.72 20H321.378ZM331.159 20V12.7273H333.886C334.445 12.7273 334.913 12.8243 335.292 13.0185C335.673 13.2126 335.961 13.4848 336.155 13.8352C336.352 14.1832 336.45 14.5893 336.45 15.0533C336.45 15.5196 336.35 15.9245 336.152 16.2678C335.955 16.6087 335.665 16.8726 335.282 17.0597C334.898 17.2443 334.427 17.3366 333.868 17.3366H331.926V16.2429H333.691C334.017 16.2429 334.285 16.1979 334.493 16.108C334.702 16.0156 334.855 15.8819 334.955 15.7067C335.057 15.5291 335.108 15.3113 335.108 15.0533C335.108 14.7952 335.057 14.575 334.955 14.3928C334.853 14.2081 334.698 14.0684 334.49 13.9737C334.281 13.8767 334.013 13.8281 333.684 13.8281H332.476V20H331.159ZM334.916 16.7045L336.716 20H335.246L333.478 16.7045H334.916ZM337.606 20V14.5455H338.891V20H337.606ZM338.252 13.7713C338.049 13.7713 337.873 13.7038 337.727 13.5689C337.58 13.4316 337.506 13.267 337.506 13.0753C337.506 12.8812 337.58 12.7166 337.727 12.5817C337.873 12.4444 338.049 12.3757 338.252 12.3757C338.458 12.3757 338.633 12.4444 338.778 12.5817C338.924 12.7166 338.998 12.8812 338.998 13.0753C338.998 13.267 338.924 13.4316 338.778 13.5689C338.633 13.7038 338.458 13.7713 338.252 13.7713ZM344.524 15.9872L343.352 16.1151C343.319 15.9967 343.261 15.8854 343.178 15.7812C343.098 15.6771 342.989 15.593 342.852 15.5291C342.714 15.4652 342.546 15.4332 342.347 15.4332C342.08 15.4332 341.855 15.4912 341.673 15.6072C341.493 15.7232 341.404 15.8736 341.406 16.0582C341.404 16.2169 341.462 16.3459 341.58 16.4453C341.701 16.5447 341.9 16.6264 342.177 16.6903L343.107 16.8892C343.624 17.0005 344.007 17.1768 344.258 17.4183C344.511 17.6598 344.639 17.9759 344.642 18.3665C344.639 18.7098 344.539 19.0128 344.34 19.2756C344.143 19.536 343.87 19.7396 343.519 19.8864C343.169 20.0331 342.767 20.1065 342.312 20.1065C341.644 20.1065 341.107 19.9669 340.7 19.6875C340.293 19.4058 340.05 19.014 339.972 18.5121L341.225 18.3913C341.282 18.6375 341.403 18.8234 341.588 18.9489C341.772 19.0743 342.012 19.1371 342.308 19.1371C342.614 19.1371 342.859 19.0743 343.044 18.9489C343.231 18.8234 343.324 18.6683 343.324 18.4837C343.324 18.3274 343.264 18.1984 343.143 18.0966C343.025 17.9948 342.84 17.9167 342.589 17.8622L341.659 17.6669C341.135 17.558 340.748 17.3745 340.497 17.1165C340.246 16.8561 340.122 16.527 340.124 16.1293C340.122 15.7931 340.213 15.5019 340.398 15.2557C340.585 15.0071 340.844 14.8153 341.176 14.6804C341.509 14.5431 341.894 14.4744 342.33 14.4744C342.969 14.4744 343.472 14.6106 343.839 14.8828C344.208 15.1551 344.437 15.5232 344.524 15.9872ZM346.873 18.2884L346.87 16.7365H347.076L349.036 14.5455H350.538L348.127 17.2301H347.861L346.873 18.2884ZM345.702 20V12.7273H346.987V20H345.702ZM349.125 20L347.349 17.5178L348.216 16.6122L350.662 20H349.125ZM353.932 20V12.7273H358.591V13.8317H355.25V15.8061H358.272V16.9105H355.25V20H353.932ZM359.735 20V14.5455H361.02V20H359.735ZM360.381 13.7713C360.177 13.7713 360.002 13.7038 359.855 13.5689C359.709 13.4316 359.635 13.267 359.635 13.0753C359.635 12.8812 359.709 12.7166 359.855 12.5817C360.002 12.4444 360.177 12.3757 360.381 12.3757C360.587 12.3757 360.762 12.4444 360.907 12.5817C361.053 12.7166 361.127 12.8812 361.127 13.0753C361.127 13.267 361.053 13.4316 360.907 13.5689C360.762 13.7038 360.587 13.7713 360.381 13.7713ZM363.393 14.5455L364.494 16.5589L365.613 14.5455H366.973L365.329 17.2727L367.001 20H365.648L364.494 18.0362L363.351 20H361.987L363.649 17.2727L362.03 14.5455H363.393ZM370.177 20.1065C369.63 20.1065 369.158 19.9929 368.76 19.7656C368.365 19.536 368.06 19.2116 367.847 18.7926C367.634 18.3712 367.528 17.8752 367.528 17.3047C367.528 16.7436 367.634 16.2512 367.847 15.8274C368.063 15.4013 368.363 15.0698 368.749 14.8331C369.135 14.594 369.589 14.4744 370.109 14.4744C370.446 14.4744 370.763 14.5289 371.061 14.6378C371.362 14.7443 371.627 14.91 371.857 15.1349C372.089 15.3598 372.271 15.6463 372.403 15.9943C372.536 16.34 372.602 16.7519 372.602 17.2301V17.6243H368.131V16.7578H371.37C371.368 16.5116 371.314 16.2926 371.21 16.1009C371.106 15.9067 370.96 15.754 370.773 15.6428C370.589 15.5315 370.373 15.4759 370.127 15.4759C369.864 15.4759 369.634 15.5398 369.435 15.6676C369.236 15.7931 369.081 15.9588 368.969 16.1648C368.861 16.3684 368.805 16.5921 368.803 16.8359V17.5923C368.803 17.9096 368.861 18.1818 368.977 18.4091C369.093 18.634 369.255 18.8068 369.463 18.9276C369.671 19.0459 369.915 19.1051 370.195 19.1051C370.382 19.1051 370.551 19.0791 370.702 19.027C370.854 18.9725 370.985 18.8932 371.097 18.7891C371.208 18.6849 371.292 18.5559 371.349 18.402L372.549 18.5369C372.473 18.8542 372.329 19.1312 372.116 19.3679C371.905 19.6023 371.635 19.7846 371.306 19.9148C370.977 20.0426 370.601 20.1065 370.177 20.1065ZM375.714 20.0959C375.285 20.0959 374.902 19.9858 374.563 19.7656C374.225 19.5455 373.957 19.2259 373.761 18.8068C373.564 18.3878 373.466 17.8788 373.466 17.2798C373.466 16.6738 373.566 16.1624 373.764 15.7457C373.966 15.3267 374.237 15.0107 374.578 14.7976C374.919 14.5821 375.298 14.4744 375.718 14.4744C376.037 14.4744 376.3 14.5289 376.506 14.6378C376.712 14.7443 376.875 14.8733 376.996 15.0249C377.117 15.174 377.21 15.3149 377.276 15.4474H377.33V12.7273H378.619V20H377.355V19.1406H377.276C377.21 19.2732 377.114 19.4141 376.989 19.5632C376.863 19.71 376.698 19.8355 376.492 19.9396C376.286 20.0438 376.026 20.0959 375.714 20.0959ZM376.073 19.0412C376.345 19.0412 376.577 18.9678 376.769 18.821C376.96 18.6719 377.106 18.4647 377.205 18.1996C377.305 17.9344 377.355 17.6255 377.355 17.2727C377.355 16.92 377.305 16.6134 377.205 16.353C377.108 16.0926 376.964 15.8902 376.772 15.7457C376.583 15.6013 376.35 15.5291 376.073 15.5291C375.786 15.5291 375.547 15.6037 375.355 15.7528C375.164 15.902 375.019 16.108 374.922 16.3707C374.825 16.6335 374.776 16.9342 374.776 17.2727C374.776 17.6136 374.825 17.9179 374.922 18.1854C375.021 18.4505 375.167 18.66 375.359 18.8139C375.553 18.9654 375.791 19.0412 376.073 19.0412ZM310.035 28.7273V36H308.717V28.7273H310.035ZM312.69 32.804V36H311.405V30.5455H312.633V31.4723H312.697C312.823 31.1669 313.023 30.9242 313.297 30.7443C313.574 30.5644 313.916 30.4744 314.324 30.4744C314.7 30.4744 315.028 30.5549 315.307 30.7159C315.589 30.8769 315.807 31.1101 315.961 31.4155C316.117 31.7209 316.194 32.0914 316.192 32.527V36H314.906V32.7259C314.906 32.3613 314.811 32.076 314.622 31.87C314.435 31.6641 314.176 31.5611 313.844 31.5611C313.619 31.5611 313.419 31.6108 313.244 31.7102C313.071 31.8073 312.935 31.9482 312.836 32.1328C312.739 32.3175 312.69 32.5412 312.69 32.804ZM319.878 36.1065C319.333 36.1065 318.866 35.987 318.475 35.7479C318.087 35.5088 317.787 35.1785 317.577 34.7571C317.368 34.3333 317.264 33.8456 317.264 33.294C317.264 32.7401 317.371 32.2512 317.584 31.8274C317.797 31.4013 318.097 31.0698 318.486 30.8331C318.876 30.594 319.338 30.4744 319.871 30.4744C320.313 30.4744 320.705 30.5561 321.046 30.7195C321.389 30.8804 321.663 31.1089 321.866 31.4048C322.07 31.6984 322.186 32.0417 322.214 32.4347H320.986C320.936 32.1719 320.818 31.9529 320.631 31.7777C320.446 31.6001 320.198 31.5114 319.888 31.5114C319.626 31.5114 319.395 31.5824 319.196 31.7244C318.997 31.8641 318.842 32.0653 318.731 32.3281C318.622 32.5909 318.567 32.9058 318.567 33.2727C318.567 33.6444 318.622 33.964 318.731 34.2315C318.84 34.4967 318.992 34.7015 319.189 34.8459C319.388 34.9879 319.621 35.0589 319.888 35.0589C320.078 35.0589 320.247 35.0234 320.396 34.9524C320.548 34.879 320.674 34.7737 320.776 34.6364C320.878 34.4991 320.948 34.3321 320.986 34.1357H322.214C322.184 34.5215 322.07 34.8636 321.873 35.1619C321.677 35.4579 321.409 35.6899 321.071 35.858C320.732 36.0237 320.335 36.1065 319.878 36.1065ZM325.649 36.1065C325.116 36.1065 324.655 35.9893 324.264 35.755C323.874 35.5206 323.571 35.1927 323.355 34.7713C323.142 34.3499 323.036 33.8575 323.036 33.294C323.036 32.7306 323.142 32.237 323.355 31.8132C323.571 31.3894 323.874 31.0604 324.264 30.826C324.655 30.5916 325.116 30.4744 325.649 30.4744C326.182 30.4744 326.643 30.5916 327.034 30.826C327.425 31.0604 327.727 31.3894 327.94 31.8132C328.155 32.237 328.263 32.7306 328.263 33.294C328.263 33.8575 328.155 34.3499 327.94 34.7713C327.727 35.1927 327.425 35.5206 327.034 35.755C326.643 35.9893 326.182 36.1065 325.649 36.1065ZM325.656 35.0767C325.945 35.0767 326.187 34.9974 326.381 34.8388C326.575 34.6778 326.719 34.4624 326.814 34.1925C326.911 33.9226 326.96 33.6219 326.96 33.2905C326.96 32.9567 326.911 32.6548 326.814 32.3849C326.719 32.1127 326.575 31.8961 326.381 31.7351C326.187 31.5741 325.945 31.4936 325.656 31.4936C325.36 31.4936 325.114 31.5741 324.918 31.7351C324.723 31.8961 324.578 32.1127 324.481 32.3849C324.386 32.6548 324.339 32.9567 324.339 33.2905C324.339 33.6219 324.386 33.9226 324.481 34.1925C324.578 34.4624 324.723 34.6778 324.918 34.8388C325.114 34.9974 325.36 35.0767 325.656 35.0767ZM329.354 36V30.5455H330.583V31.4723H330.646C330.76 31.1598 330.948 30.916 331.211 30.7408C331.474 30.5632 331.788 30.4744 332.152 30.4744C332.521 30.4744 332.833 30.5644 333.086 30.7443C333.342 30.9219 333.522 31.1645 333.626 31.4723H333.683C333.803 31.1693 334.007 30.9278 334.294 30.7479C334.582 30.5656 334.924 30.4744 335.32 30.4744C335.822 30.4744 336.231 30.633 336.548 30.9503C336.866 31.2675 337.024 31.7304 337.024 32.3388V36H335.735V32.5376C335.735 32.1991 335.645 31.9517 335.465 31.7955C335.285 31.6368 335.065 31.5575 334.805 31.5575C334.495 31.5575 334.252 31.6546 334.077 31.8487C333.904 32.0405 333.818 32.2902 333.818 32.598V36H332.557V32.4844C332.557 32.2027 332.472 31.9777 332.301 31.8097C332.133 31.6416 331.913 31.5575 331.641 31.5575C331.456 31.5575 331.288 31.6049 331.137 31.6996C330.985 31.7919 330.864 31.9233 330.774 32.0938C330.684 32.2618 330.639 32.4583 330.639 32.6832V36H329.354ZM340.743 36.1065C340.196 36.1065 339.724 35.9929 339.326 35.7656C338.931 35.536 338.627 35.2116 338.414 34.7926C338.201 34.3712 338.094 33.8752 338.094 33.3047C338.094 32.7436 338.201 32.2512 338.414 31.8274C338.629 31.4013 338.93 31.0698 339.316 30.8331C339.702 30.594 340.155 30.4744 340.676 30.4744C341.012 30.4744 341.329 30.5289 341.627 30.6378C341.928 30.7443 342.193 30.91 342.423 31.1349C342.655 31.3598 342.837 31.6463 342.97 31.9943C343.102 32.34 343.169 32.7519 343.169 33.2301V33.6243H338.698V32.7578H341.936C341.934 32.5116 341.881 32.2926 341.777 32.1009C341.672 31.9067 341.527 31.754 341.34 31.6428C341.155 31.5315 340.94 31.4759 340.694 31.4759C340.431 31.4759 340.2 31.5398 340.001 31.6676C339.802 31.7931 339.647 31.9588 339.536 32.1648C339.427 32.3684 339.371 32.5921 339.369 32.8359V33.5923C339.369 33.9096 339.427 34.1818 339.543 34.4091C339.659 34.634 339.821 34.8068 340.029 34.9276C340.238 35.0459 340.482 35.1051 340.761 35.1051C340.948 35.1051 341.117 35.0791 341.269 35.027C341.42 34.9725 341.552 34.8932 341.663 34.7891C341.774 34.6849 341.858 34.5559 341.915 34.402L343.115 34.5369C343.04 34.8542 342.895 35.1312 342.682 35.3679C342.471 35.6023 342.202 35.7846 341.873 35.9148C341.543 36.0426 341.167 36.1065 340.743 36.1065Z" fill="#555770"/>
<path d="M308 60L323.331 48H391" stroke="#282C3F" stroke-width="0.5" stroke-linecap="round" stroke-linejoin="round"/>
<path d="M361.717 132.727H363.33L365.489 137.997H365.574L367.733 132.727H369.345V140H368.081V135.004H368.013L366.004 139.979H365.059L363.049 134.993H362.982V140H361.717V132.727ZM373.138 140.107C372.591 140.107 372.119 139.993 371.721 139.766C371.326 139.536 371.021 139.212 370.808 138.793C370.595 138.371 370.489 137.875 370.489 137.305C370.489 136.744 370.595 136.251 370.808 135.827C371.024 135.401 371.324 135.07 371.71 134.833C372.096 134.594 372.549 134.474 373.07 134.474C373.406 134.474 373.724 134.529 374.022 134.638C374.323 134.744 374.588 134.91 374.817 135.135C375.049 135.36 375.232 135.646 375.364 135.994C375.497 136.34 375.563 136.752 375.563 137.23V137.624H371.092V136.758H374.331C374.329 136.512 374.275 136.293 374.171 136.101C374.067 135.907 373.921 135.754 373.734 135.643C373.55 135.531 373.334 135.476 373.088 135.476C372.825 135.476 372.594 135.54 372.396 135.668C372.197 135.793 372.042 135.959 371.93 136.165C371.821 136.368 371.766 136.592 371.763 136.836V137.592C371.763 137.91 371.821 138.182 371.938 138.409C372.054 138.634 372.216 138.807 372.424 138.928C372.632 139.046 372.876 139.105 373.156 139.105C373.343 139.105 373.512 139.079 373.663 139.027C373.815 138.973 373.946 138.893 374.058 138.789C374.169 138.685 374.253 138.556 374.31 138.402L375.51 138.537C375.434 138.854 375.29 139.131 375.077 139.368C374.866 139.602 374.596 139.785 374.267 139.915C373.938 140.043 373.562 140.107 373.138 140.107ZM378.675 140.096C378.246 140.096 377.863 139.986 377.524 139.766C377.186 139.545 376.918 139.226 376.722 138.807C376.525 138.388 376.427 137.879 376.427 137.28C376.427 136.674 376.526 136.162 376.725 135.746C376.927 135.327 377.198 135.011 377.539 134.798C377.879 134.582 378.259 134.474 378.678 134.474C378.998 134.474 379.261 134.529 379.467 134.638C379.673 134.744 379.836 134.873 379.957 135.025C380.078 135.174 380.171 135.315 380.237 135.447H380.291V132.727H381.58V140H380.316V139.141H380.237C380.171 139.273 380.075 139.414 379.95 139.563C379.824 139.71 379.659 139.835 379.453 139.94C379.247 140.044 378.987 140.096 378.675 140.096ZM379.034 139.041C379.306 139.041 379.538 138.968 379.73 138.821C379.921 138.672 380.067 138.465 380.166 138.2C380.266 137.934 380.316 137.625 380.316 137.273C380.316 136.92 380.266 136.613 380.166 136.353C380.069 136.093 379.925 135.89 379.733 135.746C379.544 135.601 379.311 135.529 379.034 135.529C378.747 135.529 378.508 135.604 378.316 135.753C378.124 135.902 377.98 136.108 377.883 136.371C377.786 136.634 377.737 136.934 377.737 137.273C377.737 137.614 377.786 137.918 377.883 138.185C377.982 138.451 378.128 138.66 378.32 138.814C378.514 138.965 378.752 139.041 379.034 139.041ZM382.95 140V134.545H384.235V140H382.95ZM383.596 133.771C383.392 133.771 383.217 133.704 383.07 133.569C382.924 133.432 382.85 133.267 382.85 133.075C382.85 132.881 382.924 132.717 383.07 132.582C383.217 132.444 383.392 132.376 383.596 132.376C383.802 132.376 383.977 132.444 384.121 132.582C384.268 132.717 384.342 132.881 384.342 133.075C384.342 133.267 384.268 133.432 384.121 133.569C383.977 133.704 383.802 133.771 383.596 133.771ZM389.034 137.706V134.545H390.319V140H389.073V139.031H389.016C388.893 139.336 388.69 139.586 388.409 139.78C388.129 139.974 387.785 140.071 387.375 140.071C387.018 140.071 386.702 139.992 386.427 139.833C386.155 139.672 385.942 139.439 385.788 139.134C385.634 138.826 385.557 138.454 385.557 138.018V134.545H386.843V137.82C386.843 138.165 386.937 138.44 387.127 138.643C387.316 138.847 387.565 138.949 387.872 138.949C388.062 138.949 388.245 138.903 388.423 138.81C388.6 138.718 388.746 138.581 388.86 138.398C388.976 138.214 389.034 137.983 389.034 137.706ZM391.641 140V134.545H392.87V135.472H392.934C393.047 135.16 393.235 134.916 393.498 134.741C393.761 134.563 394.075 134.474 394.439 134.474C394.809 134.474 395.12 134.564 395.373 134.744C395.629 134.922 395.809 135.165 395.913 135.472H395.97C396.091 135.169 396.294 134.928 396.581 134.748C396.869 134.566 397.212 134.474 397.607 134.474C398.109 134.474 398.518 134.633 398.836 134.95C399.153 135.268 399.311 135.73 399.311 136.339V140H398.022V136.538C398.022 136.199 397.932 135.952 397.752 135.795C397.573 135.637 397.352 135.558 397.092 135.558C396.782 135.558 396.539 135.655 396.364 135.849C396.191 136.04 396.105 136.29 396.105 136.598V140H394.844V136.484C394.844 136.203 394.759 135.978 394.588 135.81C394.42 135.642 394.2 135.558 393.928 135.558C393.743 135.558 393.575 135.605 393.424 135.7C393.272 135.792 393.151 135.923 393.061 136.094C392.971 136.262 392.926 136.458 392.926 136.683V140H391.641ZM403.153 140V132.727H405.88C406.439 132.727 406.908 132.824 407.286 133.018C407.668 133.213 407.955 133.485 408.149 133.835C408.346 134.183 408.444 134.589 408.444 135.053C408.444 135.52 408.345 135.924 408.146 136.268C407.949 136.609 407.659 136.873 407.276 137.06C406.892 137.244 406.421 137.337 405.862 137.337H403.92V136.243H405.685C406.012 136.243 406.279 136.198 406.487 136.108C406.696 136.016 406.85 135.882 406.949 135.707C407.051 135.529 407.102 135.311 407.102 135.053C407.102 134.795 407.051 134.575 406.949 134.393C406.847 134.208 406.692 134.068 406.484 133.974C406.276 133.877 406.007 133.828 405.678 133.828H404.47V140H403.153ZM406.91 136.705L408.71 140H407.24L405.472 136.705H406.91ZM409.6 140V134.545H410.885V140H409.6ZM410.246 133.771C410.043 133.771 409.867 133.704 409.721 133.569C409.574 133.432 409.501 133.267 409.501 133.075C409.501 132.881 409.574 132.717 409.721 132.582C409.867 132.444 410.043 132.376 410.246 132.376C410.452 132.376 410.627 132.444 410.772 132.582C410.919 132.717 410.992 132.881 410.992 133.075C410.992 133.267 410.919 133.432 410.772 133.569C410.627 133.704 410.452 133.771 410.246 133.771ZM416.518 135.987L415.347 136.115C415.313 135.997 415.255 135.885 415.173 135.781C415.092 135.677 414.983 135.593 414.846 135.529C414.709 135.465 414.54 135.433 414.342 135.433C414.074 135.433 413.849 135.491 413.667 135.607C413.487 135.723 413.398 135.874 413.401 136.058C413.398 136.217 413.456 136.346 413.575 136.445C413.695 136.545 413.894 136.626 414.171 136.69L415.102 136.889C415.618 137 416.001 137.177 416.252 137.418C416.505 137.66 416.633 137.976 416.636 138.366C416.633 138.71 416.533 139.013 416.334 139.276C416.137 139.536 415.864 139.74 415.513 139.886C415.163 140.033 414.761 140.107 414.306 140.107C413.638 140.107 413.101 139.967 412.694 139.688C412.287 139.406 412.044 139.014 411.966 138.512L413.219 138.391C413.276 138.638 413.397 138.823 413.582 138.949C413.766 139.074 414.007 139.137 414.303 139.137C414.608 139.137 414.853 139.074 415.038 138.949C415.225 138.823 415.318 138.668 415.318 138.484C415.318 138.327 415.258 138.198 415.137 138.097C415.019 137.995 414.834 137.917 414.583 137.862L413.653 137.667C413.129 137.558 412.742 137.375 412.491 137.116C412.241 136.856 412.116 136.527 412.119 136.129C412.116 135.793 412.207 135.502 412.392 135.256C412.579 135.007 412.838 134.815 413.17 134.68C413.504 134.543 413.888 134.474 414.324 134.474C414.963 134.474 415.466 134.611 415.833 134.883C416.202 135.155 416.431 135.523 416.518 135.987ZM418.868 138.288L418.864 136.737H419.07L421.03 134.545H422.532L420.121 137.23H419.855L418.868 138.288ZM417.696 140V132.727H418.981V140H417.696ZM421.119 140L419.343 137.518L420.21 136.612L422.657 140H421.119ZM361.717 156V148.727H366.376V149.832H363.035V151.806H366.057V152.911H363.035V156H361.717ZM367.52 156V150.545H368.805V156H367.52ZM368.166 149.771C367.963 149.771 367.787 149.704 367.641 149.569C367.494 149.432 367.42 149.267 367.42 149.075C367.42 148.881 367.494 148.717 367.641 148.582C367.787 148.444 367.963 148.376 368.166 148.376C368.372 148.376 368.547 148.444 368.692 148.582C368.839 148.717 368.912 148.881 368.912 149.075C368.912 149.267 368.839 149.432 368.692 149.569C368.547 149.704 368.372 149.771 368.166 149.771ZM371.178 150.545L372.279 152.559L373.398 150.545H374.758L373.114 153.273L374.786 156H373.433L372.279 154.036L371.136 156H369.772L371.434 153.273L369.815 150.545H371.178ZM377.962 156.107C377.415 156.107 376.943 155.993 376.545 155.766C376.15 155.536 375.846 155.212 375.632 154.793C375.419 154.371 375.313 153.875 375.313 153.305C375.313 152.744 375.419 152.251 375.632 151.827C375.848 151.401 376.149 151.07 376.534 150.833C376.92 150.594 377.374 150.474 377.895 150.474C378.231 150.474 378.548 150.529 378.846 150.638C379.147 150.744 379.412 150.91 379.642 151.135C379.874 151.36 380.056 151.646 380.189 151.994C380.321 152.34 380.387 152.752 380.387 153.23V153.624H375.917V152.758H379.155C379.153 152.512 379.1 152.293 378.995 152.101C378.891 151.907 378.746 151.754 378.559 151.643C378.374 151.531 378.158 151.476 377.912 151.476C377.65 151.476 377.419 151.54 377.22 151.668C377.021 151.793 376.866 151.959 376.755 152.165C376.646 152.368 376.59 152.592 376.588 152.836V153.592C376.588 153.91 376.646 154.182 376.762 154.409C376.878 154.634 377.04 154.807 377.248 154.928C377.457 155.046 377.7 155.105 377.98 155.105C378.167 155.105 378.336 155.079 378.488 155.027C378.639 154.973 378.77 154.893 378.882 154.789C378.993 154.685 379.077 154.556 379.134 154.402L380.334 154.537C380.258 154.854 380.114 155.131 379.901 155.368C379.69 155.602 379.42 155.785 379.091 155.915C378.762 156.043 378.386 156.107 377.962 156.107ZM383.499 156.096C383.071 156.096 382.687 155.986 382.349 155.766C382.01 155.545 381.742 155.226 381.546 154.807C381.349 154.388 381.251 153.879 381.251 153.28C381.251 152.674 381.351 152.162 381.55 151.746C381.751 151.327 382.022 151.011 382.363 150.798C382.704 150.582 383.084 150.474 383.503 150.474C383.822 150.474 384.085 150.529 384.291 150.638C384.497 150.744 384.66 150.873 384.781 151.025C384.902 151.174 384.995 151.315 385.062 151.447H385.115V148.727H386.404V156H385.14V155.141H385.062C384.995 155.273 384.899 155.414 384.774 155.563C384.648 155.71 384.483 155.835 384.277 155.94C384.071 156.044 383.812 156.096 383.499 156.096ZM383.858 155.041C384.13 155.041 384.362 154.968 384.554 154.821C384.746 154.672 384.891 154.465 384.991 154.2C385.09 153.934 385.14 153.625 385.14 153.273C385.14 152.92 385.09 152.613 384.991 152.353C384.894 152.093 384.749 151.89 384.557 151.746C384.368 151.601 384.135 151.529 383.858 151.529C383.571 151.529 383.332 151.604 383.14 151.753C382.949 151.902 382.804 152.108 382.707 152.371C382.61 152.634 382.562 152.934 382.562 153.273C382.562 153.614 382.61 153.918 382.707 154.185C382.807 154.451 382.952 154.66 383.144 154.814C383.338 154.965 383.576 155.041 383.858 155.041ZM391.629 148.727V156H390.311V148.727H391.629ZM394.284 152.804V156H392.998V150.545H394.227V151.472H394.291C394.416 151.167 394.617 150.924 394.891 150.744C395.168 150.564 395.51 150.474 395.917 150.474C396.294 150.474 396.622 150.555 396.901 150.716C397.183 150.877 397.401 151.11 397.555 151.415C397.711 151.721 397.788 152.091 397.785 152.527V156H396.5V152.726C396.5 152.361 396.405 152.076 396.216 151.87C396.029 151.664 395.769 151.561 395.438 151.561C395.213 151.561 395.013 151.611 394.838 151.71C394.665 151.807 394.529 151.948 394.43 152.133C394.332 152.317 394.284 152.541 394.284 152.804ZM401.471 156.107C400.927 156.107 400.459 155.987 400.069 155.748C399.68 155.509 399.381 155.179 399.17 154.757C398.962 154.333 398.858 153.846 398.858 153.294C398.858 152.74 398.964 152.251 399.177 151.827C399.39 151.401 399.691 151.07 400.079 150.833C400.47 150.594 400.932 150.474 401.464 150.474C401.907 150.474 402.299 150.556 402.64 150.719C402.983 150.88 403.256 151.109 403.46 151.405C403.664 151.698 403.78 152.042 403.808 152.435H402.579C402.53 152.172 402.411 151.953 402.224 151.778C402.04 151.6 401.792 151.511 401.482 151.511C401.219 151.511 400.988 151.582 400.79 151.724C400.591 151.864 400.436 152.065 400.324 152.328C400.215 152.591 400.161 152.906 400.161 153.273C400.161 153.644 400.215 153.964 400.324 154.232C400.433 154.497 400.586 154.701 400.782 154.846C400.981 154.988 401.215 155.059 401.482 155.059C401.671 155.059 401.841 155.023 401.99 154.952C402.141 154.879 402.268 154.774 402.37 154.636C402.472 154.499 402.541 154.332 402.579 154.136H403.808C403.777 154.522 403.664 154.864 403.467 155.162C403.271 155.458 403.003 155.69 402.665 155.858C402.326 156.024 401.928 156.107 401.471 156.107ZM407.243 156.107C406.71 156.107 406.249 155.989 405.858 155.755C405.467 155.521 405.164 155.193 404.949 154.771C404.736 154.35 404.629 153.857 404.629 153.294C404.629 152.731 404.736 152.237 404.949 151.813C405.164 151.389 405.467 151.06 405.858 150.826C406.249 150.592 406.71 150.474 407.243 150.474C407.776 150.474 408.237 150.592 408.628 150.826C409.018 151.06 409.32 151.389 409.533 151.813C409.749 152.237 409.857 152.731 409.857 153.294C409.857 153.857 409.749 154.35 409.533 154.771C409.32 155.193 409.018 155.521 408.628 155.755C408.237 155.989 407.776 156.107 407.243 156.107ZM407.25 155.077C407.539 155.077 407.78 154.997 407.974 154.839C408.169 154.678 408.313 154.462 408.408 154.192C408.505 153.923 408.553 153.622 408.553 153.29C408.553 152.957 408.505 152.655 408.408 152.385C408.313 152.113 408.169 151.896 407.974 151.735C407.78 151.574 407.539 151.494 407.25 151.494C406.954 151.494 406.708 151.574 406.511 151.735C406.317 151.896 406.172 152.113 406.075 152.385C405.98 152.655 405.933 152.957 405.933 153.29C405.933 153.622 405.98 153.923 406.075 154.192C406.172 154.462 406.317 154.678 406.511 154.839C406.708 154.997 406.954 155.077 407.25 155.077ZM410.948 156V150.545H412.176V151.472H412.24C412.354 151.16 412.542 150.916 412.805 150.741C413.068 150.563 413.381 150.474 413.746 150.474C414.115 150.474 414.427 150.564 414.68 150.744C414.936 150.922 415.115 151.165 415.22 151.472H415.276C415.397 151.169 415.601 150.928 415.887 150.748C416.176 150.566 416.518 150.474 416.914 150.474C417.415 150.474 417.825 150.633 418.142 150.95C418.459 151.268 418.618 151.73 418.618 152.339V156H417.329V152.538C417.329 152.199 417.239 151.952 417.059 151.795C416.879 151.637 416.659 151.558 416.399 151.558C416.088 151.558 415.846 151.655 415.671 151.849C415.498 152.04 415.411 152.29 415.411 152.598V156H414.151V152.484C414.151 152.203 414.066 151.978 413.895 151.81C413.727 151.642 413.507 151.558 413.235 151.558C413.05 151.558 412.882 151.605 412.73 151.7C412.579 151.792 412.458 151.923 412.368 152.094C412.278 152.262 412.233 152.458 412.233 152.683V156H410.948ZM422.337 156.107C421.79 156.107 421.318 155.993 420.92 155.766C420.525 155.536 420.221 155.212 420.007 154.793C419.794 154.371 419.688 153.875 419.688 153.305C419.688 152.744 419.794 152.251 420.007 151.827C420.223 151.401 420.524 151.07 420.909 150.833C421.295 150.594 421.749 150.474 422.27 150.474C422.606 150.474 422.923 150.529 423.221 150.638C423.522 150.744 423.787 150.91 424.017 151.135C424.249 151.36 424.431 151.646 424.564 151.994C424.696 152.34 424.762 152.752 424.762 153.23V153.624H420.292V152.758H423.53C423.528 152.512 423.475 152.293 423.37 152.101C423.266 151.907 423.121 151.754 422.934 151.643C422.749 151.531 422.533 151.476 422.287 151.476C422.025 151.476 421.794 151.54 421.595 151.668C421.396 151.793 421.241 151.959 421.13 152.165C421.021 152.368 420.965 152.592 420.963 152.836V153.592C420.963 153.91 421.021 154.182 421.137 154.409C421.253 154.634 421.415 154.807 421.623 154.928C421.832 155.046 422.075 155.105 422.355 155.105C422.542 155.105 422.711 155.079 422.863 155.027C423.014 154.973 423.145 154.893 423.257 154.789C423.368 154.685 423.452 154.556 423.509 154.402L424.709 154.537C424.633 154.854 424.489 155.131 424.276 155.368C424.065 155.602 423.795 155.785 423.466 155.915C423.137 156.043 422.761 156.107 422.337 156.107Z" fill="#555770"/>
<path d="M355 168H409.995H429" stroke="#282C3F" stroke-width="0.5" stroke-linecap="round" stroke-linejoin="round"/>
<path d="M328.302 250.727H329.619V255.479C329.619 256 329.496 256.458 329.25 256.853C329.006 257.248 328.663 257.557 328.22 257.78C327.777 258 327.26 258.11 326.668 258.11C326.074 258.11 325.556 258 325.113 257.78C324.67 257.557 324.327 257.248 324.083 256.853C323.839 256.458 323.717 256 323.717 255.479V250.727H325.035V255.369C325.035 255.672 325.101 255.942 325.234 256.178C325.369 256.415 325.558 256.601 325.802 256.736C326.046 256.868 326.335 256.935 326.668 256.935C327.002 256.935 327.291 256.868 327.535 256.736C327.781 256.601 327.97 256.415 328.103 256.178C328.236 255.942 328.302 255.672 328.302 255.369V250.727ZM332.28 254.804V258H330.994V252.545H332.223V253.472H332.287C332.413 253.167 332.613 252.924 332.887 252.744C333.164 252.564 333.506 252.474 333.914 252.474C334.29 252.474 334.618 252.555 334.897 252.716C335.179 252.877 335.397 253.11 335.551 253.415C335.707 253.721 335.784 254.091 335.781 254.527V258H334.496V254.726C334.496 254.361 334.401 254.076 334.212 253.87C334.025 253.664 333.766 253.561 333.434 253.561C333.209 253.561 333.009 253.611 332.834 253.71C332.661 253.807 332.525 253.948 332.426 254.133C332.329 254.317 332.28 254.541 332.28 254.804ZM338.374 250.727V258H337.088V250.727H338.374ZM339.696 258V252.545H340.981V258H339.696ZM340.342 251.771C340.138 251.771 339.963 251.704 339.816 251.569C339.67 251.432 339.596 251.267 339.596 251.075C339.596 250.881 339.67 250.717 339.816 250.582C339.963 250.444 340.138 250.376 340.342 250.376C340.548 250.376 340.723 250.444 340.868 250.582C341.014 250.717 341.088 250.881 341.088 251.075C341.088 251.267 341.014 251.432 340.868 251.569C340.723 251.704 340.548 251.771 340.342 251.771ZM346.614 253.987L345.442 254.115C345.409 253.997 345.351 253.885 345.268 253.781C345.188 253.677 345.079 253.593 344.942 253.529C344.804 253.465 344.636 253.433 344.437 253.433C344.17 253.433 343.945 253.491 343.763 253.607C343.583 253.723 343.494 253.874 343.496 254.058C343.494 254.217 343.552 254.346 343.67 254.445C343.791 254.545 343.99 254.626 344.267 254.69L345.197 254.889C345.713 255 346.097 255.177 346.348 255.418C346.601 255.66 346.729 255.976 346.731 256.366C346.729 256.71 346.628 257.013 346.43 257.276C346.233 257.536 345.96 257.74 345.609 257.886C345.259 258.033 344.856 258.107 344.402 258.107C343.734 258.107 343.197 257.967 342.79 257.688C342.382 257.406 342.14 257.014 342.062 256.512L343.315 256.391C343.372 256.638 343.493 256.823 343.677 256.949C343.862 257.074 344.102 257.137 344.398 257.137C344.704 257.137 344.949 257.074 345.133 256.949C345.32 256.823 345.414 256.668 345.414 256.484C345.414 256.327 345.354 256.198 345.233 256.097C345.114 255.995 344.93 255.917 344.679 255.862L343.748 255.667C343.225 255.558 342.838 255.375 342.587 255.116C342.336 254.856 342.212 254.527 342.214 254.129C342.212 253.793 342.303 253.502 342.488 253.256C342.675 253.007 342.934 252.815 343.265 252.68C343.599 252.543 343.984 252.474 344.42 252.474C345.059 252.474 345.562 252.611 345.929 252.883C346.298 253.155 346.527 253.523 346.614 253.987ZM350.515 252.545V253.54H347.379V252.545H350.515ZM348.154 251.239H349.439V256.359C349.439 256.532 349.465 256.665 349.517 256.757C349.572 256.847 349.643 256.909 349.73 256.942C349.818 256.975 349.915 256.991 350.021 256.991C350.102 256.991 350.175 256.986 350.242 256.974C350.31 256.962 350.362 256.951 350.398 256.942L350.615 257.947C350.546 257.97 350.448 257.996 350.32 258.025C350.194 258.053 350.04 258.07 349.858 258.075C349.536 258.084 349.246 258.036 348.988 257.929C348.73 257.82 348.525 257.652 348.374 257.425C348.225 257.197 348.151 256.913 348.154 256.572V251.239ZM353.946 258.107C353.4 258.107 352.927 257.993 352.529 257.766C352.134 257.536 351.83 257.212 351.617 256.793C351.404 256.371 351.297 255.875 351.297 255.305C351.297 254.744 351.404 254.251 351.617 253.827C351.832 253.401 352.133 253.07 352.519 252.833C352.905 252.594 353.358 252.474 353.879 252.474C354.215 252.474 354.532 252.529 354.831 252.638C355.131 252.744 355.396 252.91 355.626 253.135C355.858 253.36 356.04 253.646 356.173 253.994C356.306 254.34 356.372 254.752 356.372 255.23V255.624H351.901V254.758H355.14C355.137 254.512 355.084 254.293 354.98 254.101C354.876 253.907 354.73 253.754 354.543 253.643C354.358 253.531 354.143 253.476 353.897 253.476C353.634 253.476 353.403 253.54 353.204 253.668C353.005 253.793 352.85 253.959 352.739 254.165C352.63 254.368 352.574 254.592 352.572 254.836V255.592C352.572 255.91 352.63 256.182 352.746 256.409C352.862 256.634 353.024 256.807 353.233 256.928C353.441 257.046 353.685 257.105 353.964 257.105C354.151 257.105 354.32 257.079 354.472 257.027C354.623 256.973 354.755 256.893 354.866 256.789C354.977 256.685 355.061 256.556 355.118 256.402L356.319 256.537C356.243 256.854 356.098 257.131 355.885 257.368C355.675 257.602 355.405 257.785 355.076 257.915C354.747 258.043 354.37 258.107 353.946 258.107ZM359.483 258.096C359.055 258.096 358.671 257.986 358.333 257.766C357.994 257.545 357.727 257.226 357.53 256.807C357.334 256.388 357.236 255.879 357.236 255.28C357.236 254.674 357.335 254.162 357.534 253.746C357.735 253.327 358.006 253.011 358.347 252.798C358.688 252.582 359.068 252.474 359.487 252.474C359.807 252.474 360.069 252.529 360.275 252.638C360.481 252.744 360.645 252.873 360.765 253.025C360.886 253.174 360.98 253.315 361.046 253.447H361.099V250.727H362.388V258H361.124V257.141H361.046C360.98 257.273 360.884 257.414 360.758 257.563C360.633 257.71 360.467 257.835 360.261 257.94C360.055 258.044 359.796 258.096 359.483 258.096ZM359.842 257.041C360.114 257.041 360.346 256.968 360.538 256.821C360.73 256.672 360.876 256.465 360.975 256.2C361.074 255.934 361.124 255.625 361.124 255.273C361.124 254.92 361.074 254.613 360.975 254.353C360.878 254.093 360.733 253.89 360.542 253.746C360.352 253.601 360.119 253.529 359.842 253.529C359.556 253.529 359.317 253.604 359.125 253.753C358.933 253.902 358.789 254.108 358.692 254.371C358.595 254.634 358.546 254.934 358.546 255.273C358.546 255.614 358.595 255.918 358.692 256.185C358.791 256.451 358.937 256.66 359.128 256.814C359.323 256.965 359.56 257.041 359.842 257.041ZM323.717 274V266.727H328.447V267.832H325.035V269.806H328.202V270.911H325.035V272.896H328.476V274H323.717ZM333.375 276.045V273.141H333.321C333.255 273.273 333.159 273.414 333.034 273.563C332.908 273.71 332.743 273.835 332.537 273.94C332.331 274.044 332.071 274.096 331.759 274.096C331.33 274.096 330.947 273.986 330.608 273.766C330.27 273.545 330.002 273.226 329.806 272.807C329.609 272.388 329.511 271.879 329.511 271.28C329.511 270.674 329.61 270.162 329.809 269.746C330.011 269.327 330.282 269.011 330.623 268.798C330.963 268.582 331.343 268.474 331.762 268.474C332.082 268.474 332.345 268.529 332.551 268.638C332.757 268.744 332.92 268.873 333.041 269.025C333.162 269.174 333.255 269.315 333.321 269.447H333.4V268.545H334.664V276.045H333.375ZM332.118 273.041C332.39 273.041 332.622 272.968 332.814 272.821C333.005 272.672 333.151 272.465 333.25 272.2C333.35 271.934 333.4 271.625 333.4 271.273C333.4 270.92 333.35 270.613 333.25 270.353C333.153 270.093 333.009 269.89 332.817 269.746C332.628 269.601 332.395 269.529 332.118 269.529C331.831 269.529 331.592 269.604 331.4 269.753C331.208 269.902 331.064 270.108 330.967 270.371C330.87 270.634 330.821 270.934 330.821 271.273C330.821 271.614 330.87 271.918 330.967 272.185C331.066 272.451 331.212 272.66 331.404 272.814C331.598 272.965 331.836 273.041 332.118 273.041ZM339.461 271.706V268.545H340.747V274H339.5V273.031H339.444C339.32 273.336 339.118 273.586 338.836 273.78C338.557 273.974 338.212 274.071 337.803 274.071C337.445 274.071 337.129 273.992 336.855 273.833C336.583 273.672 336.369 273.439 336.216 273.134C336.062 272.826 335.985 272.454 335.985 272.018V268.545H337.27V271.82C337.27 272.165 337.365 272.44 337.554 272.643C337.744 272.847 337.992 272.949 338.3 272.949C338.489 272.949 338.673 272.903 338.85 272.81C339.028 272.718 339.174 272.581 339.287 272.398C339.403 272.214 339.461 271.983 339.461 271.706ZM342.069 274V268.545H343.354V274H342.069ZM342.715 267.771C342.511 267.771 342.336 267.704 342.189 267.569C342.043 267.432 341.969 267.267 341.969 267.075C341.969 266.881 342.043 266.717 342.189 266.582C342.336 266.444 342.511 266.376 342.715 266.376C342.921 266.376 343.096 266.444 343.241 266.582C343.387 266.717 343.461 266.881 343.461 267.075C343.461 267.267 343.387 267.432 343.241 267.569C343.096 267.704 342.921 267.771 342.715 267.771ZM347.4 268.545V269.54H344.264V268.545H347.4ZM345.038 267.239H346.324V272.359C346.324 272.532 346.35 272.665 346.402 272.757C346.456 272.847 346.527 272.909 346.615 272.942C346.703 272.975 346.8 272.991 346.906 272.991C346.987 272.991 347.06 272.986 347.126 272.974C347.195 272.962 347.247 272.951 347.283 272.942L347.499 273.947C347.431 273.97 347.332 273.996 347.205 274.025C347.079 274.053 346.925 274.07 346.743 274.075C346.421 274.084 346.131 274.036 345.873 273.929C345.615 273.82 345.41 273.652 345.259 273.425C345.109 273.197 345.036 272.913 345.038 272.572V267.239ZM349.274 276.045C349.099 276.045 348.937 276.031 348.787 276.003C348.641 275.977 348.523 275.946 348.436 275.911L348.734 274.909C348.921 274.964 349.088 274.99 349.235 274.987C349.382 274.985 349.511 274.939 349.622 274.849C349.736 274.761 349.831 274.614 349.91 274.408L350.02 274.114L348.042 268.545H349.405L350.662 272.665H350.719L351.98 268.545H353.347L351.163 274.661C351.061 274.949 350.926 275.197 350.758 275.403C350.59 275.611 350.384 275.77 350.14 275.879C349.899 275.99 349.61 276.045 349.274 276.045Z" fill="#555770"/>
<path d="M297 272L312.331 284H380" stroke="#282C3F" stroke-width="0.5" stroke-linecap="round" stroke-linejoin="round"/>
</g>
</svg>
