<svg width="20" height="20" viewBox="0 0 20 20" fill="none" xmlns="http://www.w3.org/2000/svg">
<mask id="mask0_9530_102213" style="mask-type:alpha" maskUnits="userSpaceOnUse" x="0" y="0" width="20" height="20">
<rect y="20" width="20" height="20" transform="rotate(-90 0 20)" fill="#C4C4C4"/>
</mask>
<g mask="url(#mask0_9530_102213)">
<mask id="mask1_9530_102213" style="mask-type:alpha" maskUnits="userSpaceOnUse" x="0" y="-1" width="20" height="21">
<rect y="-0.833313" width="20" height="20" fill="#C4C4C4"/>
</mask>
<g mask="url(#mask1_9530_102213)">
<path d="M9.54584 7.10472L9.68265 7.31396C9.58148 7.38012 9.26269 7.54356 8.86722 7.7408C8.46251 7.94264 7.95567 8.19043 7.46021 8.43089C6.9646 8.67142 6.47978 8.90492 6.1189 9.07826C5.93845 9.16493 5.78896 9.23658 5.68457 9.28657L5.56358 9.34447L5.53176 9.35969L5.52799 9.36149L3.92614 10.2554L2.91444 11.0556L4.29451 12.9737L4.41349 13.0194C4.81082 13.1608 5.26752 13.1555 5.69285 13.0031L5.69342 13.0029C6.02026 12.8867 6.3673 12.7655 6.63247 12.6734C6.76509 12.6273 6.87731 12.5885 6.95639 12.5612L7.04858 12.5294L7.07305 12.521L7.07742 12.5195L7.72138 12.2729L8.0906 12.1315L8.06003 12.5257C8.05931 12.535 8.05945 12.5424 8.06046 12.5639L8.06057 12.5661C8.06159 12.5876 8.06321 12.622 8.05995 12.6642L8.05938 12.6715L8.05838 12.6788C8.05178 12.727 8.0484 12.7546 8.04839 12.7779C8.04838 12.7889 8.04924 12.7945 8.04964 12.7966L8.05398 12.8057L8.05753 12.8157C8.06004 12.8183 8.06722 12.824 8.08439 12.8306C8.11811 12.8434 8.16702 12.8488 8.21441 12.8419L8.22651 12.8401L8.23872 12.8395C8.49023 12.8277 8.74887 12.6575 8.85559 12.4296L8.85547 12.4296L8.85907 12.4225C8.96826 12.2074 8.95142 11.9297 8.81069 11.7228L8.75668 11.6434L8.76972 11.5483C8.78266 11.4538 8.78612 11.4102 8.775 11.3656L8.77492 11.3656L8.77353 11.3594C8.72336 11.1337 8.53335 10.9367 8.31147 10.7839C8.20534 10.7109 8.10225 10.6551 8.0255 10.6176C7.98735 10.599 7.95628 10.5852 7.93535 10.5762C7.9249 10.5718 7.91702 10.5685 7.91209 10.5665L7.90699 10.5645L7.90663 10.5644L7.90651 10.5643L7.9064 10.5643L7.90626 10.5642L7.90619 10.5642L7.4142 10.3771L7.87071 10.1141L8.08266 9.99198L8.1278 9.96597L8.17956 9.96016L8.20056 10.1472C8.20056 10.1472 8.20056 10.1472 8.20056 10.1472C8.1796 9.96016 8.17976 9.96014 8.17993 9.96012L8.18032 9.96008L8.18115 9.95999L8.18303 9.95979L8.18764 9.95936L8.20026 9.95841C8.21014 9.95778 8.22296 9.95721 8.23849 9.95704C8.26954 9.95669 8.31153 9.9579 8.36264 9.96333C8.46498 9.97419 8.6038 10.002 8.76419 10.0677C9.08833 10.2007 9.48337 10.4817 9.84095 11.0551L9.84118 11.0549L9.84693 11.0652C9.90079 11.1613 10.0043 11.241 10.1299 11.289C10.1997 11.3026 10.2424 11.2965 10.2685 11.2838C10.2906 11.2683 10.2981 11.2588 10.3 11.2559C10.3009 11.2517 10.3023 11.2373 10.2958 11.206C10.2727 11.0953 10.1819 10.9095 9.97467 10.5733L9.97467 10.5733L9.97383 10.5719C9.78167 10.2556 9.54489 9.98315 9.30003 9.78738C9.05213 9.58917 8.81362 9.48332 8.61656 9.46804C8.3542 9.44769 8.17266 9.43757 8.05763 9.43253C8.00012 9.43002 7.95928 9.42878 7.9333 9.42817L7.90529 9.42764L7.89925 9.42758L7.89829 9.42757L7.89825 9.42757L7.89821 9.42757L7.89814 9.42757L7.89806 9.42757L7.0359 9.42702L7.76488 8.96625L7.89845 9.17757L7.7649 8.96623L7.76496 8.96619L7.76521 8.96604L7.76622 8.9654L7.77019 8.96289L7.78572 8.95307L7.84476 8.91574L8.05642 8.78187C8.2321 8.67072 8.46756 8.52168 8.70669 8.37011C9.18926 8.06424 9.67557 7.75512 9.72947 7.718L9.72946 7.71799L9.73153 7.71659C9.86201 7.62864 9.95391 7.51831 10.0002 7.41967C10.046 7.32203 10.0355 7.26677 10.0252 7.24529C10.0124 7.22541 9.99559 7.21309 9.96939 7.20923C9.93608 7.20432 9.84591 7.20756 9.68234 7.31417L9.54584 7.10472ZM9.54584 7.10472C9.93307 6.85235 10.153 6.97065 10.2426 7.12146M9.54584 7.10472C9.20344 7.3286 5.41306 9.13933 5.41306 9.13933L10.2426 7.12146M9.87127 7.92389C9.78687 7.98203 8.8172 8.5963 8.26949 8.94289L9.87127 7.92389ZM9.87127 7.92389C10.1974 7.70408 10.3687 7.34971 10.2426 7.12146M9.87127 7.92389L10.2426 7.12146M8.05639 12.8141C8.05632 12.8141 8.05657 12.8146 8.05734 12.8154L8.05639 12.8141ZM10.3005 11.255C10.3005 11.255 10.3004 11.2552 10.3002 11.2556C10.3004 11.2552 10.3005 11.255 10.3005 11.255ZM10.2999 11.2562C10.2996 11.2569 10.2995 11.2573 10.2996 11.2573L10.2999 11.2562Z" fill="white" stroke="#00357C" stroke-width="0.5"/>
<path d="M7.95848 10.3228C7.96254 10.3391 8.12152 10.2129 8.39859 10.213C8.53712 10.2131 8.6919 10.2784 8.83852 10.3804C8.9892 10.4986 9.11541 10.6576 9.24568 10.8329C9.37595 11.0082 9.48992 11.1875 9.62836 11.3261C9.76681 11.4648 9.92566 11.5464 10.0764 11.5953C10.223 11.628 10.3494 11.5792 10.4228 11.5263C10.4798 11.4774 10.5002 11.4204 10.5002 11.4204C10.5002 11.4204 10.4717 11.4448 10.3983 11.4978C10.3413 11.5466 10.2271 11.5751 10.0968 11.5383C9.96643 11.5016 9.82388 11.4159 9.68544 11.2773C9.55106 11.155 9.43709 10.9756 9.32312 10.7963C9.19284 10.621 9.06258 10.4457 8.8956 10.3315C8.74492 10.2133 8.55753 10.1561 8.4027 10.1601C8.24786 10.1641 8.13782 10.2088 8.06039 10.2454C7.98295 10.2821 7.95441 10.3065 7.95848 10.3228Z" fill="#00357C"/>
<path d="M9.986 7.82637C9.98193 7.81007 9.83519 7.91591 9.611 8.05838C9.35828 8.22527 9.06072 8.42065 8.73463 8.64047C8.40853 8.86028 8.09061 9.04343 7.85419 9.20626C7.63 9.34872 7.47919 9.43826 7.49956 9.4505C7.50362 9.4668 7.6585 9.39356 7.90305 9.26333C8.1476 9.1331 8.46145 8.93365 8.80385 8.70978C9.14624 8.4859 9.45604 8.27015 9.67616 8.11138C9.87591 7.94038 10.0064 7.83861 9.986 7.82637Z" fill="#00357C"/>
<path opacity="0.2" d="M5.83813 11.9593C5.83813 11.9593 5.81781 11.8778 5.72416 11.78C5.63051 11.6821 5.46353 11.5679 5.23537 11.5556L5.25569 11.6371C5.32906 11.5842 5.39837 11.5149 5.48398 11.4416C5.88354 11.0304 6.02644 10.5619 6.01014 10.566C5.98978 10.5537 5.81838 10.9774 5.41883 11.3886C5.34952 11.4579 5.28021 11.5271 5.20683 11.58L5.13752 11.6492L5.24346 11.6574C5.43902 11.6779 5.60193 11.7758 5.70375 11.837C5.78928 11.9023 5.82183 11.9634 5.83813 11.9593Z" fill="#3E7BFA"/>
<path d="M9.01511 9.97297C8.99475 9.96073 8.91316 10.1196 8.94563 10.3193C8.9781 10.5189 9.11248 10.6412 9.12472 10.6209C9.13695 10.6005 9.05554 10.4823 9.02713 10.2989C8.99873 10.1156 9.03141 9.9689 9.01511 9.97297Z" fill="#00357C"/>
<path d="M-8.41789 7.96496L-8.6085 8.12672L-8.60857 8.12664L-8.60888 8.12628L-8.61011 8.12483L-8.61506 8.11901L-8.63454 8.09611L-8.7094 8.00841C-8.7743 7.93251 -8.86788 7.82337 -8.98249 7.69057C-9.21176 7.4249 -9.52494 7.06482 -9.86081 6.68686C-10.541 5.92147 -11.2896 5.11112 -11.6347 4.83853L-11.6352 4.83819C-12.1475 4.43167 -12.5534 4.27867 -12.8178 4.22307C-12.8873 4.20847 -12.9476 4.20045 -12.9981 4.19641L-13.1349 11.3371C-13.0897 11.3831 -13.0244 11.4493 -12.9414 11.533C-12.7702 11.7057 -12.5238 11.9529 -12.2229 12.2507C-11.621 12.8464 -10.802 13.6439 -9.93259 14.4522C-9.06251 15.2611 -8.14508 16.0778 -7.34575 16.7132C-6.94589 17.031 -6.57914 17.3007 -6.26499 17.5006C-5.94411 17.7049 -5.7011 17.8212 -5.54335 17.8556L-5.54225 17.8559C-5.20164 17.9318 -4.6405 17.8679 -3.93275 17.6901C-3.23759 17.5154 -2.44201 17.2421 -1.65521 16.9373C-0.0821946 16.3279 1.43325 15.6012 1.9965 15.315L1.99725 15.3146C2.6366 14.9924 3.36013 14.5843 3.92574 14.2555C4.20812 14.0913 4.45029 13.9474 4.62181 13.8446C4.656 13.8241 4.68737 13.8052 4.71569 13.7881L3.34281 10.2141L2.45408 10.4633L2.44446 10.4667L2.39182 10.4856L2.19192 10.5569C2.01956 10.6183 1.77291 10.7056 1.47555 10.8098C0.880946 11.0182 0.0830839 11.2941 -0.729141 11.5639C-1.54065 11.8334 -2.36946 12.0977 -3.02494 12.2824C-3.35204 12.3746 -3.64069 12.4483 -3.86434 12.4927C-3.97565 12.5148 -4.07669 12.5308 -4.16118 12.5374C-4.20339 12.5407 -4.24636 12.5421 -4.28719 12.5395C-4.32437 12.5371 -4.37823 12.5305 -4.43175 12.5066C-4.4917 12.4799 -4.55384 12.4338 -4.60601 12.392C-4.66367 12.3457 -4.7305 12.287 -4.80385 12.2192C-4.95084 12.0833 -5.1332 11.9028 -5.33647 11.6947C-5.7435 11.2781 -6.2426 10.7429 -6.72616 10.2156C-7.21004 9.688 -7.67973 9.1668 -8.02836 8.77761C-8.2027 8.58299 -8.34683 8.42131 -8.4474 8.30826L-8.56392 8.17711L-8.59456 8.14255L-8.60242 8.13367L-8.60443 8.13141L-8.60494 8.13084L-8.60507 8.13069L-8.41789 7.96496ZM-8.41789 7.96496L-8.60848 8.12674L-8.60515 8.13067L-8.41789 7.96496Z" fill="white" stroke="#00357C" stroke-width="0.5"/>
<path d="M12.7019 6.65984L12.5309 6.84215C12.619 6.92486 12.9046 7.14118 13.2598 7.40409C13.6233 7.67314 14.0794 8.00518 14.5256 8.32803C14.9719 8.65096 15.4088 8.9651 15.7341 9.19847C15.8968 9.31517 16.0315 9.41169 16.1257 9.47904L16.2348 9.55708L16.2635 9.57759L16.2669 9.58001L17.6891 10.7385L18.5465 11.7022L16.8543 13.3516L16.7292 13.3759C16.3134 13.4462 15.8646 13.3616 15.4721 13.1377L15.4716 13.1374C15.1699 12.9662 14.8492 12.7865 14.6041 12.6498C14.4814 12.5814 14.3777 12.5237 14.3045 12.483L14.2193 12.4357L14.1966 12.4232L14.1926 12.4209L13.6012 12.0663L13.2622 11.8629L13.2238 12.2564C13.2229 12.2657 13.2215 12.273 13.2168 12.294L13.2163 12.2962C13.2115 12.3172 13.204 12.3508 13.1999 12.3929L13.1991 12.4002L13.1989 12.4075C13.197 12.4562 13.1955 12.4839 13.1915 12.5069C13.1896 12.5177 13.1878 12.5231 13.187 12.525L13.1811 12.5333L13.1759 12.5425C13.173 12.5446 13.1649 12.549 13.1469 12.5525C13.1115 12.5593 13.0624 12.5561 13.0169 12.541L13.0053 12.5372L12.9933 12.5345C12.7477 12.4792 12.5226 12.2667 12.457 12.0237L12.4572 12.0237L12.4548 12.0161C12.3847 11.7853 12.4495 11.5147 12.624 11.3354L12.691 11.2666L12.6946 11.1706C12.6983 11.0754 12.7025 11.0319 12.7212 10.9899L12.7212 10.9899L12.7237 10.984C12.8123 10.7704 13.0336 10.6094 13.2787 10.4975C13.3959 10.444 13.5071 10.407 13.5892 10.3834C13.63 10.3717 13.663 10.3634 13.6851 10.3583C13.6962 10.3557 13.7045 10.3539 13.7097 10.3528L13.7151 10.3516L13.7155 10.3516L13.7156 10.3515L13.7157 10.3515L13.7159 10.3515L13.7159 10.3515L14.2329 10.2526L13.829 9.91436L13.6415 9.75731L13.6016 9.72386L13.5516 9.70915L13.4985 9.88968C13.4985 9.88968 13.4984 9.88968 13.4984 9.88968C13.5516 9.70914 13.5514 9.70909 13.5512 9.70904L13.5509 9.70894L13.5501 9.7087L13.5483 9.70819L13.5438 9.70696L13.5315 9.70383C13.5219 9.70149 13.5094 9.69871 13.4941 9.69584C13.4636 9.6901 13.422 9.68401 13.3708 9.68048C13.2681 9.67341 13.1266 9.67664 12.9572 9.71357C12.6149 9.78819 12.177 9.99637 11.7253 10.4989L11.7251 10.4987L11.7177 10.5079C11.6479 10.5932 11.5321 10.6536 11.4002 10.6791C11.329 10.6804 11.288 10.667 11.2646 10.6499C11.2455 10.6308 11.2398 10.6202 11.2384 10.617C11.2383 10.6127 11.2393 10.5983 11.2512 10.5685C11.2932 10.4635 11.4148 10.2964 11.6773 10.0012L11.6773 10.0012L11.6784 10C11.9225 9.72192 12.203 9.4947 12.4782 9.34442C12.7567 9.19228 13.01 9.12945 13.2067 9.14862C13.4686 9.17413 13.6491 9.19569 13.7633 9.21071C13.8204 9.21822 13.8608 9.22409 13.8865 9.228L13.9142 9.23234L13.9201 9.23333L13.9211 9.23349L13.9211 9.2335L13.9212 9.23351L13.9212 9.23352L13.9213 9.23353L14.7705 9.3827L14.1326 8.80234L13.9643 8.98726L14.1326 8.80233L14.1325 8.80228L14.1323 8.80208L14.1314 8.80128L14.1279 8.79811L14.1143 8.78575L14.0627 8.73874L13.8775 8.57014C13.7238 8.43017 13.5178 8.24251 13.3086 8.05172C12.8865 7.6667 12.4612 7.27783 12.4146 7.23191L12.4146 7.23191L12.4128 7.23017C12.2996 7.1209 12.2282 6.99628 12.1998 6.89111C12.1717 6.787 12.1916 6.7344 12.2054 6.71502C12.2215 6.69768 12.2402 6.68846 12.2667 6.68921C12.3003 6.69016 12.3886 6.70901 12.5311 6.8424L12.7019 6.65984ZM12.7019 6.65984C12.3644 6.34406 12.1273 6.42237 12.0129 6.55534M12.7019 6.65984C13.0002 6.93977 16.4186 9.38119 16.4186 9.38119L12.0129 6.55534M12.2392 7.41006C12.3122 7.48196 13.1605 8.25529 13.6397 8.69171L12.2392 7.41006ZM12.2392 7.41006C11.9562 7.13696 11.849 6.75821 12.0129 6.55534M12.2392 7.41006L12.0129 6.55534M13.1773 12.5411C13.1774 12.5411 13.1771 12.5416 13.1762 12.5423L13.1773 12.5411ZM11.238 10.616C11.238 10.616 11.2381 10.6162 11.2383 10.6167C11.2381 10.6162 11.238 10.616 11.238 10.616ZM11.2384 10.6173C11.2386 10.6181 11.2386 10.6185 11.2386 10.6185L11.2384 10.6173Z" fill="white" stroke="#00357C" stroke-width="0.5"/>
<path d="M13.7058 10.1045C13.6989 10.1199 13.5643 9.96795 13.2914 9.92001C13.1549 9.89605 12.9912 9.93347 12.8291 10.0084C12.6602 10.0987 12.5083 10.2334 12.3495 10.3834C12.1908 10.5334 12.0474 10.6902 11.887 10.8027C11.7266 10.9151 11.556 10.9679 11.399 10.99C11.2489 10.9967 11.133 10.9267 11.0699 10.8618C11.0222 10.8038 11.012 10.7441 11.012 10.7441C11.012 10.7441 11.0359 10.7731 11.0989 10.838C11.1467 10.896 11.2541 10.9438 11.3889 10.9303C11.5236 10.9167 11.6789 10.8571 11.8393 10.7446C11.9929 10.6475 12.1362 10.4907 12.2796 10.3338C12.4384 10.1838 12.5971 10.0338 12.7814 9.95038C12.9503 9.86009 13.1448 9.83634 13.2965 9.86714C13.4483 9.89794 13.5489 9.96112 13.6188 10.0106C13.6887 10.0601 13.7126 10.0892 13.7058 10.1045Z" fill="#00357C"/>
<path d="M12.1425 7.29396C12.1493 7.27861 12.2755 7.40833 12.4715 7.58756C12.6914 7.7958 12.9505 8.03989 13.2335 8.31299C13.5165 8.58609 13.7978 8.82166 14.0023 9.02307C14.1983 9.2023 14.3313 9.31667 14.3091 9.32518C14.3023 9.34053 14.1625 9.24151 13.9443 9.07079C13.7261 8.90008 13.4516 8.64916 13.1533 8.36923C12.855 8.08929 12.5873 7.82302 12.3981 7.62845C12.2311 7.42536 12.1203 7.30247 12.1425 7.29396Z" fill="#00357C"/>
<path d="M13.7307 10.7953C13.7307 10.7953 13.6864 10.8124 13.613 10.8532C13.5396 10.8941 13.4065 10.9452 13.3604 11.0902C13.3331 11.1516 13.3518 11.2334 13.4148 11.2983C13.4779 11.3632 13.5478 11.4127 13.6331 11.469C13.7183 11.5254 13.8274 11.6107 13.841 11.7455C13.8767 11.8717 13.8306 12.0167 13.7367 12.1036C13.6513 12.2127 13.5097 12.2416 13.3972 12.2467C13.2692 12.2449 13.155 12.2124 13.0697 12.1561C12.8839 12.0365 12.7646 11.8915 12.6538 11.7686C12.5583 11.6525 12.4851 11.528 12.4664 11.4461C12.4323 11.3574 12.4374 11.3045 12.4528 11.3113C12.4528 11.3113 12.4698 11.3557 12.5039 11.4444C12.5448 11.5178 12.6095 11.6202 12.705 11.7362C12.8004 11.8523 12.9419 11.9888 13.1124 12.1015C13.2744 12.192 13.5387 12.2178 13.689 12.0456C13.7606 11.9672 13.7931 11.8529 13.7813 11.7557C13.7694 11.6584 13.691 11.5867 13.6057 11.5304C13.5205 11.4741 13.4352 11.4177 13.379 11.3375C13.3227 11.2573 13.2802 11.1464 13.3143 11.0697C13.3742 10.894 13.5226 10.8498 13.6113 10.8157C13.6932 10.797 13.7307 10.7953 13.7307 10.7953Z" fill="#00357C"/>
<path d="M13.3859 12.1869C13.3859 12.1869 13.432 12.2074 13.4729 12.2808C13.5138 12.3541 13.5273 12.4889 13.4658 12.627C13.389 12.7583 13.2286 12.8708 13.0256 12.8723C12.8226 12.8739 12.6231 12.7851 12.4509 12.6349C12.2787 12.4847 12.1799 12.2936 12.1562 12.0991C12.1102 11.9131 12.1547 11.7307 12.194 11.601C12.2402 11.4561 12.3119 11.3777 12.3614 11.3078C12.4109 11.2379 12.4552 11.2208 12.4552 11.2208C12.4706 11.2277 12.3255 11.347 12.2469 11.6062C12.2076 11.7358 12.1921 11.8944 12.2227 12.0735C12.2601 12.2373 12.3589 12.4284 12.5004 12.565C12.6419 12.7015 12.8414 12.7904 13.0069 12.7905C13.1723 12.7906 13.3259 12.6934 13.3891 12.5928C13.4591 12.4769 13.4387 12.3575 13.4285 12.2978C13.4251 12.2227 13.3859 12.1869 13.3859 12.1869Z" fill="#00357C"/>
<path opacity="0.2" d="M15.5091 12.0845C15.5091 12.0845 15.5432 12.0077 15.6524 11.9276C15.7617 11.8475 15.9459 11.7641 16.1728 11.7915L16.1386 11.8682C16.0755 11.8034 16.0193 11.7232 15.9477 11.6361C15.6256 11.1617 15.5663 10.6756 15.5816 10.6824C15.6038 10.6739 15.699 11.1209 16.0211 11.5953C16.0773 11.6755 16.1336 11.7557 16.1966 11.8205L16.2529 11.9007L16.1471 11.8904C15.951 11.8766 15.7735 11.9448 15.6626 11.9873C15.5671 12.0367 15.5244 12.0913 15.5091 12.0845Z" fill="#00357C"/>
<path d="M12.7265 9.57666C12.7487 9.56815 12.8015 9.73875 12.7348 9.92975C12.6682 10.1207 12.5146 10.2179 12.5061 10.1957C12.4976 10.1735 12.5983 10.0712 12.6581 9.89558C12.7179 9.71993 12.7112 9.56983 12.7265 9.57666Z" fill="#00357C"/>
<path d="M30.2449 10.6271L30.4045 10.8195L30.4046 10.8194L30.405 10.8191L30.4064 10.8179L30.4123 10.8131L30.4355 10.7939L30.5244 10.7205C30.6015 10.657 30.7126 10.5658 30.8486 10.4549C31.1205 10.2331 31.4914 9.93289 31.8878 9.61899C32.6906 8.98334 33.5686 8.3153 33.9558 8.10678L33.9562 8.10652C34.5314 7.79514 34.9577 7.71496 35.2277 7.70611C35.2987 7.70379 35.3594 7.70636 35.4099 7.71116L34.3046 14.7672C34.2521 14.8045 34.1764 14.8584 34.0801 14.9265C33.8815 15.0668 33.5959 15.2674 33.2479 15.5084C32.5517 15.9906 31.6066 16.6338 30.6101 17.2788C29.6128 17.9243 28.5675 18.5693 27.6699 19.0563C27.2209 19.2998 26.8129 19.5017 26.4689 19.6441C26.1174 19.7895 25.8579 19.8619 25.6965 19.8684L25.6954 19.8684C25.3468 19.884 24.8053 19.7236 24.1391 19.4256C23.4849 19.1329 22.7488 18.7256 22.0269 18.2888C20.5836 17.4155 19.2174 16.4367 18.7124 16.057L18.7117 16.0565C18.138 15.6282 17.4964 15.1006 16.9965 14.6786C16.7469 14.4679 16.5334 14.2841 16.3823 14.1531C16.3522 14.1269 16.3246 14.1029 16.2997 14.0812L18.2723 10.7999L19.1043 11.1996L19.1131 11.2046L19.1617 11.2324L19.3462 11.3373C19.5053 11.4277 19.733 11.5565 20.0077 11.7108C20.5571 12.0193 21.295 12.4295 22.048 12.8362C22.8004 13.2425 23.5707 13.6468 24.1842 13.9425C24.4903 14.0901 24.7617 14.2128 24.9743 14.2953C25.0801 14.3364 25.1768 14.3698 25.2588 14.3909C25.2998 14.4015 25.3419 14.4103 25.3826 14.4149C25.4196 14.419 25.4738 14.4218 25.5307 14.4076C25.5943 14.3916 25.6635 14.3571 25.7222 14.3249C25.787 14.2894 25.863 14.2431 25.947 14.1891C26.1154 14.0809 26.3263 13.9347 26.5626 13.7651C27.0358 13.4255 27.6203 12.9851 28.188 12.5498C28.7562 12.1142 29.3092 11.6825 29.7202 11.3598C29.9257 11.1984 30.0957 11.0642 30.2143 10.9703L30.3519 10.8614L30.388 10.8327L30.3973 10.8253L30.3997 10.8234L30.4003 10.8229L30.4004 10.8228L30.2449 10.6271ZM30.2449 10.6271L30.4045 10.8195L30.4005 10.8228L30.2449 10.6271Z" fill="white" stroke="#00357C" stroke-width="0.5"/>
<path d="M8.0771 12.6055C10.381 14.2187 13.5566 13.6585 15.1701 11.3541C16.7837 9.04982 16.224 5.87405 13.9201 4.26085C11.6162 2.64766 8.44056 3.20793 6.82706 5.51225C5.21355 7.81657 5.77322 10.9923 8.0771 12.6055Z" fill="#3E7BFA"/>
<path opacity="0.2" d="M13.844 5.3316L16.0554 6.88006" stroke="white"/>
<path opacity="0.2" d="M14.0247 6.3573L16.2361 7.90575" stroke="white"/>
<path opacity="0.2" d="M14.8084 7.80505L15.9552 8.7012" stroke="white"/>
<path opacity="0.2" d="M14.3152 8.50879L15.9547 9.58768" stroke="white"/>
<path opacity="0.2" d="M13.8233 9.21252L15.5121 10.4743" stroke="white"/>
<path opacity="0.2" d="M13.2605 10.017L15.472 11.5654" stroke="white"/>
<path d="M13.881 10.4533C12.2991 12.7124 9.1858 13.2616 6.92718 11.6801C4.66855 10.0986 4.11986 6.9852 5.7017 4.7261C7.28353 2.467 10.3969 1.91775 12.6555 3.49926C14.9141 5.08077 15.4628 8.19418 13.881 10.4533Z" fill="#00357C" stroke="#00357C" stroke-width="0.2"/>
<path d="M8.61703 6.08789L10.7621 6.08789" stroke="white" stroke-width="0.5" stroke-linecap="round" stroke-linejoin="round"/>
<path d="M8.61575 7.16052L10.7608 7.16052" stroke="white" stroke-width="0.5" stroke-linecap="round" stroke-linejoin="round"/>
<path d="M9.33206 6.08789C9.61652 6.08789 9.88932 6.20089 10.0905 6.40203C10.2916 6.60317 10.4046 6.87597 10.4046 7.16043C10.4046 7.44488 10.2916 7.71769 10.0905 7.91883C9.88932 8.11997 9.61652 8.23297 9.33206 8.23297L8.61703 8.23297L10.4046 10.0205" stroke="white" stroke-width="0.5" stroke-linecap="round" stroke-linejoin="round"/>
<path d="M7.62475 10.7907C9.34572 11.9957 11.7179 11.5772 12.9232 9.85588C14.1284 8.13458 13.7104 5.76231 11.9894 4.55728C10.2684 3.35224 7.89626 3.77076 6.69099 5.49206C5.48572 7.21336 5.90378 9.58562 7.62475 10.7907Z" stroke="white"/>
<mask id="path-29-inside-1_9530_102213" fill="white">
<path d="M4.25137 11.3846C4.39681 11.5702 4.68573 11.5779 4.9089 11.4882C5.13206 11.3984 5.32218 11.2297 5.53595 11.126C6.17726 10.815 7.00323 11.0482 7.62575 10.7093C7.71871 10.6669 7.79742 10.5733 7.7783 10.4849C7.75918 10.3964 7.64257 10.3738 7.54929 10.3556C6.77062 10.2527 5.98255 10.1358 5.20388 10.0329"/>
</mask>
<path d="M4.25137 11.3846C4.39681 11.5702 4.68573 11.5779 4.9089 11.4882C5.13206 11.3984 5.32218 11.2297 5.53595 11.126C6.17726 10.815 7.00323 11.0482 7.62575 10.7093C7.71871 10.6669 7.79742 10.5733 7.7783 10.4849C7.75918 10.3964 7.64257 10.3738 7.54929 10.3556C6.77062 10.2527 5.98255 10.1358 5.20388 10.0329" fill="white"/>
<path d="M5.53595 11.126L5.31779 10.6761L5.53595 11.126ZM7.62575 10.7093L7.38672 10.2702L7.40214 10.2618L7.41811 10.2545L7.62575 10.7093ZM7.54929 10.3556L7.61483 9.85996L7.62983 9.86194L7.64469 9.86483L7.54929 10.3556ZM4.64491 11.0761C4.6315 11.059 4.61652 11.0489 4.60706 11.0441C4.59891 11.0401 4.59849 11.0418 4.60942 11.043C4.62026 11.0443 4.63735 11.0446 4.65924 11.0413C4.68098 11.0381 4.70286 11.0321 4.72236 11.0243L5.09543 11.9521C4.91565 12.0244 4.70351 12.061 4.49256 12.0362C4.27943 12.0111 4.0334 11.917 3.85782 11.693L4.64491 11.0761ZM4.72236 11.0243C4.78406 10.9995 4.85112 10.9596 4.95354 10.893C5.04311 10.8348 5.17577 10.745 5.31779 10.6761L5.75411 11.5759C5.68236 11.6107 5.61307 11.6571 5.49835 11.7316C5.39648 11.7978 5.25689 11.8871 5.09543 11.9521L4.72236 11.0243ZM5.31779 10.6761C5.74393 10.4695 6.21739 10.4505 6.55649 10.4291C6.93887 10.405 7.18811 10.3783 7.38672 10.2702L7.86479 11.1485C7.44088 11.3792 6.96586 11.4053 6.6193 11.4271C6.22946 11.4517 5.96928 11.4716 5.75411 11.5759L5.31779 10.6761ZM7.41811 10.2545C7.39286 10.266 7.36549 10.2848 7.33963 10.3203C7.3152 10.3539 7.25965 10.452 7.28959 10.5905L8.26701 10.3792C8.31607 10.6061 8.23072 10.7952 8.14847 10.9084C8.06481 11.0234 7.9516 11.1102 7.8334 11.1642L7.41811 10.2545ZM7.28959 10.5905C7.30758 10.6737 7.35022 10.7404 7.3968 10.7862C7.43859 10.8274 7.47705 10.8458 7.49044 10.8516C7.50468 10.8579 7.51073 10.8587 7.50105 10.8563C7.49132 10.8538 7.4792 10.8514 7.45388 10.8465L7.64469 9.86483C7.67837 9.87137 7.78896 9.89052 7.89277 9.93615C8.00068 9.98357 8.20829 10.1076 8.26701 10.3792L7.28959 10.5905ZM7.48375 10.8513C7.09211 10.7995 6.69845 10.7443 6.30711 10.6894C5.91509 10.6344 5.52538 10.5797 5.13834 10.5285L5.26942 9.53717C5.66106 9.58895 6.05472 9.64419 6.44606 9.6991C6.83808 9.7541 7.22779 9.80878 7.61483 9.85996L7.48375 10.8513Z" fill="#00357C" mask="url(#path-29-inside-1_9530_102213)"/>
<mask id="path-31-inside-2_9530_102213" fill="white">
<path d="M16.7961 11.3847C16.6507 11.5703 16.3618 11.5781 16.1386 11.4884C15.9154 11.3986 15.7253 11.2299 15.5115 11.1262C14.8702 10.8152 14.0443 11.0484 13.4217 10.7095C13.3288 10.6671 13.2501 10.5735 13.2692 10.485C13.2883 10.3966 13.4049 10.374 13.4982 10.3558C14.2769 10.2529 15.0649 10.136 15.8436 10.033"/>
</mask>
<path d="M16.7961 11.3847C16.6507 11.5703 16.3618 11.5781 16.1386 11.4884C15.9154 11.3986 15.7253 11.2299 15.5115 11.1262C14.8702 10.8152 14.0443 11.0484 13.4217 10.7095C13.3288 10.6671 13.2501 10.5735 13.2692 10.485C13.2883 10.3966 13.4049 10.374 13.4982 10.3558C14.2769 10.2529 15.0649 10.136 15.8436 10.033" fill="white"/>
<path d="M15.5115 11.1262L15.7297 10.6763L15.5115 11.1262ZM13.4217 10.7095L13.6608 10.2704L13.6453 10.262L13.6294 10.2547L13.4217 10.7095ZM13.4982 10.3558L13.4327 9.86014L13.4177 9.86212L13.4028 9.86501L13.4982 10.3558ZM16.4026 11.0763C16.416 11.0592 16.431 11.049 16.4404 11.0443C16.4486 11.0403 16.449 11.0419 16.4381 11.0432C16.4272 11.0445 16.4101 11.0448 16.3882 11.0415C16.3665 11.0383 16.3446 11.0323 16.3251 11.0245L15.9521 11.9523C16.1318 12.0245 16.344 12.0612 16.5549 12.0364C16.7681 12.0113 17.0141 11.9172 17.1897 11.6932L16.4026 11.0763ZM16.3251 11.0245C16.2634 10.9996 16.1964 10.9598 16.0939 10.8932C16.0044 10.835 15.8717 10.7452 15.7297 10.6763L15.2934 11.5761C15.3651 11.6109 15.4344 11.6572 15.5491 11.7318C15.651 11.798 15.7906 11.8873 15.9521 11.9523L16.3251 11.0245ZM15.7297 10.6763C15.3036 10.4697 14.8301 10.4506 14.491 10.4293C14.1086 10.4052 13.8594 10.3785 13.6608 10.2704L13.1827 11.1487C13.6066 11.3794 14.0816 11.4055 14.4282 11.4273C14.818 11.4519 15.0782 11.4717 15.2934 11.5761L15.7297 10.6763ZM13.6294 10.2547C13.6546 10.2662 13.682 10.285 13.7079 10.3205C13.7323 10.3541 13.7878 10.4522 13.7579 10.5907L12.7805 10.3794C12.7314 10.6063 12.8168 10.7954 12.899 10.9085C12.9827 11.0236 13.0959 11.1104 13.2141 11.1644L13.6294 10.2547ZM13.7579 10.5907C13.7399 10.6739 13.6973 10.7406 13.6507 10.7864C13.6089 10.8276 13.5704 10.8459 13.557 10.8518C13.5428 10.8581 13.5368 10.8589 13.5464 10.8564C13.5562 10.854 13.5683 10.8516 13.5936 10.8466L13.4028 9.86501C13.3691 9.87156 13.2585 9.89071 13.1547 9.93633C13.0468 9.98375 12.8392 10.1078 12.7805 10.3794L13.7579 10.5907ZM13.5637 10.8515C13.9554 10.7997 14.349 10.7445 14.7404 10.6896C15.1324 10.6346 15.5221 10.5799 15.9091 10.5287L15.7781 9.53735C15.3864 9.58913 14.9928 9.64437 14.6014 9.69928C14.2094 9.75429 13.8197 9.80897 13.4327 9.86014L13.5637 10.8515Z" fill="#00357C" mask="url(#path-31-inside-2_9530_102213)"/>
</g>
</g>
</svg>
