<svg width="148" height="148" viewBox="0 0 148 148" fill="none" xmlns="http://www.w3.org/2000/svg">
<mask id="mask0_1440_91164" style="mask-type:alpha" maskUnits="userSpaceOnUse" x="0" y="0" width="148" height="148">
<rect width="148" height="148" fill="#C4C4C4"/>
</mask>
<g mask="url(#mask0_1440_91164)">
<path d="M98 112H33.5725C32.625 112 31.7163 111.624 31.0464 110.956C30.3764 110.287 30 109.38 30 108.435V33.5652C30 32.6197 30.3764 31.7128 31.0464 31.0442C31.7163 30.3756 32.625 30 33.5725 30H81.0612C82.0086 30.0002 82.9172 30.376 83.587 31.0446L96.8301 44.2609C97.5001 44.9293 97.8766 45.836 97.8768 46.7815V112" fill="#E5F1FF"/>
<path d="M98 112H33.5725C32.625 112 31.7163 111.624 31.0464 110.956C30.3764 110.287 30 109.38 30 108.435V33.5652C30 32.6197 30.3764 31.7128 31.0464 31.0442C31.7163 30.3756 32.625 30 33.5725 30H81.0612C82.0086 30.0002 82.9172 30.376 83.587 31.0446L96.8301 44.2609C97.5001 44.9293 97.8766 45.836 97.8768 46.7815V112" stroke="#282C3F"/>
<path d="M83 44.3V31.6899C83 31.0663 83.754 30.754 84.195 31.195L96.805 43.805C97.246 44.246 96.9337 45 96.3101 45H83.7C83.3134 45 83 44.6866 83 44.3Z" fill="#00357C"/>
<path d="M83 44.3V31.6899C83 31.0663 83.754 30.754 84.195 31.195L96.805 43.805C97.246 44.246 96.9337 45 96.3101 45H83.7C83.3134 45 83 44.6866 83 44.3Z" stroke="#282C3F"/>
<path d="M114.716 103.695C114.716 113.444 106.812 121.347 97.0628 121.347C87.3135 121.347 79.4102 113.444 79.4102 103.695C79.4102 93.9453 87.3135 86.0419 97.0628 86.0419C106.812 86.0419 114.716 93.9453 114.716 103.695Z" fill="white" stroke="#282C3F"/>
<path d="M123.001 129.632L109.982 116.613" stroke="#282C3F"/>
<path d="M43 56H77" stroke="#282C3F" stroke-width="2" stroke-linecap="round" stroke-linejoin="round"/>
<path d="M43 67H64" stroke="#282C3F" stroke-width="2" stroke-linecap="round" stroke-linejoin="round"/>
<path d="M43 46H68" stroke="#282C3F" stroke-width="2" stroke-linecap="round" stroke-linejoin="round"/>
</g>
</svg>
